<svg width="250" height="250" viewBox="0 0 250 250" fill="none" xmlns="http://www.w3.org/2000/svg">
<path d="M0 246.673V3.327H38.1624C44.8666 3.327 50.4965 5.82224 55.0519 10.8128C59.636 15.8033 63.0884 22.8533 65.409 31.9629C67.7584 41.0726 68.933 51.806 68.933 64.1635C68.933 73.1148 68.2168 81.2739 66.7843 88.6408C65.3804 96.0076 63.4035 102.186 60.8536 107.177C58.3037 112.088 55.3241 115.494 51.9147 117.396V119.772C55.6965 120.168 59.1346 122.822 62.2288 127.733C65.3231 132.565 67.787 139.259 69.6207 147.814C71.4543 156.29 72.3711 166.271 72.3711 177.757C72.3711 191.065 71.1104 202.907 68.5893 213.284C66.0966 223.661 62.544 231.82 57.9312 237.761C53.3185 243.702 47.8177 246.673 41.4286 246.673H0ZM23.8945 193.916H35.0682C39.0792 193.916 42.0876 191.857 44.0931 187.738C46.0986 183.539 47.1014 177.361 47.1014 169.201C47.1014 163.498 46.6287 158.666 45.6832 154.705C44.7377 150.745 43.3911 147.734 41.6435 145.675C39.9245 143.616 37.8473 142.586 35.4119 142.586H23.8945V193.916ZM23.8945 101.711H33.693C35.7844 101.711 37.6324 100.8 39.2368 98.9782C40.8413 97.1562 42.0876 94.5421 42.9757 91.136C43.8925 87.6506 44.3509 83.4127 44.3509 78.4222C44.3509 70.8968 43.3768 65.1537 41.4286 61.1931C39.4804 57.1531 37.0164 55.1332 34.0368 55.1332H23.8945V101.711ZM163.007 94.5818H138.769C138.597 89.0369 138.138 84.0066 137.393 79.4916C136.677 74.9763 135.674 71.0947 134.385 67.847C133.124 64.52 131.592 61.9852 129.787 60.2424C127.982 58.4204 125.933 57.5096 123.641 57.5096C119.63 57.5096 116.235 60.2029 113.456 65.5895C110.706 70.976 108.614 78.6993 107.182 88.7595C105.778 98.8198 105.075 110.9 105.075 125C105.075 139.892 105.792 152.368 107.224 162.429C108.686 172.41 110.792 179.935 113.542 185.005C116.292 189.995 119.601 192.49 123.469 192.49C125.675 192.49 127.652 191.738 129.4 190.233C131.147 188.649 132.666 186.391 133.955 183.46C135.244 180.529 136.291 177.004 137.092 172.885C137.924 168.687 138.482 163.973 138.769 158.745L163.007 159.221C162.72 169.518 161.675 180.014 159.87 190.708C158.065 201.323 155.501 211.146 152.177 220.176C148.882 229.127 144.8 236.336 139.929 241.802C135.058 247.267 129.4 250 122.953 250C114.874 250 107.625 245.208 101.207 235.623C94.8188 226.038 89.7619 211.938 86.0374 193.322C82.3414 174.707 80.4935 151.933 80.4935 125C80.4935 97.9088 82.3845 75.095 86.1663 56.5589C89.9482 37.9436 95.0476 23.8831 101.465 14.3774C107.883 4.79245 115.046 0 122.953 0C128.511 0 133.625 2.09918 138.296 6.29753C142.966 10.4959 147.062 16.635 150.587 24.7148C154.111 32.7154 156.947 42.5775 159.096 54.3014C161.244 66.025 162.548 79.4519 163.007 94.5818ZM250 3.327V246.673H230.06L198.257 118.821H197.742V246.673H173.847V3.327H194.132L225.418 130.704H226.106V3.327H250Z" fill="white"/>
</svg>
