<svg width="250" height="248" viewBox="0 0 250 248" fill="none" xmlns="http://www.w3.org/2000/svg">
<path d="M0 0.417969H25.8672L43.6603 140.65H44.5574L62.3505 0.417969H88.2179V248H67.8828V104.867H67.2847L50.2392 246.066H37.9785L20.933 103.9H20.335V248H0V0.417969ZM117.954 248H95.5255L120.794 0.417969H149.204L174.473 248H152.044L135.299 68.5999H134.7L117.954 248ZM113.767 150.321H155.933V200.611H113.767V150.321ZM211.302 248H181.846V0.417969H211.003C218.877 0.417969 225.681 5.37446 231.413 15.2874C237.169 25.1199 241.605 39.3042 244.72 57.8406C247.86 76.2965 249.43 98.4193 249.43 124.209C249.43 149.999 247.873 172.162 244.757 190.698C241.642 209.154 237.231 223.339 231.525 233.252C225.818 243.084 219.077 248 211.302 248ZM202.63 190.94H210.554C214.342 190.94 217.569 188.966 220.236 185.017C222.928 181.067 224.97 174.257 226.366 164.586C227.787 154.915 228.497 141.456 228.497 124.209C228.497 106.962 227.774 93.5031 226.329 83.8318C224.909 74.1608 222.815 67.3507 220.049 63.4015C217.308 59.4526 213.943 57.4778 209.956 57.4778H202.63V190.94Z" fill="white"/>
</svg>
