<svg width="3042" height="1579" viewBox="0 0 3042 1579" fill="none"
  xmlns="http://www.w3.org/2000/svg">
  <path
    d="M934.523 1029.96C933.741 1030.77 932.97 1031.59 932.188 1032.4C932.499 1031.14 933.323 1030.38 934.523 1029.96ZM942.748 1045.49C941.881 1044.47 941.174 1043.68 939.846 1043.71C939.192 1043.72 939.064 1044.67 939.192 1045.3C939.321 1045.89 939.557 1046.32 939.856 1046.67C930.325 1049.71 920.472 1047.58 910.383 1043.79C907.898 1042.86 904.589 1043.69 901.751 1044.19C894.725 1045.42 888.021 1047.32 881.027 1042.87C876.647 1040.09 871.024 1039.32 866.044 1037.41C862.049 1035.88 858.322 1033.5 854.231 1032.38C849.829 1031.18 844.967 1031.62 840.619 1030.29C817.667 1023.31 794.673 1016.42 772 1008.61C761.237 1004.92 751.223 999.113 740.728 994.572C735.662 992.377 730.275 990.909 725.305 987.418C732.685 987.418 740.106 986.936 747.443 987.504C782.046 990.17 816.736 992.248 851.2 996.264C874.794 999.017 898.249 1003.88 919.55 1015.62C920.975 1016.4 922.421 1017.17 923.856 1017.95C923.813 1018.04 923.792 1018.06 923.759 1018.16C924.648 1018.58 925.527 1019.01 926.415 1019.44L926.405 1019.46C925.505 1019.03 924.616 1018.63 923.717 1018.21C920.407 1017.58 920.107 1021.83 917.344 1022.09C917.344 1022.09 916.948 1022.57 916.959 1022.56C917.965 1025.04 920.322 1025.13 922.41 1025.37C926.662 1025.89 929.125 1024.12 929.479 1020.93C930.603 1021.51 931.76 1022.01 932.895 1022.56C932.263 1024.12 930.592 1025.72 933.313 1027.18C934.63 1026.32 936.29 1025.48 937.586 1026.16C939.503 1027.14 940.317 1027.01 940.745 1026.47C941.988 1027.18 943.091 1028.02 944.108 1028.92C943.958 1029.18 943.905 1029.4 943.701 1029.68C942.952 1030.72 942.127 1031.86 940.542 1030.59C938.85 1029.23 936.643 1030.66 934.833 1029.72C935.112 1028.37 934.544 1027.57 933.238 1027.24C932.124 1028.2 930.742 1028.44 929.361 1028.66C929.446 1030.48 930.646 1031.57 931.985 1032.58C930.946 1033.62 929.596 1033.89 928.204 1033.98C929.543 1035.74 931.353 1036.49 933.538 1036.45C936.729 1033.06 936.783 1033.04 939.342 1035.99C940.038 1036.79 940.488 1037.94 941.656 1038.08C943.294 1038.27 945.083 1039.29 946.561 1037.87C947.396 1037.08 946.989 1035.87 946.818 1034.82L946.796 1034.8C944.815 1033.62 944.976 1032.44 946.775 1031.91C948.467 1034.4 949.635 1037.38 949.924 1041.29C947.557 1043.13 945.158 1044.44 942.748 1045.49ZM848.48 1182.3C847.034 1184.76 842.771 1185.56 838.68 1187.6C834.632 1181.46 824.811 1186.44 822.176 1176.47C821.544 1174.07 813.887 1173.95 809.903 1171.92C800.232 1166.99 789.575 1163.84 783.203 1153.4C780.108 1148.34 773.66 1145.41 769.012 1141.2C766.399 1138.82 764.643 1135.47 761.965 1133.19C759.299 1130.92 755.978 1129.43 752.926 1127.62C748.728 1125.14 744.24 1123.04 740.342 1120.13C733.156 1114.8 725.969 1109.37 719.458 1103.26C714.906 1098.98 711.864 1093.12 707.431 1088.69C702.868 1084.14 696.914 1080.95 692.576 1076.22C689.245 1072.58 687.489 1067.51 685.026 1063.06C689.834 1063.82 695.339 1063.35 699.312 1065.61C707.045 1069.98 713.792 1076.06 721.203 1081.07C723.645 1082.71 727.019 1082.93 729.707 1084.31C743.009 1091.19 757.092 1096.99 769.269 1105.51C789.554 1119.66 809.003 1135.11 827.949 1151.03C835.146 1157.09 840.201 1165.8 845.802 1173.61C847.559 1176.06 849.529 1180.5 848.48 1182.3ZM757.082 1271.75C756.321 1271.95 755.732 1272.39 755.657 1273.5C755.625 1273.92 755.829 1274.26 756.118 1274.5C755.625 1275.71 755.047 1276.76 754.179 1277.17C753.976 1277.27 753.697 1277.23 753.472 1277.27C752.444 1273.78 752.187 1270.49 755.379 1267.34C753.612 1266.52 752.766 1267.44 751.78 1267.82L751.684 1267.94C749.52 1270.84 750.87 1274.09 750.677 1277.09C749.831 1276.86 748.974 1276.56 748.117 1276.18C748.128 1276.12 748.16 1276.07 748.16 1276.03C748.096 1275.49 747.775 1275.32 747.282 1275.5C747.261 1275.6 747.261 1275.67 747.218 1275.78C746.554 1275.45 745.9 1275.11 745.333 1274.77C728.904 1265.28 716.673 1251.49 706.424 1235.78C705.685 1234.64 705.289 1233.01 704.26 1232.35C685.818 1220.8 679.242 1200.05 667.236 1183.61C660.939 1175 659 1163.25 654.899 1152.99C654.256 1151.38 652.66 1150.05 651.268 1148.86C641.458 1140.47 637.077 1128.98 633.382 1117.19C633.211 1116.62 638.031 1113.31 638.748 1113.83C642.978 1116.77 646.995 1120.2 650.508 1123.99C663.97 1138.5 677.529 1152.96 690.37 1168.03C694.407 1172.75 696.132 1179.41 699.291 1184.97C700.544 1187.2 702.718 1188.96 704.635 1190.76C710.044 1195.86 718.13 1198.61 719.211 1207.56C719.308 1208.38 720.55 1209.34 721.471 1209.76C729.075 1213.2 734.023 1218.88 737.001 1226.68C738.918 1231.68 741.584 1236.41 744.069 1241.19C746.329 1245.54 746.629 1250.41 752.134 1253.71C753.794 1254.69 754.736 1256.9 755.507 1259.48C754.543 1258.86 753.333 1259.2 752.102 1259.72C751.919 1259.79 751.748 1259.88 751.566 1259.96C751.47 1262.51 752.883 1263.55 755.25 1263.23C755.764 1263.17 756.075 1262.88 756.332 1262.55C756.846 1264.68 757.36 1266.85 758.078 1268.83C757.703 1269.72 757.392 1270.73 757.082 1271.75ZM499.166 1083.76C438.602 1076.5 401.61 1041.12 382.139 997.41C359.06 935.946 374.567 868.495 416.336 831.771C472.863 782.077 557.407 778.832 615.508 835.53C624.975 844.773 623.926 849.228 612.734 855.976C589.247 870.145 566.36 885.331 542.627 899.051C536.426 902.639 527.719 904.427 520.64 903.485C502.058 901.011 484.858 911.667 480.07 930.677C475.958 946.956 488.274 967.744 504.564 972.028C520.972 976.355 541.727 965.281 546.482 948.991C549.888 937.328 556.978 930.441 567.817 924.733C583.549 916.444 597.644 905.091 612.991 895.977C622.769 890.172 633.554 886.049 643.889 881.176C648.205 892.282 654.567 903.046 656.473 914.559C663.991 959.915 654.845 1001.84 623.101 1036.12C589.986 1071.87 549.428 1089.8 499.166 1083.76ZM617.907 1361.17C618.185 1368.13 616.953 1373.8 612.166 1378.18C598.297 1377.28 596.08 1366.38 592.032 1356.39C588.133 1346.81 581.097 1338.28 578.376 1328.47C573.332 1310.34 569.369 1291.76 566.895 1273.11C563.608 1248.47 561.99 1223.6 560.02 1198.8C558.927 1184.94 558.531 1171.02 557.899 1157.13C557.846 1155.94 558.37 1154.73 559.077 1151.4C576.684 1195.08 594.57 1236.34 603.641 1280.58C605.933 1287.08 608.407 1293.53 610.485 1300.1C612.755 1307.3 615.111 1314.52 616.482 1321.91C617.05 1324.95 614.854 1328.43 614.458 1331.77C614.18 1334.24 613.869 1337.51 615.165 1339.19C620.531 1346.19 617.607 1353.72 617.907 1361.17ZM466.233 1186.85C465.548 1200.12 463.866 1213.34 462.892 1226.6C460.493 1259.2 457.558 1291.78 449.397 1323.47C446.666 1334.08 439.78 1343.58 434.982 1353.67C433.354 1357.1 432.69 1361.01 430.912 1364.33C427.121 1371.45 423.158 1378.68 413.037 1377.71C402.156 1369.4 408.325 1356.72 406.976 1345.56C406.815 1344.28 408.421 1342.81 409.139 1341.42C411.099 1337.62 412.513 1334.76 409.921 1329.61C407.008 1323.84 406.247 1316.16 411.484 1309.74C413.016 1307.87 413.005 1304.76 413.787 1302.25C421.455 1277.74 428.588 1253.06 436.985 1228.8C443.989 1208.52 452.525 1188.8 460.236 1168.76C462.067 1163.99 463.256 1158.99 464.745 1154.1C465.28 1154.2 465.816 1154.3 466.351 1154.41C466.351 1165.22 466.79 1176.06 466.233 1186.85ZM392.11 1117.62C388.126 1129.57 383.339 1141.1 373.507 1149.89C371.397 1151.78 371.322 1155.79 369.855 1158.58C363.065 1171.61 357.303 1185.37 348.949 1197.31C334.598 1217.81 319.133 1237.58 303.025 1256.73C296.674 1264.27 287.496 1269.53 279.292 1275.36C277.118 1276.91 273.016 1278.07 271.121 1277.02C269.086 1275.9 268.625 1271.96 267.179 1268.55C271.624 1263.32 268.379 1254.33 277.889 1251.02C280.46 1250.12 280.428 1242.74 282.313 1238.67C286.907 1228.75 290.099 1217.89 300.766 1211.93C303.486 1210.41 304.814 1206.56 307.149 1204.14C311.443 1199.67 316.241 1195.65 320.375 1191.03C322.839 1188.27 324.434 1184.74 326.416 1181.55C329.286 1176.92 331.674 1171.9 335.134 1167.76C343.23 1158.11 351.777 1148.83 360.27 1139.51C366.599 1132.57 373.047 1125.74 379.623 1119.03C381.7 1116.91 384.185 1114.93 386.862 1113.72C390.215 1112.22 393.599 1113.13 392.11 1117.62ZM242.311 1153.74C235.853 1163.07 226.107 1166.05 217.678 1171.44C217.346 1171.34 216.961 1171.33 216.629 1171.23C216.029 1171.06 215.408 1170.92 214.808 1170.76C215.129 1171.3 215.376 1171.9 215.793 1172.32C215.836 1172.38 215.901 1172.38 215.943 1172.42C211.017 1175.01 204.366 1173.95 200.596 1180.84C198.808 1184.13 191.557 1185.1 186.598 1185.74C186.095 1185.81 185.559 1185.72 185.035 1185.67C185.313 1185.38 185.592 1185.08 185.87 1184.79C185.881 1184.78 185.881 1184.76 185.891 1184.75H185.838C185.538 1185.05 185.249 1185.36 184.96 1185.67C183.214 1185.48 181.404 1184.8 179.583 1184.07C180.462 1183.9 181.265 1183.53 181.093 1182.88C180.579 1180.87 181.297 1177.86 178.245 1177.28C178.416 1176.65 178.716 1176.09 178.951 1175.49C179.53 1174.77 180.033 1173.99 180.226 1173.02L180.183 1172.98C180.14 1172.98 180.119 1172.99 180.076 1173C190.304 1157.51 202.952 1144.38 218.964 1134.7C220.109 1134 221.512 1133.38 222.209 1132.34C234.107 1114.24 254.638 1107.45 271.206 1095.62C279.656 1089.59 290.998 1087.63 301.012 1083.77C301.976 1083.41 303.047 1082.84 303.625 1082.05C312.247 1070.25 325.227 1065.87 341.045 1060.44C340.157 1064.68 340.328 1067.7 338.946 1069.62C336.258 1073.35 332.885 1076.68 329.479 1079.82C315.17 1093.01 300.98 1106.32 286.232 1118.99C281.67 1122.91 275.49 1124.95 270.018 1127.81C269.311 1128.18 268.197 1128 267.683 1128.5C259.04 1136.78 248.983 1144.09 242.311 1153.74ZM148.096 1041.26C142.452 1042.69 136.487 1047.92 131.089 1045.19C126.612 1042.93 122.446 1043 118.387 1043.79C118.665 1042.97 118.912 1042.09 119.276 1041.19C116.117 1040.68 114.457 1041.77 112.871 1042.92C111.983 1043.56 111.608 1044.48 111.768 1045.5C108.084 1046.56 104.411 1047.54 100.609 1047.21C100.266 1047.19 99.9125 1047.17 99.5591 1047.14C100.801 1045.57 102.172 1044.12 103.372 1042.52C102.312 1042.47 101.198 1042.22 100.223 1042.48C96.5282 1043.44 94.7932 1044.76 94.0542 1047.43C92.3192 1047.64 90.6485 1047.69 89.042 1047.55C91.7302 1046.14 92.994 1043.3 94.9539 1041.16C95.5001 1040.57 94.8254 1039.5 94.0542 1039C92.9511 1038.29 91.9122 1037.55 91.4196 1036.27C92.2228 1034.92 93.0368 1033.56 93.84 1032.21C93.8614 1032.2 93.8936 1032.19 93.9257 1032.17C93.915 1032.15 93.8936 1032.15 93.8829 1032.13L93.84 1032.21C93.7222 1031.8 93.6151 1031.38 93.4652 1030.99C92.8761 1029.43 91.9443 1028.16 90.1344 1029.13C88.7635 1029.88 89.0741 1031.24 89.6631 1032.52C90.1986 1033.66 90.6271 1034.86 91.0983 1036.05C89.7917 1036.07 88.9242 1037.65 87.4891 1037.1C86.9 1036.88 86.1717 1035.96 85.9147 1036.09C82.8517 1037.73 80.0886 1037.99 76.7792 1036.26C78.3643 1029.2 83.9012 1026.38 89.8345 1023.87C89.3633 1024.39 88.8278 1024.82 88.4636 1025.51C91.8158 1024.81 92.5548 1024.58 93.0796 1022.48C93.7865 1022.18 94.504 1021.88 95.1894 1021.56C97.7384 1020.37 100.255 1019.03 102.74 1017.66C102.633 1018.65 102.633 1019.68 102.269 1020.54C100.759 1024.12 102.312 1025.82 105.707 1026.55C105.974 1026.68 106.242 1026.81 106.521 1026.94C106.253 1026.81 105.985 1026.67 105.717 1026.53C103.918 1022.75 107.945 1023.16 109.294 1021.63C109.476 1021.35 109.68 1021.08 109.883 1020.82C109.883 1020.14 109.873 1019.44 109.873 1018.74C109.573 1018.51 109.273 1018.27 108.973 1018.04C107.077 1017.81 105.171 1017.6 103.275 1017.37C110.505 1013.37 117.637 1009.07 125.381 1007.03C145.14 1001.79 165.403 997.989 185.677 995.236C208.704 992.109 231.955 990.545 255.142 988.767C270.028 987.632 284.99 987.343 299.92 986.668C300.155 987.343 300.391 988.018 300.626 988.692C298.195 989.721 295.753 990.717 293.322 991.756C281.134 996.95 269.032 1002.37 256.727 1007.27C248.919 1010.39 240.855 1012.91 232.833 1015.46C216.168 1020.77 199.739 1027.42 182.668 1030.61C170.566 1032.87 159.791 1038.27 148.096 1041.26ZM87.7247 1046.65C87.7032 1046.32 87.6604 1045.99 87.6068 1045.66C87.8853 1045.97 87.9174 1046.29 87.7247 1046.65ZM87.4998 1045.53L87.5426 1045.57C87.5212 1045.56 87.4998 1045.53 87.4998 1045.53C87.0286 1046.02 87.0392 1046.55 87.4355 1047.08C87.4997 1047.15 87.5748 1047.25 87.639 1047.35C84.7045 1046.89 82.0056 1045.75 79.628 1043.64C79.8958 1043.49 80.0457 1043.43 80.3456 1043.25C81.695 1042.45 82.9909 1041.67 84.5439 1041.54C87.7033 1041.25 88.4744 1042.77 87.4998 1045.53ZM97.9847 860.442C97.2886 860.634 96.8174 861.149 96.5818 861.78C93.9793 860.956 91.3446 860.217 89.0206 858.91C85.0579 856.693 80.774 854.615 78.4285 850.899C78.4285 850.856 78.4499 850.846 78.4606 850.803C78.7605 849.443 79.8636 847.74 78.3856 846.604C77.7859 846.144 77.2826 846.09 76.822 846.165C76.6185 844.612 76.5864 842.931 76.9506 840.917C80.11 838.251 83.4622 836.601 86.9322 835.627C86.9429 835.67 86.9107 835.702 86.9429 835.745C87.1035 836.044 87.5212 836.184 87.8318 836.398C88.0139 836.087 88.3887 835.702 88.3137 835.488C88.2923 835.423 88.1638 835.413 88.1103 835.359C90.2951 834.845 92.512 834.534 94.7932 834.534C93.9257 835.627 92.3299 836.473 93.1653 838.925C95.9499 836.891 98.1883 839.043 100.748 839.825C100.63 841.582 100.191 842.62 97.8991 842.278C96.0463 842.01 93.2081 841.731 92.512 843.659C91.5374 846.39 89.8881 847.44 87.382 848.029C86.6965 848.19 86.4609 848.95 86.6323 849.667C86.7929 850.364 87.7354 851.049 87.9603 850.771C89.9416 848.254 95.907 852.913 95.7036 846.497C95.6821 845.533 96.978 844.869 97.6742 845.394C100.523 847.547 105.139 847.258 106.413 851.563C110.355 851.178 112.464 849.368 111.565 845.105C111.447 844.537 111.576 843.391 111.822 843.327C115.163 842.395 114.028 840.457 113.536 838.465C114.189 838.701 114.831 838.904 115.495 839.15C117.573 839.943 120.433 840.446 122.318 839.632C130.414 836.173 137.718 834.952 145.569 841.035C149.146 843.809 154.726 844.034 159.417 845.351C161.269 845.865 163.39 845.769 165.007 846.658C175.578 852.473 187.766 851.938 198.872 855.451C210.074 858.996 221.191 862.905 232.137 867.167C249.819 874.054 267.319 881.433 284.947 888.459C290.024 890.483 295.304 891.993 300.091 894.82C289.049 894.82 278.007 895.249 266.997 894.703C253.963 894.06 240.972 892.625 227.971 891.415C197.651 888.609 166.924 887.998 137.579 878.98C128.958 876.335 120.711 872.48 112.454 868.624C112.464 865.561 111.072 862.712 110.901 859.681C110.719 859.488 110.537 859.285 110.365 859.081C107.431 858.246 104.935 858.75 102.783 861.191C105.567 862.916 106.949 864.586 107.249 866.236C104.818 865.111 102.386 863.987 99.9339 862.937C99.8804 862.562 99.8375 862.166 99.7626 861.791C99.5591 860.859 99.0664 860.163 97.9847 860.442ZM93.9043 931.405C93.9471 930.677 93.9793 929.959 94.0221 929.242C94.8896 929.542 95.6929 929.927 96.5711 930.206C96.6567 930.516 96.7746 930.988 96.8602 931.33C95.8749 931.352 94.8896 931.384 93.9043 931.405ZM100.362 834.941C100.33 834.995 100.298 835.016 100.266 835.081C100.105 835.413 99.8483 835.209 99.5805 834.856C99.8376 834.888 100.095 834.899 100.362 834.941ZM101.722 839.011C102.194 838.711 102.954 838.122 103.233 838.754C103.5 839.397 102.558 839.536 102.001 839.654C101.615 839.739 101.23 839.75 100.834 839.793C101.123 839.525 101.39 839.225 101.722 839.011ZM182.914 696.966C183.932 696.763 185.002 696.698 186.095 696.72C185.72 696.923 185.452 697.266 185.581 697.962C185.731 698.84 186.898 698.872 187.766 698.797C188.815 698.701 189.501 698.016 190.133 697.266L190.39 697.33C191.61 700.265 189.019 701.689 187.701 703.628C187.048 704.581 185.72 705.363 187.23 706.83C190.432 709.957 187.23 709.871 185.313 710.375C184.97 713.17 186.748 713.116 188.558 712.56C190.315 712.024 190.797 710.139 191.921 708.897C191.953 708.95 191.975 708.993 192.007 709.036C191.996 708.972 191.975 708.897 191.964 708.833L191.91 708.886C193.496 707.547 194.17 706.005 194.063 703.799C193.977 702.075 193.131 700.211 194.17 698.508C198.401 700.19 201.817 702.749 202.342 704.838C215.279 711.232 228.913 714.584 237.149 723.141C243.736 729.985 251.747 735.254 257.787 742.59C262.842 748.716 267.383 754.328 276.283 757.145C284.808 759.844 291.93 767.887 298.902 774.409C306.185 781.231 312.268 789.349 319.444 796.311C323.888 800.627 329.918 803.337 334.245 807.738C337.179 810.726 338.411 815.385 340.403 819.305C336.633 819.016 332.178 819.915 329.243 818.202C320.643 813.19 312.632 807.171 304.439 801.484C303.347 800.723 302.693 799.17 301.547 798.721C294.372 795.904 286.607 794.18 279.978 790.442C263.827 781.338 247.655 772.096 232.501 761.461C220.099 752.754 208.618 742.515 197.747 731.912C190.261 724.608 184.21 715.73 178.073 707.162C174.089 701.614 175.985 698.273 182.914 696.966ZM271.303 605.568C271.453 605.15 276.615 605.579 278.607 606.896C293.794 616.878 307.213 628.755 317.27 644.145C319.465 647.508 322.689 650.164 325.163 653.355C332.81 663.262 341.099 672.772 347.686 683.343C355.739 696.259 362.937 709.818 369.18 723.698C371.462 728.796 374.364 732.683 377.481 737.053C383.403 745.375 387.312 755.142 391.821 764.438C392.357 765.531 391.907 768.005 391.029 768.669C390.043 769.418 387.698 769.429 386.562 768.733C383.778 767.062 381.025 765.081 378.83 762.703C371.729 755.014 364.982 747.013 357.935 739.27C349.399 729.91 340.671 720.731 332.124 711.381C330.486 709.582 328.119 707.365 328.108 705.33C328.065 695.467 319.315 692.575 314.421 686.513C304.568 674.336 291.062 665.115 284.508 650.357C281.906 644.477 280.449 638.083 278.221 631.122C268.85 631.818 271.442 622.361 268.861 617.702C267.297 614.885 269.91 609.541 271.303 605.568ZM406.815 516.322C407.854 516.29 408.818 516.087 409.064 514.609C409.225 513.591 408.507 512.992 407.672 512.627C408.25 511 409.139 509.457 410.371 508.012C411.099 508.14 411.966 507.904 413.123 506.898L413.177 506.941C413.209 506.866 413.23 506.791 413.262 506.726C413.209 506.78 413.177 506.844 413.123 506.898C412.759 506.651 412.491 506.394 412.256 506.127C412.909 505.58 413.551 505.024 414.355 504.509C416.272 504.659 417.878 505.109 419.367 505.698C419.474 506.052 419.795 506.544 419.999 506.534C420.331 506.512 420.513 506.384 420.738 506.287C423.222 507.562 425.161 509.415 426.746 511.685C426.671 511.771 426.617 511.814 426.542 511.899C426.114 512.424 425.214 512.403 424.818 511.781C423.051 509.008 422.751 510.668 422.548 512.51C422.376 514.041 421.67 514.866 420.063 514.684C420.577 517.297 423.244 518.079 424.722 519.9C426.114 521.613 428.545 521.228 428.481 519.011C428.427 517.458 428.867 516.804 429.456 516.408C430.184 517.929 430.869 519.493 431.533 521.131C430.452 522.138 429.595 523.305 429.67 524.976C430.805 524.515 431.93 524.612 433.054 524.794C433.333 525.458 433.686 526.101 433.986 526.765C432.733 527.707 431.64 528.714 432.294 530.449C432.904 532.077 434.693 531.852 436.406 531.82C440.38 539.274 445.071 546.481 447.095 554.417C452.353 574.98 456.059 596.036 458.951 617.092C461.96 639.004 463.492 661.131 465.237 683.215C466.415 698.273 466.854 713.395 467.615 728.496C466.897 728.656 466.169 728.828 465.451 728.999C463.235 723.537 461.028 718.054 458.79 712.602C453.735 700.254 448.059 688.13 443.71 675.536C436.256 653.923 428.181 632.353 423.201 610.141C420.577 598.403 414.376 587.972 413.166 575.902C412.641 570.632 407.543 564.496 409.096 560.565C413.573 549.287 406.879 539.659 406.954 529.249C406.954 528.425 406.89 527.6 406.836 526.775C406.772 525.79 406.708 524.805 406.654 523.841C407.19 524.044 407.736 524.237 408.25 524.719C409.332 525.736 410.81 526.133 411.688 524.944C412.748 523.498 411.206 522.481 410.156 521.945C408.732 521.238 407.468 520.456 406.569 519.353C406.59 518.325 406.676 517.318 406.815 516.322ZM564.175 646.822C566.628 622.265 569.83 597.782 573.15 573.32C575.346 557.148 582.339 542.679 590.618 528.767C592.331 525.897 592.749 522.266 594.163 519.225C594.227 519.236 594.249 519.289 594.313 519.31C594.484 519.343 594.805 519.246 594.88 519.118C595.127 518.657 594.988 518.304 594.752 517.972C595.694 516.387 596.605 514.727 597.601 513.152C598.811 513.302 600.01 513.217 601.178 512.51C601.842 511.214 602.495 509.918 603.202 508.515C602.859 508.269 602.452 508.097 602.035 507.937C603.727 506.544 605.783 505.559 608.386 505.173C607.229 505.912 607.015 507.219 608.064 508.365C608.621 508.975 609.435 507.722 610.121 507.294C610.303 507.101 610.495 506.908 610.678 506.716C610.72 506.02 610.603 505.366 610.26 504.991C611.213 504.959 612.188 504.949 613.28 505.077C614.169 506.319 614.887 507.594 615.561 508.868C614.951 509.297 614.48 509.886 614.04 510.539C612.819 512.349 611.095 513.142 608.878 512.681C605.612 512.006 604.027 514.041 602.699 516.472C608.621 519 613.141 516.451 617.425 513.067C617.778 514.052 618.067 515.037 618.324 516.023C617.564 517.051 616.686 518.507 615.572 520.51C617.103 520.007 618.217 519.9 619.106 520.017C620.038 527.621 618.367 535.504 615.208 543.558C614.233 546.032 615.272 549.384 615.679 552.276C616.675 559.344 619.363 566.316 613.912 573.063C612.038 575.366 612.102 579.157 610.86 582.081C608.15 588.475 604.53 594.547 602.506 601.123C600.921 606.264 601.949 612.197 600.45 617.392C596.016 632.846 591.421 648.311 585.927 663.412C578.344 684.243 569.873 704.752 561.787 725.39C561.305 726.622 560.716 727.8 559.302 730.981C558.585 727.403 557.867 725.754 557.985 724.18C559.945 698.38 561.605 672.548 564.175 646.822ZM651.943 733.005C654.149 731.066 654.02 726.707 655.605 723.794C664.452 707.494 672.313 690.487 682.766 675.268C694.6 658.025 708.32 641.971 722.21 626.302C728.572 619.137 737.193 613.9 745.076 608.213C747.55 606.425 752.444 604.272 753.676 605.311C755.936 607.217 757.049 611.33 757.296 614.607C757.81 621.879 752.037 630.383 748.985 630.768C743.009 643.213 739.828 656.9 731.389 665.297C724.063 672.58 718.344 681.512 710.097 687.766C704.378 692.104 700.576 696.634 697.599 703.745C693.829 712.742 686.118 720.314 679.296 727.757C672.698 734.954 664.741 740.898 657.983 747.977C653.314 752.861 650.036 759.083 645.431 764.053C642.389 767.33 638.63 771.378 632.547 767.994C636.499 754.51 641.308 742.312 651.943 733.005ZM744.39 541.309C744.08 541.362 743.758 541.426 743.437 541.491C743.384 541.223 743.33 540.944 743.266 540.677C743.662 540.88 744.091 541.084 744.39 541.309ZM761.034 750.88C766.72 744.925 769.783 736.057 779.433 734.504C780.054 734.397 780.804 733.433 781.029 732.726C784.552 721.802 795.477 719.36 803.273 713.384C805.094 711.992 807.868 711.896 809.892 710.685C814.647 707.858 821.908 710.45 824.511 702.278C825.978 697.684 842.139 695.488 846.541 698.176C847.912 699.012 848.747 700.736 849.872 702.107C847.409 706.616 845.92 710.921 843.146 714.123C832.543 726.365 822.091 738.852 807.857 747.26C806.443 748.095 804.494 748.62 803.745 749.873C795.766 762.939 782.507 769.525 770.116 776.894C757.253 784.53 743.908 791.47 730.339 797.789C725.605 799.995 721.643 802.201 717.423 805.489C709.198 811.894 698.98 815.76 689.47 820.44C688.431 820.954 685.625 820.237 685.358 819.487C684.822 817.956 684.779 815.396 685.732 814.336C690.284 809.259 695.136 804.429 700.073 799.706C705.374 794.64 710.965 789.874 716.309 784.83C728.497 773.349 738.671 759.244 756.289 754.928C758.099 754.489 759.598 752.39 761.034 750.88ZM871.442 843.616C878.864 841.207 887.539 835.959 893.74 837.951C902.768 840.864 910.394 837.565 918.276 836.173C921.264 838.379 922.999 841.871 926.051 844.773C926.544 842.01 929.147 841.003 928.836 838.379C928.654 836.837 929.457 836.066 931.181 835.959C932.435 835.884 932.959 835.541 933.173 835.091C939.407 835.027 945.147 836.569 949.42 842.77C949.335 843.863 949.11 844.784 948.896 845.737C948.51 845.994 948.221 846.358 948.21 846.904C948.199 847.226 948.296 847.429 948.36 847.665C947.728 849.421 946.839 850.931 945.747 852.238C945.725 852.077 945.65 851.906 945.415 851.649C945.201 852.174 944.986 852.698 944.772 853.223C944.89 853.084 945.072 852.966 945.276 852.859C945.104 853.041 944.89 853.18 944.708 853.352C941.238 856.79 936.269 858.803 931.053 860.827C931.021 860.774 930.999 860.709 930.957 860.656C930.817 860.784 930.667 860.902 930.517 861.031C930.025 861.223 929.532 861.416 929.029 861.609C918.94 865.593 909.976 873.122 899.673 875.746C879.078 880.972 858.001 884.485 836.956 887.602C819.113 890.258 801.056 891.736 783.053 893.085C763.915 894.52 744.722 895.185 725.552 896.181C725.423 895.517 725.295 894.852 725.166 894.188C737.151 889.283 749.028 884.11 761.13 879.537C782.507 871.43 803.894 863.312 825.55 855.997C833.657 853.255 842.632 853.234 850.975 851.06C857.969 849.239 864.534 845.855 871.442 843.616ZM918.501 773.07C918.137 772.706 917.773 772.342 917.398 771.978C918.587 771.582 918.233 772.61 918.501 773.07ZM929.157 1135.2C929.714 1135.25 930.25 1135.67 930.785 1135.94C930.271 1136.34 929.682 1136.63 929.093 1136.19C928.686 1135.89 928.782 1135.18 929.157 1135.2ZM923.674 767.833C923.449 768.283 923.224 768.744 922.999 769.193C922.26 768.24 923.32 768.23 923.674 767.833ZM941.977 944.589C941.538 945.832 940.124 945.018 939.107 944.889C939.085 944.022 939.064 943.143 939.053 942.265C939.246 942.308 939.449 942.319 939.642 942.383C940.81 942.726 942.609 942.779 941.977 944.589ZM982.996 982.588C983.264 982.759 983.596 982.834 984.035 982.652C984.474 982.47 984.699 981.795 984.945 981.463C984.731 980.574 984.292 980.189 983.606 980.285C982.942 980.382 982.407 980.831 982.439 981.506C982.45 981.924 982.621 982.234 982.835 982.459C981.4 981.228 979.879 980.082 978.401 978.893C979.087 978.54 979.761 978.122 980.372 977.726C981.4 977.029 981.614 975.926 980.822 974.877C979.408 973.013 977.823 972.253 975.927 974.309L975.767 974.48C975.745 975.059 975.402 975.637 975.038 976.194C972.918 974.598 970.712 973.11 968.495 971.621C969.576 971.974 970.605 971.632 973.025 970.528C970.701 970.464 968.505 968.13 965.699 969.822C964.093 968.804 962.561 967.712 960.912 966.748C960.837 965.741 960.805 964.445 959.445 964.606C958.909 964.67 958.727 965.024 958.47 965.313C949.41 960.247 939.599 955.984 928.857 952.75C928.333 950.522 927.529 947.202 926.822 944.268C928.997 943.625 931.149 943.004 933.291 942.372C931.342 940.991 929.393 939.598 927.026 937.928C927.572 935.614 928.343 932.284 929.125 928.963C929.521 929.585 929.918 930.206 930.314 930.838C931.374 930.313 932.477 929.842 933.548 929.328C933.945 929.713 934.352 930.088 934.748 930.474L934.716 930.409C938.004 932.508 935.594 935.711 936.247 938.324L936.269 938.367C937.95 938.324 939.631 938.27 941.431 938.228C941.645 940.123 939.321 940.637 939 942.265C938.282 943.165 937.972 944.043 939.085 944.889C938.678 946.228 938.271 947.567 937.864 948.905L937.886 948.916C942.812 947.663 948.082 947.374 952.494 943.979C950.845 941.462 948.542 941.108 945.693 942.019C945.179 938.549 945.468 935.122 941.474 933.108C939.171 931.952 940.188 929.767 943.841 927.721L944.14 927.4C943.905 926.489 943.444 925.74 943.016 924.958C943.937 924.551 944.836 924.133 945.747 923.726C945.961 924.208 946.165 924.647 946.432 925.354C946.829 926.425 947.428 926.672 948.371 926.618C949.067 926.575 949.967 926.2 949.827 925.579C949.485 924.069 950.02 922.795 950.609 921.52C952.012 920.877 953.394 920.181 954.797 919.517C955.546 919.956 956.328 920.471 957.849 919.56C956.65 919.485 955.825 919.442 955.043 919.389C961.308 916.39 967.434 913.199 973.078 909.3C976.206 907.126 979.226 904.77 982.16 902.274C982.632 902.392 983.092 902.392 983.553 901.91C983.97 901.46 984.035 901.043 983.917 900.647C991.928 893.589 999.296 885.578 1006.24 877.502C1010.33 872.737 1013.69 867.349 1016.89 861.877H1016.91C1017.12 861.609 1017.28 861.298 1017.45 861.009C1017.44 861.009 1017.42 860.999 1017.41 860.988C1019.88 856.725 1022.28 852.431 1024.84 848.318C1023.86 846.787 1021.67 844.944 1021.68 843.102C1021.7 835.605 1023.55 828.066 1018.84 821.083C1017.41 818.952 1016.08 815.739 1016.61 813.468C1019.58 800.873 1008.36 797.468 1002.25 791.17C997.219 785.987 991.114 783.191 984.656 781.167C985.149 781.006 985.534 780.728 985.63 780.203C985.588 779.207 985.074 778.779 984.399 778.725C983.446 778.65 982.642 779.079 982.578 780.107C982.567 780.289 982.696 780.417 982.76 780.567C978.605 779.368 974.332 778.425 970.112 777.386C970.337 776.626 970.401 775.534 969.994 774.966C969.03 773.595 967.906 774.12 966.642 774.977C966.042 775.384 965.357 775.662 964.65 775.919C963.15 775.48 961.662 775.02 960.205 774.484C957.249 773.402 953.929 773.37 950.513 773.585C950.374 773.21 950.159 772.899 949.699 772.824C949.399 772.781 948.788 773.199 948.746 773.477C948.724 773.563 948.778 773.595 948.778 773.67C945.136 774.002 941.42 774.538 937.875 774.527C931.663 774.516 925.452 774.345 919.24 774.248C919.036 773.895 918.822 773.552 918.608 773.199C919.69 773.263 920.771 773.349 921.842 773.413C925.441 773.606 925.794 773.274 925.023 769.975C924.841 769.172 924.209 768.487 923.77 767.748L923.781 767.737C924.177 766.109 924.638 764.256 921.875 765.466C920.761 765.948 919.829 767.973 918.608 767.03C914.763 764.053 912.107 768.155 907.395 767.458C910.501 770.2 913.735 770.35 914.517 773.242C914.11 773.263 913.681 773.242 913.274 773.295C911.936 773.477 910.233 772.963 909.323 774.099C907.695 774.045 906.056 774.077 904.417 774.024C898.184 773.809 891.512 778.939 885.697 772.61C884.336 771.132 882.655 769.922 881.134 768.594C882.537 767.009 883.929 765.413 885.354 763.838C887.067 761.932 889.006 760.186 890.516 758.13C895.924 750.772 901.237 743.34 906.602 735.939C906.42 738.285 906.27 740.619 906.667 742.858C907.052 745.011 907.984 747.174 905.371 747.399C902.586 747.634 904.471 744.646 903.732 743.286C903.475 742.826 903.036 742.761 902.425 743.093C901.312 744.754 901.333 747.238 899.287 748.491C899.298 749.369 899.309 750.258 899.309 751.126L899.352 751.169H899.994L900.626 751.147C900.733 752.143 900.401 753.375 901.868 753.632C902.136 753.685 902.736 753.257 902.757 753.011C902.843 751.629 901.708 751.394 900.701 751.072C902.672 749.862 904.91 749.98 907.084 749.637C913.499 748.609 916.68 750.173 919.154 756.192C921.157 754.307 923.288 752.636 926.094 754.425L926.062 754.392C926.855 754.082 927.669 753.814 928.44 753.45C931.867 751.854 935.048 749.669 938.71 753.557C939.931 754.853 940.413 752.55 940.628 751.372L940.66 751.404C941.099 750.944 941.538 750.494 941.977 750.033L942.073 749.969C942.031 749.98 941.977 749.98 941.934 749.991C941.506 750.44 941.077 750.901 940.638 751.351C938.154 747.302 941.806 746.531 944.087 745.021C944.333 744.764 944.579 744.507 944.815 744.25C946.165 735.232 944.687 727.146 937.19 720.999C937.243 720.935 937.307 720.87 937.361 720.806C937.307 720.86 937.243 720.935 937.179 720.988C935.862 719.671 937.125 717.411 934.791 715.751C932.724 717.636 929.896 719.189 926.822 718.45C921.671 717.208 915.577 717.604 912.107 713.084C912.61 710.439 913.114 707.815 913.617 705.18C913.671 705.17 913.735 705.191 913.789 705.17C914.346 704.966 914.849 704.634 915.374 704.345C914.892 704.045 914.442 703.67 913.939 703.499C914.56 700.211 915.181 696.966 915.791 693.753C916.466 693.314 916.959 692.661 916.873 691.74C916.809 691.129 916.627 690.797 916.402 690.594C916.595 689.533 916.798 688.473 917.002 687.423C917.205 687.327 917.441 687.241 917.516 687.081C917.601 686.909 917.409 686.492 917.216 686.31C918.244 680.89 919.261 675.568 920.225 670.502C913.96 663.112 908.905 657.136 903.893 651.235C907.395 647.422 909.226 644.67 909.43 641.735C911.175 643.417 912.643 645.516 915.192 646.03L914.967 646.298L915.224 646.04L915.202 646.019C916.241 645.923 917.537 646.212 918.03 644.991C918.405 644.07 917.623 643.481 916.884 642.967C915.631 642.131 914.26 641.371 913.242 640.3C911.872 638.865 910.49 638.329 909.055 638.404C908.198 635.738 906.163 632.642 902.897 628.423C901.761 633.36 901.001 636.648 899.834 641.724C898.473 641.392 895.871 641.168 893.622 640.161C893.59 640.15 893.558 640.129 893.536 640.118C893.729 638.961 893.75 637.751 892.926 636.444C892.326 637.387 891.79 638.222 891.234 639.101C883.63 635.684 876.111 632.45 867.897 630.736C868.304 630.468 868.539 630.029 868.55 629.472C868.314 628.776 867.822 628.358 867.104 628.658C866.387 628.958 866.301 629.665 866.633 630.286C866.687 630.393 866.815 630.501 866.933 630.608C864.213 630.083 861.439 629.654 858.526 629.504C858.172 629.483 857.819 629.537 857.455 629.537V629.023L857.476 629.055C857.465 628.573 857.455 628.101 857.444 627.63L857.412 627.673C855.548 624.706 853.417 626.034 852.528 628.037C852.196 628.776 851.778 629.483 851.371 630.201C847.323 630.875 843.178 631.464 839.066 629.772C839.366 629.526 839.291 628.905 838.948 628.026C838.562 626.591 839.109 623.4 836.27 626.656C835.896 627.095 835.467 627.223 835.017 627.255C834.76 627.041 834.503 626.913 834.257 626.666C829.823 622.425 821.737 614.093 823.397 606.874C825.239 598.831 825.668 591.002 822.915 583.227C822.969 583.227 822.947 583.291 823.001 583.291C824.083 583.259 823.933 582.07 823.697 581.278C823.536 580.7 823.151 580.175 822.862 579.639C822.647 580.196 822.38 580.764 822.251 581.342V581.396C822.016 580.839 821.919 580.293 821.641 579.736C822.037 579.671 822.423 579.607 822.819 579.543C822.54 578.129 822.615 576.084 820.709 576.255C820.506 576.276 820.42 576.383 820.281 576.448C818.042 571.253 816.254 565.845 814.005 560.64C812.441 557.031 810.256 553.7 808.114 549.823C804.483 550.883 798.604 548.206 793.013 543.001C792.981 542.947 793.002 542.872 792.97 542.851C792.906 542.808 792.885 542.851 792.831 542.829C791.407 541.491 790.025 540.002 788.686 538.353C790.421 538.599 792.328 538.985 792.285 536.318C792.264 534.99 791.546 533.597 790.079 533.737C788.119 533.94 788.29 535.772 788.183 537.228C788.162 537.399 788.172 537.571 788.172 537.742C787.155 536.446 786.18 535.075 785.27 533.608C782.443 534.144 779.604 534.679 776.766 535.215L776.413 534.604C776.424 534.722 776.434 534.85 776.477 534.947C776.52 535.054 776.638 535.129 776.745 535.225C776.242 535.311 775.749 535.407 775.256 535.493C775.62 535.15 775.963 534.786 776.316 534.433C776.349 534.486 776.381 534.551 776.413 534.604C776.402 534.519 776.381 534.444 776.37 534.379L776.316 534.433C773.735 532.634 772.332 533.512 771.454 536.211C763.529 537.71 755.679 539.188 747.807 540.655C746.875 540.066 745.89 539.509 744.915 538.963C744.144 538.545 743.448 539.659 743.116 540.516C739.732 539.284 737.15 542.647 733.895 542.133C732.642 540.645 731.421 539.156 732.642 537.067L732.245 536.693C730.178 535.847 728.101 534.99 726.034 534.144C725.862 534.326 725.702 534.519 725.552 534.711C725.509 536.039 725.23 537.303 724.481 538.428H724.459V538.481L724.491 538.438C724.92 538.974 725.498 539.22 726.076 539.477C725.155 539.766 724.277 540.088 723.624 540.666C723.41 540.869 723.196 541.073 722.981 541.266C721.696 541.48 720.4 541.791 719.254 541.255C719.201 542.38 719.404 543.322 719.972 544.029C715.26 548.345 710.558 552.672 705.867 557.009C705.813 557.02 705.781 556.977 705.717 556.999C705.149 557.202 704.849 557.641 704.635 558.144L700.876 561.615C700.298 562.139 699.27 562.139 698.638 562.632C695.585 564.999 692.683 567.569 689.545 569.818C687.939 570.986 685.947 571.628 684.137 572.506C685.443 566.509 674.519 565.791 678.203 558.509C679.478 555.992 679.917 552.822 679.949 549.951C679.992 546.846 679.949 543.74 679.981 540.634C680.41 540.741 680.999 540.795 681.845 540.837C681.084 539.724 680.977 538.213 679.992 537.207C680.024 532.901 680.013 528.596 680.024 524.301C680.035 524.098 680.077 523.959 680.067 523.734H680.024C680.024 523.209 680.035 522.673 680.035 522.149C680.067 522.213 680.056 522.277 680.099 522.341C681.523 520.853 683.569 519.514 681.256 516.762C680.934 517.618 680.431 518.347 680.035 519.086C680.035 514.438 680.11 509.789 680.078 505.152C680.067 504.199 679.992 503.246 679.97 502.292C680.324 502.003 680.602 501.607 680.827 501.168C680.527 501.179 680.227 501.211 679.928 501.243C679.863 499.487 679.767 497.741 679.617 495.995C679.713 496.017 679.82 496.049 679.928 496.07C679.82 496.027 679.713 496.006 679.617 495.963C679.424 493.864 679.221 491.754 678.867 489.687C678.268 486.27 675.676 483.143 675.322 479.748C673.491 462.034 662.053 450.071 650.807 438.012C649.758 436.898 647.284 437.016 645.442 436.769C641.254 436.234 636.403 437.005 632.986 435.12C624.375 430.354 615.636 432.785 606.854 432.828C606.651 431.597 606.426 430.226 606.126 428.384C601.563 431.404 597.162 434.317 593.049 437.048C592.867 436.887 592.717 436.641 592.439 436.791C592.289 436.866 592.107 437.166 592.149 437.241C592.203 437.337 592.299 437.412 592.374 437.498C588.529 440.047 584.92 442.435 581.686 444.577C577.091 441.889 574.596 440.443 572.1 438.986C571.64 441.632 571.511 444.395 570.644 446.912C569.005 451.71 568.224 457.793 564.839 460.824C557.963 467.014 550.927 472.926 545.743 480.305C545.047 480.369 544.458 480.766 544.201 481.526C544.062 481.933 544.212 482.233 544.244 482.576C542.82 484.857 541.609 487.309 540.613 489.933C538.814 488.809 537.165 487.288 535.194 486.27C534.23 490.362 535.591 493.907 536.619 497.473C536.383 497.923 536.158 498.362 535.933 498.812C535.451 499.069 534.969 499.326 534.498 499.583C534.969 499.337 535.441 499.09 535.912 498.844C535.355 499.926 534.809 501.007 534.252 502.078C534.241 501.296 534.23 500.515 534.22 499.733C534.316 499.679 534.402 499.626 534.498 499.583C534.402 499.626 534.305 499.69 534.22 499.733C531.917 500.654 533.202 501.425 534.177 502.228C532.41 505.677 530.643 509.125 528.875 512.563C528.629 512.628 528.415 512.735 528.147 512.756C527.612 512.799 527.687 513.709 527.826 514.62C527.419 515.423 527.001 516.215 526.594 517.019C524.184 519.064 521.743 521.067 520.179 523.926L520.243 523.969C521.186 524.023 522.128 524.066 523.071 524.109C523.52 524.333 523.96 524.569 524.409 524.805C524.484 524.89 524.57 524.965 524.656 525.03C521.421 525.779 518.198 526.54 515.563 527.15C514.663 524.847 513.796 522.631 512.918 520.414C511.772 522.695 510.615 524.976 509.491 527.214C506.899 526.518 503.804 525.694 501.372 525.03C499.948 521.12 498.984 517.554 497.41 514.288C496.071 511.492 494.604 508.772 493.244 506.009C493.372 505.88 493.522 505.805 493.608 505.623C493.876 504.949 493.554 504.424 492.858 504.177C492.655 504.156 492.537 504.252 492.376 504.295C491.787 503.106 491.187 501.928 490.588 500.74C491.787 500.322 492.558 499.615 491.83 498.18C491.337 497.227 490.48 496.381 489.324 496.616C489.035 496.67 488.863 496.798 488.671 496.916C487.107 493.853 485.661 490.715 484.022 487.684C481.902 483.754 479.203 480.016 476.204 476.707C473.559 473.761 470.914 470.805 468.225 467.871C468.932 467.924 469.65 468.01 470.314 467.967C472.145 467.86 473.666 466.853 474.223 464.883C474.855 462.602 473.184 462.998 471.931 462.912L471.974 462.966C469.157 462.173 467.304 463.137 465.569 465.033C462.506 461.798 459.379 458.618 456.005 455.747C446.452 447.608 435.989 440.529 425.889 433.042C425.268 432.582 424.315 432.282 423.544 432.336C422.869 432.4 422.184 432.4 421.498 432.432C421.38 431.618 420.984 430.911 420.138 430.579C419.303 430.772 419.313 431.436 419.345 432.057C419.356 432.218 419.431 432.368 419.463 432.518C410.199 432.678 400.807 431.297 391.8 434.574C391.682 434.349 391.51 434.199 391.221 434.285C390.9 434.381 390.568 434.799 390.461 435.131C390.461 435.141 390.472 435.142 390.461 435.152C389.636 435.506 388.801 435.795 387.987 436.234C386.552 436.994 385.085 437.53 383.692 437.723C384.024 437.198 384.313 436.652 384.592 436.095C383.242 435.484 381.925 434.713 380.361 434.917C379.762 434.992 379.226 435.174 378.766 435.484C378.198 434.51 377.748 433.257 377.534 431.522C377.395 430.386 374.385 429.615 372.704 428.673C372.436 430.344 371.419 432.346 372.008 433.621C372.265 434.199 372.265 434.66 372.436 435.184C371.44 435.549 370.648 436.202 370.573 437.391C370.519 438.13 371.269 438.408 371.965 438.301C372.404 438.237 372.768 438.087 373.143 437.947C373.282 440.486 372.211 442.488 370.198 444.17C370.166 444.149 370.166 444.127 370.134 444.106C369.052 443.645 368.42 444.438 367.992 445.594C367.627 445.809 367.37 446.055 366.974 446.258C365.432 447.029 364.265 448.615 363.054 449.953C362.176 450.939 361.469 451.988 360.709 453.016C360.43 452.877 360.163 452.738 359.884 452.609C359.745 452.931 359.402 453.327 359.499 453.552C359.552 453.702 359.831 453.777 360.056 453.862C356.543 458.885 354.272 464.401 352.527 470.131C351.595 468.749 350.567 467.421 349.56 466.115C348.917 465.268 346.915 465.418 347.15 466.8C347.911 471.33 346.358 475.357 345.308 479.566C344.858 481.408 345.951 482.94 348.028 483.39C348.35 483.122 348.96 482.801 348.917 482.651C348.435 480.98 348.96 480.455 349.806 480.209C348.607 485.039 347.429 489.858 345.833 494.496C344.408 498.608 344.848 503.342 345.329 508.108C344.087 509.168 343.273 510.271 343.562 512.242C342.93 512.681 342.031 513.238 342.823 513.977C343.627 514.737 344.098 513.752 344.483 513.109C344.88 512.767 345.265 512.424 345.661 512.081C345.769 513.463 345.897 514.866 345.886 516.215C345.865 520.489 345.726 524.773 345.586 529.046C345.233 529.239 344.783 529.335 344.28 529.453C343.048 529.731 341.784 529.86 340.521 530.042C341.185 531.091 341.977 531.916 343.37 531.83C344.483 531.766 345.147 532.312 345.447 533.319V533.501C342.866 534.219 339.75 534.24 339.3 539.788C341.656 536.307 343.605 536.543 345.362 538.835C345.308 543.611 345.34 548.377 345.747 553.111C346.24 558.841 347.15 563.478 343.873 568.822C341.099 573.353 339.525 573.545 335.969 570.054C333.056 567.194 329.511 564.967 326.266 562.439C318.93 556.731 311.593 551.022 304.311 545.261C303.7 544.768 303.539 543.75 302.961 543.204C302.361 542.637 301.719 542.112 301.098 541.566C301.408 540.944 301.59 540.27 301.965 539.681C304.161 536.243 302.104 535.536 299.373 535.022L299.213 535.161C298.442 537.046 297.531 538.899 296.707 540.762C296.01 542.026 295.357 543.194 294.972 543.9C293.826 543.675 292.68 543.461 291.534 543.247C291.994 542.851 292.369 542.294 292.508 541.319C292.765 539.563 291.352 538.524 289.649 538.374C286.961 538.128 286.382 540.002 286.19 542.133V542.219C272.127 539.531 258.023 536.843 244.025 534.165C243.832 534.026 243.618 533.908 243.414 533.78C244.175 532.773 246.745 532.43 244.635 530.385C242.782 528.596 241.047 525.586 238.188 526.989C235.821 528.157 236.656 531.231 237.074 533.555C237.224 534.433 237.31 535.461 238.134 536.2C236.421 538.738 234.439 541.019 232.34 542.969C232.04 542.197 231.665 541.319 230.702 541.394C230.198 541.437 229.502 541.983 229.299 542.465C228.838 543.504 229.384 544.318 230.252 544.736C229.245 545.539 228.238 546.257 227.242 546.899C227.092 546.567 226.975 546.203 226.728 545.989C226.386 545.689 225.839 546.203 226.129 546.567C226.311 546.803 226.653 546.921 226.942 547.081C223.376 549.277 219.97 550.391 217.646 549.909C217.079 550.894 216.575 551.772 216.018 552.725C215.986 552.479 216.072 552.254 215.986 551.986C215.847 551.537 215.054 551.29 214.669 551.033C213.212 551.408 212.013 555.778 212.966 556.709C213.148 556.891 213.373 556.913 213.598 556.945C211.317 560.908 209.132 564.71 207.14 568.18C203.606 565.695 200.543 563.542 197.555 561.432C197.544 561.015 197.694 560.64 197.522 560.147C197.169 560.351 197.073 560.672 196.816 560.918C195.766 560.179 194.674 559.408 193.635 558.68C192.756 559.719 191.868 560.758 190.989 561.797C191.193 562.022 191.418 562.257 191.621 562.471C189.779 562.503 187.937 562.214 186.084 561.989C183.289 561.636 181.222 564.11 181.982 566.434C182.721 568.683 184.435 570.043 186.727 570.493C188.697 570.879 190.186 569.925 191.043 568.233C191.718 566.905 192.864 565.716 193.035 563.971C196.837 568.03 200.735 572.185 205.608 577.379C202.781 581.406 199.097 585.969 196.259 591.002C195.059 593.102 194.449 597.675 195.616 598.639C200.853 602.944 202.61 609.895 201.089 616.064C199.45 616.695 199.225 617.445 200.425 618.345C199.996 619.405 199.45 620.423 198.808 621.386C197.79 620.637 196.848 619.823 196.227 618.666C195.937 618.987 195.67 619.33 195.37 619.63C194.342 620.658 193.506 622.361 191.685 621.493C190.047 620.722 191.075 619.319 191.289 618.12C191.396 617.456 191.043 616.76 190.336 616.738C189.768 616.706 188.88 616.931 188.644 617.327C187.444 619.362 186.438 621.504 184.381 622.875C184.264 622.232 184.049 621.601 183.31 621.472C182.818 621.386 182.389 621.89 182.679 622.2C183.043 622.607 183.728 622.746 184.274 622.993C184.606 623.56 184.799 624.289 185.27 624.664C186.598 625.745 191.428 625.724 195.391 625.049C192.018 627.812 188.43 629.226 184.735 629.826C183.846 629.515 182.978 629.601 182.132 630.126C179.905 630.308 177.656 630.286 175.396 630.179C175.76 630.051 176.06 630.04 176.488 629.762C176.338 625.788 173.5 626.72 170.405 626.184C171.326 627.823 172.022 629.322 172.975 630.072C171.058 629.954 169.141 629.858 167.256 629.815C166.432 628.658 164.718 628.84 162.962 627.705C162.983 628.616 162.994 629.322 163.004 630.083C151.523 630.865 141.756 635.93 131.667 640.525C128.711 641.864 125.895 643.695 122.435 645.698C122.425 645.698 122.403 645.687 122.403 645.687C122.371 645.698 122.371 645.73 122.35 645.741C122.125 645.869 121.953 645.976 121.729 646.105C122.05 648.386 121.75 650.335 121.15 652.156C121.075 651.695 120.84 651.353 120.283 651.374C119.983 651.385 119.533 651.802 119.458 652.113C119.276 652.798 119.651 653.334 120.379 653.323C120.572 653.313 120.754 653.109 120.936 652.906C120.454 654.116 119.844 655.262 119.051 656.333C118.923 656.022 118.43 655.69 118.087 655.669C116.331 655.562 116.149 657.04 115.752 658.196C115.506 658.935 115.335 659.706 115.142 660.467C111.886 663.423 108.031 666.197 104.786 669.527C106.885 680.034 109.005 690.636 111.115 701.207C111.061 701.154 111.019 701.057 110.976 701.046C110.151 701.036 109.958 701.7 110.055 702.353C110.108 702.717 110.44 703.306 110.665 703.306C111.136 703.328 111.329 703.113 111.436 702.824C112.861 709.925 114.274 717.036 115.667 724.008C114.146 724.608 112.143 725.411 110.13 726.215C110.965 727.778 111.543 729.567 112.689 730.852C114.606 732.994 116.599 735.093 118.601 737.182C118.323 737.589 118.066 738.038 117.819 738.392C116.566 738.51 115.217 737.674 113.91 738.906C115.399 740.137 116.834 741.369 118.334 742.537C118.88 742.965 119.629 742.986 120.026 742.333C120.583 741.412 119.79 740.705 119.447 739.934L119.501 739.977C119.49 739.966 119.469 739.955 119.447 739.934C119.747 739.677 120.101 739.388 120.433 739.099C121.225 739.934 122.018 740.759 122.81 741.594C122.842 741.648 122.81 741.68 122.864 741.723C122.874 741.744 122.917 741.723 122.949 741.733C126.58 745.589 130.104 749.519 133.145 753.803C136.026 757.852 136.712 763.26 142.281 765.466C142.656 765.606 142.87 766.987 142.891 768.369C142.827 768.337 142.613 768.24 142.613 768.24L142.763 768.562C142.763 768.562 142.838 768.476 142.891 768.433C142.902 769.761 142.741 771.068 142.356 771.26C141.231 771.807 140.032 772.181 138.854 772.61C137.954 769.922 135.566 767.737 136.101 764.588C136.369 763.046 136.851 761.268 134.709 761.022C132.363 760.743 132.92 762.907 132.621 764.267C132.492 764.899 132.331 765.531 132.181 766.152L132.139 766.088C132.128 766.098 132.117 766.098 132.106 766.109C132.117 766.13 132.139 766.13 132.149 766.141C132.363 768.669 134.945 770.286 135.159 772.449C135.212 773.07 135.02 773.595 134.698 774.066C133.263 774.495 131.817 774.923 130.382 775.373C130.329 774.377 130.211 773.37 130.254 772.374C130.296 771.046 130.479 769.718 130.661 767.876C129.793 768.529 128.979 769.236 128.219 769.943C128.176 768.594 128.144 767.394 128.112 766.259C125.927 767.705 125.916 769.204 126.848 771.175C125.263 772.621 123.796 773.799 122.318 773.831C122.232 773.842 122.157 773.831 122.071 773.831C120.957 773.574 119.961 773.349 118.987 773.113L119.04 773.06C118.805 773.445 118.409 773.659 117.969 773.831C115.935 773.863 113.889 773.842 111.865 773.831C111.104 771.625 108.823 770.093 106.831 771.346C105.621 772.107 104.432 772.942 103.297 773.831C95.2644 773.734 87.232 773.585 79.1996 773.617C73.2235 773.638 67.2045 774.216 61.2926 775.159C60.8643 775.234 60.4573 775.437 60.0289 775.534C60.1789 775.266 60.3717 775.03 60.4466 774.698C60.3609 773.916 59.9433 773.477 59.215 773.606C58.3047 773.777 57.6835 774.388 57.48 775.287C57.405 775.641 57.4479 775.984 57.6085 776.251C56.409 776.669 55.2202 777.076 54.0528 777.601C53.8065 777.419 53.5066 777.279 53.3031 777.312C52.1358 777.515 51.5788 778.051 51.2682 778.79C41.383 782.999 30.7374 786.126 21.9339 791.995C13.4624 797.639 7.90391 806.068 6.8115 817.72C6.68298 819.037 6.41526 820.355 6.17964 821.661C5.41924 822.314 4.68027 823.032 3.93057 823.878C4.62672 824.103 5.23714 824.146 5.78335 824.103C4.541 830.208 2.88098 836.302 3.98409 842.824C4.28397 844.548 2.0992 846.701 0.921116 848.907C5.28004 856.607 10.0888 863.837 15.1974 870.755C14.7583 870.873 14.4048 871.109 14.362 871.633C14.3406 871.965 14.6512 872.49 14.951 872.662C15.4972 872.972 16.0113 872.812 16.3326 872.34C18.828 875.66 21.452 878.841 24.1401 881.947C23.9474 882.097 23.7224 882.236 23.6046 882.44C23.3261 882.964 23.1869 883.575 23.0263 884.164C23.0263 884.196 23.4011 884.443 23.5618 884.4C24.3115 884.207 24.4507 883.575 24.5363 882.922C24.5578 882.761 24.5685 882.611 24.5792 882.45C27.9314 886.306 31.4443 889.99 35.1178 893.514C34.6787 893.375 34.3467 893.996 34.0789 894.413L34.4109 894.724C34.7643 894.478 35.4497 894.242 35.4926 893.878C42.0256 900.111 49.0728 905.809 56.6875 910.896C56.8481 911.089 56.8695 911.314 57.1051 911.496C57.587 911.871 58.1654 912.149 58.7009 912.46C58.733 912.385 58.7545 912.31 58.7866 912.235C65.6088 916.636 72.7523 920.706 80.5169 924.123C79.5852 924.347 78.6534 924.583 77.5824 924.851C80.3027 929.146 83.0551 927.1 85.6576 926.083C88.228 927.111 90.7984 928.117 93.4652 929.038C92.9832 929.895 93.1974 930.698 93.84 931.47C95.4143 933.751 96.0784 934.318 97.3529 933.28C97.8134 935.079 98.3168 937.039 98.8415 939.127C96.6246 939.234 94.4505 939.213 92.362 939.631C92.0943 939.684 92.0622 943.165 92.3406 943.229C94.429 943.711 96.6246 943.732 98.7558 943.904C98.0276 946.849 97.3207 949.762 96.6139 952.675C96.2926 952.75 95.9713 952.782 95.6607 952.836C95.5215 952.589 95.3716 952.343 95.2323 952.097L93.4652 952.932C92.9083 952.9 92.3406 952.921 91.7837 952.729C91.6766 953.093 91.6231 953.468 91.5481 953.853C87.4998 955.76 83.4621 957.698 79.4138 959.615C80.2492 958.009 80.0671 956.317 78.9105 954.785C77.636 953.104 75.644 952.568 73.6519 953.457C72.6666 953.896 72.0454 955.021 72.3881 956.188C72.7201 957.291 73.6626 957.098 74.4872 956.745C76.1151 956.049 77.3254 955.92 77.229 957.57C76.5008 959.133 76.5007 960.022 77.2932 960.622C75.9974 961.243 74.7015 961.854 73.4163 962.475C73.4056 962.464 73.4056 962.453 73.3949 962.443L73.3521 962.496C72.174 963.053 71.0066 963.61 69.8285 964.178C69.5714 963.663 69.0038 963.31 67.9971 963.182C66.3049 962.967 64.602 962.742 62.9099 962.528C60.7357 959.658 58.2296 957.462 54.267 958.673C54.3205 956.295 54.3634 954.357 54.4062 952.44C52.6926 953.896 51.1183 955.449 50.5828 957.752C45.9454 957.27 43.193 960.558 39.9051 962.978C44.4782 962.999 48.9549 962.443 53.421 963.01L53.3674 962.967C56.4197 962.518 59.472 964.617 62.5243 962.946L62.5886 962.871C62.5779 962.892 62.5243 962.946 62.5243 962.946C63.4668 964.22 63.7453 965.741 64.0237 967.294C63.0491 967.872 62.0531 968.429 61.0464 968.943C55.2416 971.953 48.6122 973.966 43.7928 978.1C42.7753 978.989 41.9185 980.05 41.0939 981.163C40.1942 980.521 39.1339 980.296 37.6024 981.035C38.6306 981.72 39.6159 981.827 40.5798 981.838C37.9773 985.597 36.0388 990.106 32.7616 993.137C27.2781 998.181 20.3809 1001.69 14.0621 1005.82C12.0915 1007.1 10.0138 1008.23 7.9896 1009.43C9.22123 1011.53 10.4636 1013.63 11.888 1016.05C10.3029 1018.5 8.6322 1021.09 6.92933 1023.74C6.81152 1023.72 6.69373 1023.7 6.58664 1023.71C6.5438 1023.71 6.51164 1024.04 6.47951 1024.21C6.52235 1024.22 6.5652 1024.23 6.61875 1024.23C4.47677 1027.55 2.2812 1030.96 0 1034.5C1.55293 1035.48 2.9667 1036.38 4.79809 1037.54C4.51963 1037.86 4.32684 1038.1 4.06981 1038.41C3.88774 1037.48 2.85954 1037.51 2.07772 1037.26C2.34547 1038.07 2.17418 1039.19 3.28801 1039.36C2.02424 1040.89 0.942503 1042.2 0.385589 1042.87C2.80602 1050.2 4.85163 1056.37 6.88651 1062.54C7.64691 1064.82 9.56399 1067.5 8.95353 1069.33C8.28951 1071.3 8.12881 1072.98 8.17165 1074.54C7.75396 1074.96 7.51838 1075.51 7.79684 1076.25C7.92536 1076.58 8.18238 1076.64 8.418 1076.77C9.1784 1079.9 11.2775 1082.2 13.7622 1084.2C13.5373 1084.6 13.4088 1085.07 13.2696 1085.53C12.7877 1087.09 13.2374 1088.11 14.9617 1088.26C16.5254 1088.41 16.4397 1090.34 18.3354 1090.9C18.5603 1089.89 18.828 1088.96 18.9351 1088.08C20.1453 1088.98 21.302 1089.9 22.2659 1090.9C22.2123 1090.93 22.1588 1090.97 22.1052 1091.01L22.148 1091.06C22.2016 1091.01 22.2551 1090.97 22.298 1090.93C22.3194 1090.94 22.3409 1090.96 22.3623 1090.98C31.2622 1100.44 43.7285 1102.67 55.7986 1105.58C55.745 1105.67 55.6915 1105.75 55.6486 1105.84C55.2202 1105.84 54.7918 1105.76 54.3955 1105.86C53.271 1106.15 51.4825 1106.16 52.3714 1107.97C52.8748 1108.98 54.2242 1108.68 55.0489 1107.83C55.4773 1107.39 55.7235 1106.79 56.0555 1106.27C56.3875 1106.15 56.6553 1106.01 56.8909 1105.86C59.9004 1106.6 62.8992 1107.38 65.7802 1108.38C70.2033 1109.9 75.3012 1109.42 80.4205 1108.94C80.6776 1109.77 81.2773 1110.28 82.2519 1110.21C83.0444 1109.96 83.3979 1109.41 83.4193 1108.71C85.0793 1108.58 86.7393 1108.45 88.3565 1108.46C91.7301 1108.48 95.1037 1108.56 98.4774 1108.62C98.8201 1109.03 99.3449 1109.24 100.105 1109.05C100.362 1108.98 100.384 1108.76 100.587 1108.65C106.628 1108.77 112.668 1108.9 118.719 1108.94C125.895 1109 133.36 1104.66 140.139 1110.51C141.317 1111.53 143.759 1112.27 143.769 1113.18C143.791 1114.23 143.266 1115.36 142.624 1116.42C142.559 1116.43 142.474 1116.45 142.409 1116.45C140.514 1116.64 140.139 1117.5 140.792 1118.74C138.854 1120.7 136.54 1122.35 134.912 1124.55C131.089 1129.7 127.383 1134.94 123.667 1140.17C123.688 1139.72 123.517 1139.22 123.356 1138.74C124.31 1137.82 124.031 1136.92 123.324 1136.03C123.41 1134.31 123.635 1132.58 123.528 1130.87C123.453 1129.53 122.639 1128.25 121.247 1128.08C119.662 1127.9 119.951 1129.42 119.715 1130.39C119.233 1132.46 116.738 1130.65 116.009 1132.27C119.126 1135.97 119.126 1135.97 123.174 1136.16C123.217 1137 123.26 1137.85 123.303 1138.7C122.478 1139.28 121.461 1139.79 121.761 1141.05C121.804 1141.23 122.5 1141.47 122.757 1141.35C122.821 1141.32 122.842 1141.29 122.896 1141.25C120.915 1144.03 118.923 1146.81 116.909 1149.57C116.17 1150.58 114.285 1150.73 113.471 1151.73C112.25 1153.23 111.511 1155.12 110.558 1156.85C112.432 1157.41 114.307 1157.97 116.406 1158.6C116.363 1158.8 116.32 1158.99 116.277 1159.18C116.138 1159.23 116.01 1159.32 115.913 1159.53C115.838 1159.69 115.806 1159.99 115.902 1160.08C115.945 1160.15 115.999 1160.13 116.042 1160.16C114.521 1166.55 112.925 1172.92 111.565 1179.34C110.322 1185.22 109.68 1191.23 108.288 1197.07C106.906 1202.87 105.278 1208.65 103.083 1214.18C101.755 1217.52 99.12 1220.35 97.0851 1223.4C98.049 1224.06 99.0236 1224.72 99.9982 1225.37C102.387 1222.47 104.785 1219.55 107.827 1215.86C108.909 1216.93 110.055 1217.97 111.19 1219C110.965 1219.16 110.751 1219.34 110.655 1219.62C110.28 1220.69 110.954 1221.23 111.908 1221.5C112.111 1221.3 112.304 1221.09 112.497 1220.87C112.572 1220.72 112.657 1220.57 112.743 1220.42C115.688 1223.14 118.376 1226.02 119.951 1229.7C120.101 1230.43 120.368 1231 120.69 1231.54C121.364 1233.85 121.589 1236.47 121.15 1239.54C123.303 1238.75 125.124 1238.08 127.201 1237.31C127.308 1237.38 127.426 1237.42 127.544 1237.48C132.214 1245.04 139.828 1247.28 147.475 1249.23C147.4 1249.27 147.336 1249.24 147.239 1249.34C147.186 1249.38 147.357 1249.66 147.422 1249.82C147.582 1249.75 147.754 1249.69 147.914 1249.62C147.914 1249.45 147.85 1249.4 147.796 1249.31C150.056 1249.89 152.316 1250.44 154.49 1251.11C157.896 1252.16 161.569 1252.89 165.253 1253.25C165.339 1253.34 165.35 1253.42 165.436 1253.53C165.489 1253.43 165.564 1253.36 165.618 1253.27C169.238 1253.59 172.879 1253.53 176.306 1252.98C177.709 1252.76 178.791 1252.91 180.022 1252.88C180.119 1253.03 180.301 1253.09 180.569 1252.98C180.59 1252.97 180.579 1252.89 180.601 1252.86C188.697 1252.88 193.656 1256.94 198.7 1263.79C202.235 1268.6 202.256 1273.07 201.71 1277.45C201.303 1276.8 200.735 1276.46 199.932 1276.63C199.236 1276.78 198.775 1277.32 198.829 1278.02C198.915 1279.02 199.589 1279.57 200.575 1279.47C200.982 1279.42 201.26 1279.25 201.496 1279.04C201.089 1281.78 200.65 1284.5 200.789 1287.24C200.253 1287.38 199.911 1287.78 199.954 1288.37C199.975 1288.69 200.425 1288.97 200.671 1289.25C200.789 1289.23 200.842 1289.16 200.939 1289.13C201.399 1292.57 202.096 1295.91 202.931 1299.16C202.685 1299.02 202.513 1298.81 202.171 1298.75C201.196 1298.6 200.521 1299.21 200.168 1300.07C199.664 1301.27 200.189 1302.23 201.207 1302.81C201.913 1303.21 202.802 1303.3 203.616 1303.52C203.691 1303.09 203.734 1302.66 203.809 1302.22C203.959 1302.75 204.088 1303.28 204.248 1303.8C204.055 1303.73 203.873 1303.68 203.681 1303.63C203.681 1304.04 203.691 1304.47 203.702 1304.9C204.055 1305.16 204.409 1305.41 204.773 1305.62C206.626 1311.25 208.939 1316.7 211.531 1322.13C212.773 1324.75 214.219 1327.34 215.719 1330.02C215.129 1330.34 214.862 1330.88 214.958 1331.59C215.076 1332.48 215.494 1333.26 216.511 1333.33C216.961 1333.36 217.271 1333.2 217.539 1332.98C223.237 1331.79 233.058 1338.19 240.383 1349.06C247.73 1347.66 255.067 1346.25 262.381 1344.86C262.478 1345.43 262.746 1345.93 263.324 1346.3C264.331 1346.63 264.588 1345.98 264.598 1345.34C264.598 1345.04 264.598 1344.74 264.609 1344.43C275.308 1342.4 285.9 1340.37 296.171 1338.41C296.31 1339.57 296.567 1341.66 296.824 1343.74C298.613 1342.91 300.723 1342.45 302.147 1341.22C306.217 1337.67 310.244 1334.08 314.26 1330.48C315.117 1331.3 315.652 1332.33 316.07 1333.49C316.402 1334.42 317.259 1334.8 318.18 1334.18C319.39 1333.37 319.829 1332.05 319.551 1330.74C319.262 1329.4 318.587 1328.24 317.537 1327.56C320.129 1325.25 322.71 1322.92 325.334 1320.65C326.48 1319.65 328.526 1319.79 329.971 1319.03C330.925 1318.51 331.749 1317.79 332.617 1317.11C332.478 1317.31 333.035 1318.12 333.302 1318.66C334.159 1318.21 335.005 1317.76 335.851 1317.31C334.845 1317.11 333.87 1316.1 332.852 1316.94C333.356 1316.55 333.891 1316.22 334.384 1315.84C336.708 1314.01 338.989 1312.12 341.281 1310.25C343.391 1314.53 347.247 1318.79 347.3 1323.1C347.493 1337.42 346.411 1351.75 345.629 1366.07C345.287 1372.34 343.038 1378.91 344.237 1384.81C346.497 1395.93 349.249 1407.37 354.379 1417.36C359.563 1427.43 367.777 1435.98 374.953 1444.97C375.831 1446.07 378.841 1446.5 380.308 1445.89C383.285 1444.64 385.459 1445.25 387.098 1446.59V1446.68L387.152 1446.65C388.437 1447.71 389.411 1449.17 390.033 1450.72C393.16 1458.49 395.677 1466.6 397.529 1474.77C398.611 1479.52 397.433 1484.73 398.193 1489.59C398.579 1492.06 400.989 1494.21 402.488 1496.51C404.416 1494.25 407.511 1492.23 408.036 1489.68C409.064 1484.62 409.053 1479.25 408.807 1474.03C408.218 1461.59 417.643 1456.23 425.579 1449.93C426.917 1448.86 429.895 1448.98 431.758 1449.6C438.206 1451.76 442.018 1449.11 445.328 1443.39C445.51 1443.21 445.649 1443.17 445.842 1442.97L445.885 1442.93C446.356 1440.99 445.949 1438.65 448.348 1437.6C448.134 1436.9 447.802 1436.29 447.416 1435.72C457.655 1426.58 467.219 1417.06 475.551 1406.69C475.562 1407.03 475.572 1407.37 475.572 1407.71L475.594 1407.68C475.583 1407.34 475.583 1407 475.572 1406.67C475.658 1406.57 475.744 1406.47 475.819 1406.38C476.172 1406.37 476.526 1406.36 476.879 1406.36C476.89 1406.76 476.9 1407.18 476.911 1407.59C478.892 1405.74 479.364 1405.18 477.768 1403.97C478.41 1403.13 478.978 1402.23 479.61 1401.39C480.285 1401.88 481.077 1402.18 482.052 1402.2C481.741 1401.19 481.227 1400.5 480.531 1400.09C483.134 1396.49 485.565 1392.77 487.846 1388.93C488.499 1389.32 489.142 1389.72 489.795 1390.12L489.752 1390.08C490.609 1390.03 491.926 1390.32 492.237 1389.88C493.126 1388.66 491.423 1388.26 491.005 1387.4L491.07 1387.45C491.07 1387.42 491.08 1387.39 491.091 1387.36C491.07 1387.37 491.037 1387.39 491.005 1387.4C490.534 1386.91 490.041 1386.45 489.581 1385.93C491.905 1381.78 494.025 1377.48 495.9 1372.98C495.846 1374.31 496.125 1375.29 498.631 1373.96C497.892 1373.26 497.153 1372.56 496.414 1371.86C498.256 1367.31 499.905 1362.62 501.223 1357.68C504.082 1357.02 507.177 1356.29 510.315 1355.56C510.797 1357.77 511.268 1359.95 511.75 1362.14C512.404 1362.09 513.057 1362.05 513.721 1362.01C514.256 1359.82 514.792 1357.65 515.317 1355.51C518.765 1356.39 522.075 1357.25 523.424 1357.59C527.376 1367.16 530.471 1375.4 534.166 1383.36C536.426 1388.22 539.65 1392.62 542.37 1397.26C543.452 1399.12 543.912 1401.5 545.358 1402.94C552.041 1409.57 560.362 1415.01 565.525 1422.61C575.86 1437.85 592.995 1443.21 605.494 1454.07C607.111 1452.25 608.546 1450.02 609.017 1450.21C610.795 1450.93 613.226 1452.16 613.644 1453.69C614.501 1456.79 614.19 1460.2 614.383 1463.47C615.047 1474.19 615.722 1484.9 616.375 1495.62C617.253 1510.14 618.421 1524.64 618.849 1539.16C619.074 1546.85 617.65 1554.57 617.66 1562.28C617.671 1566.29 618.731 1570.49 620.231 1574.22C620.98 1576.13 624.097 1578.67 625.543 1578.34C627.685 1577.84 630.191 1575.35 630.93 1573.15C632.044 1569.87 632.087 1566.11 632.033 1562.55C631.551 1534.16 630.544 1505.75 630.63 1477.35C630.651 1469.03 633.415 1460.64 635.428 1452.41C636.617 1447.58 639.23 1444.12 645.474 1445.84C647.177 1446.3 650.036 1444.73 651.589 1443.25C658.668 1436.56 663.199 1426.84 672.731 1425.49C672.548 1421.96 671.767 1419.14 672.399 1416.68C674.669 1407.74 678.289 1399.04 679.713 1389.99C680.924 1382.36 679.671 1374.36 679.703 1366.53C679.756 1353.95 681.074 1341.25 679.628 1328.87C678.953 1323.14 678.278 1318.63 681.855 1314.08C682.958 1312.68 684.072 1310.32 685.325 1310.24C686.728 1310.13 688.388 1311.97 689.738 1313.18C691.848 1315.1 693.572 1317.48 695.832 1319.15C704.132 1325.29 712.603 1331.22 720.968 1337.29C721.589 1337.74 721.728 1338.82 722.339 1339.31C724.245 1340.84 726.259 1342.23 728.218 1343.66C728.583 1341.4 728.947 1339.14 729.097 1338.27C736.583 1339.72 744.016 1341.15 751.416 1342.58C751.405 1343.84 752.305 1344.36 753.44 1344.56C754.383 1344.52 755.068 1344.06 755.411 1343.35C765.392 1345.27 775.203 1347.16 784.52 1348.96C791.053 1343.46 794.802 1335.55 801.699 1333.1C801.838 1334.43 802.674 1334.98 804.023 1334.81C804.944 1334.53 805.886 1334.17 805.319 1333.07C805.212 1332.87 805.062 1332.67 804.933 1332.47C806.443 1332.33 808.05 1332.37 809.881 1332.76C810.203 1330.19 809.635 1327.03 810.942 1325.43C820.334 1314.08 824.65 1301.16 824.093 1286.54C823.943 1282.59 823.129 1278.65 823.311 1274.73C823.526 1270.14 824.897 1265.99 827.006 1261.93C827.167 1261.92 827.328 1261.91 827.488 1261.91C827.36 1261.81 827.231 1261.78 827.103 1261.75C827.703 1260.59 828.345 1259.45 829.063 1258.29C829.373 1257.78 829.737 1257.61 830.08 1257.29C830.412 1257.39 830.808 1257.39 831.312 1257.23C832.072 1256.98 832.586 1256.54 832.95 1256.01C834.107 1256.04 835.039 1256.44 835.242 1256.18C842.343 1246.84 851.618 1254.19 859.522 1253.31C859.747 1253.29 859.939 1253.24 860.164 1253.21C860.164 1253.53 860.175 1253.82 860.25 1254.06C860.55 1255.06 860.41 1257.4 862.285 1255.68C863.131 1254.89 862.842 1253.89 861.878 1252.92C864.695 1252.52 867.458 1252.01 870.135 1251.33C870.114 1251.4 870.092 1251.45 870.071 1251.51C869.835 1252.54 869.353 1253.9 870.531 1254.42C871.367 1254.78 872.695 1254.53 873.616 1254.14C875.908 1253.14 876.304 1251.96 874.826 1249.99C881.348 1247.97 887.603 1245.32 893.804 1242.23C897.038 1240.61 900.155 1238.74 904.096 1236.56C903.207 1229.25 907.609 1224.6 912.846 1220.23C913.242 1220.6 913.735 1220.87 914.303 1221.09C914.088 1220.54 913.81 1220.1 913.446 1219.74C915.727 1217.85 918.115 1216.01 920.3 1214.01C920.911 1213.66 921.371 1213.05 921.543 1211.84C921.318 1210.9 921.007 1209.57 919.636 1209.17C917.623 1198.83 915.641 1188.58 913.671 1178.44C914.003 1178.71 914.528 1178.9 914.977 1178.97C915.609 1179.07 916.188 1178.79 916.252 1178C915.909 1177.05 915.149 1176.78 914.26 1176.96C913.939 1177.03 913.649 1177.19 913.467 1177.4C912.203 1170.91 910.94 1164.39 909.719 1158.08C910.468 1157.88 911.411 1157.63 912.418 1157.35C912.471 1157.37 912.536 1157.38 912.589 1157.41C912.846 1157.5 912.942 1158.06 913.114 1158.4C912.311 1159.25 910.875 1158.25 910.147 1159.42C910.875 1160.7 912.61 1161.24 912.878 1162.9C915.213 1163.87 916.595 1163.07 917.226 1160.65C917.89 1158.13 919.465 1156.74 922.057 1155.84C926.705 1154.22 928.729 1150.07 928.847 1145.66C928.922 1142.78 928.954 1140.67 931.524 1138.93C933.195 1137.8 931.953 1136.76 930.839 1135.95C931.128 1133.76 931.428 1131.56 931.813 1128.69C926.823 1131.86 922.592 1134.79 917.141 1132.73C917.794 1127.14 917.773 1127.11 911.936 1127.21C912.075 1130.13 910.811 1132.02 908.016 1133.15C904.632 1134.52 902.532 1136.68 901.387 1139.4C898.259 1135.94 895.164 1132.46 892.047 1128.99C891.876 1128.8 891.898 1128.45 891.737 1128.23C889.049 1124.79 886.189 1121.46 883.704 1117.88C882.612 1116.31 881.423 1112.77 881.745 1112.57C885.654 1110.25 889.809 1106.76 893.954 1106.68C904.974 1106.48 916.016 1107.93 927.058 1108.44C930.164 1108.59 933.281 1108.54 936.408 1108.5C935.947 1109.23 935.583 1110.04 935.369 1110.94C935.326 1111.14 936.322 1111.6 936.847 1111.93C937.329 1113.24 937.811 1114.53 938.282 1115.84C942.138 1114.67 940.713 1111.02 941.731 1108.51C941.913 1108.53 942.105 1108.53 942.288 1108.53C942.33 1109.03 942.405 1109.5 943.359 1109.18C943.144 1108.96 942.93 1108.75 942.727 1108.53C944.205 1108.57 945.683 1108.68 947.15 1108.8C947.053 1108.9 946.925 1109 946.936 1109.08C946.968 1109.6 947.257 1109.71 947.642 1109.38C947.739 1109.3 947.76 1109.01 947.685 1108.91C947.664 1108.87 947.589 1108.86 947.535 1108.84C948.253 1108.9 948.981 1108.92 949.699 1109.01C954.647 1109.68 960.045 1111.85 959.927 1118.45C959.873 1118.35 959.809 1118.25 959.745 1118.15C959.766 1118.25 959.777 1118.34 959.82 1118.42C959.852 1118.47 959.905 1118.52 959.948 1118.56C959.937 1118.76 960.045 1118.87 960.023 1119.07C959.595 1124.77 958.652 1130.43 958.095 1134.82C958.62 1136.81 959.209 1138.75 959.788 1140.68C959.498 1140.63 959.209 1140.6 958.952 1140.55C958.974 1141.4 958.995 1142.26 959.006 1143.12C959.466 1143.1 960.023 1143.16 960.505 1143.12C962.615 1150.04 964.725 1156.71 965.335 1163.51C966.385 1174.97 964.907 1186.64 964.682 1198.22C964.596 1202.34 964.189 1206.73 965.421 1210.52C966.342 1213.35 969.651 1215.41 971.89 1217.82C974.032 1215.63 976.998 1213.8 978.08 1211.18C979.387 1208 979.472 1204.15 979.429 1200.6C979.322 1190.95 978.123 1181.26 978.723 1171.66C979.312 1162.31 980.008 1152.96 980.779 1143.62C980.929 1143.86 981.164 1143.98 981.753 1143.6L980.822 1142.99C981.475 1135.19 982.31 1127.42 983.167 1119.64C983.264 1119.66 983.349 1119.71 983.446 1119.72C984.078 1119.78 984.645 1119.65 984.849 1118.94C984.774 1118.21 984.313 1117.82 983.638 1117.98C983.542 1118 983.435 1118.06 983.328 1118.09C983.649 1115.15 983.874 1112.22 984.238 1109.29C984.527 1106.91 984.988 1105.22 985.641 1104.03C985.684 1104.08 985.738 1104.15 985.791 1104.21C986.198 1104.92 986.669 1105.57 987.644 1105.31C987.794 1105.27 987.997 1104.99 987.976 1104.87C987.783 1103.8 986.841 1103.97 986.102 1103.82C986.187 1103.51 986.209 1103.36 986.273 1103.08C988.104 1101.02 991.135 1101.86 996.094 1104.61C998.429 1105.89 1002.49 1104.06 1005.75 1103.66C1005.51 1102.44 1005.26 1101.23 1004.97 1099.81C1002.51 1100.63 1000.56 1101.29 997.004 1102.46C997.861 1099.04 997.733 1096.24 999.061 1094.82C1003.42 1090.14 1008.58 1086.18 1012.89 1081.47C1014.96 1079.18 1016.29 1075.92 1017.1 1072.87C1018.11 1069.07 1016.84 1063.78 1019.02 1061.37C1023.8 1056.07 1021.02 1050.16 1022.37 1044.72C1023.27 1041.09 1023.77 1037.33 1024.51 1033.28C1012.92 1014.07 999.446 996.746 982.996 982.588Z"
    fill="#45682E">
    <animateTransform
      attributeName="transform"
      type="rotate"
      from="0 514 948"
      to="360 514 948"
      dur="2s"
      repeatCount="indefinite"
    />
  </path>
  <path
    d="M953.3 1060.89C950.826 1061.35 948.352 1061.81 945.888 1062.28C945.953 1071.85 943.864 1082.23 946.981 1090.67C948.544 1094.89 959.608 1095.59 973.156 1100.18C964.181 1082.43 958.74 1071.66 953.3 1060.89ZM996.257 903.896C995.336 901.09 994.426 898.273 993.504 895.467C982.955 898.466 968.475 898.38 962.971 905.363C957.701 912.035 961.76 926.065 961.718 936.861C964.181 937.354 966.633 937.846 969.097 938.35C978.146 926.858 987.196 915.377 996.257 903.896ZM616.87 1005C617.063 1006.51 617.245 1008.02 617.438 1009.53C628.158 1012.5 638.857 1015.55 649.599 1018.46C710.881 1035.09 772.099 1051.99 833.51 1068.14C856.878 1074.29 860.006 1054.95 864.375 1040.01C869.538 1022.32 857.767 1016.92 843.02 1016.06C831.775 1015.41 820.401 1016.55 809.209 1015.58C751.782 1010.57 694.42 1004.89 636.972 1000.12C630.45 999.589 623.585 1003.27 616.87 1005ZM572.263 933.573C580.317 940.588 587.728 952.69 596.511 953.772C638.536 958.955 680.915 961.408 723.208 964.332C762.482 967.041 801.99 967.491 841.06 971.914C878.03 976.113 877.838 977.816 876.103 939.699C875.996 937.279 875.856 934.858 875.781 932.438C874.957 904.988 867.385 897.738 839.068 898.905C821.343 899.644 803.693 902.407 785.979 902.771C722.362 904.078 658.735 904.774 595.118 905.642C579.375 905.845 569.136 910.3 572.263 933.573ZM710.667 669.682C694.838 694.871 675.571 717.897 657.964 741.984C626.734 784.727 595.664 827.588 561.275 874.861C573.538 877.507 578.807 879.702 584.044 879.627C672.668 878.342 761.282 876.832 849.906 875.236C943.961 878.899 1013.47 868.039 1013.47 868.039C971.099 728.2 928.86 588.79 884.617 442.782C874.271 452.571 867.149 457.604 862.212 464.266C838.211 496.61 815.688 530.089 790.799 561.737L705.451 667.325M2397.23 582.728C2397.03 580.854 2396.84 578.98 2396.65 577.105C2372.84 576.345 2349.01 574.439 2325.24 575.049C2259.96 576.741 2194.71 580.243 2129.44 581.668C2009.32 584.292 1889.17 586.027 1769.04 587.933C1749.34 588.244 1739.85 595.462 1746.78 616.314C1760.29 656.894 1774.58 697.249 1786.69 738.246C1792.62 758.317 1801.85 760.127 1820.38 754.429C1923.76 722.631 2027.45 691.765 2131.2 661.199C2212.51 637.231 2294.1 614.204 2375.52 590.632C2382.9 588.49 2390 585.384 2397.23 582.728ZM2715.54 1242.45C2798.73 1220.89 2872.39 1165.84 2903.22 1060.67C2928.8 973.414 2909.03 896.238 2855.5 826.978C2804.18 760.566 2732.61 731.949 2650 731.82C2629.05 731.788 2608.09 739.874 2587.15 744.233C2592.71 763.993 2596.82 784.32 2604.21 803.373C2615.81 833.264 2631.75 861.592 2641.78 891.933C2648.68 912.817 2658.77 927.415 2678.45 936.915C2705.9 950.173 2719.35 990.218 2706.84 1018.01C2694.43 1045.61 2653.93 1061.27 2626.31 1049.16C2594.05 1035.03 2580.27 1001.42 2590.16 969.205C2593.93 956.942 2593.34 941.006 2588.82 928.946C2571.54 882.83 2551.41 837.784 2533.26 791.978C2524.62 770.14 2517.03 766.959 2497.86 781C2380.19 867.14 2360.88 1017.91 2432.2 1132.78C2484.9 1217.66 2599.8 1265.12 2715.54 1242.45ZM934.193 1122.55L815.496 1089.86C790.017 1082.54 764.484 1075.33 738.834 1068.65C660.234 1048.16 581.452 1028.38 503.003 1007.35C477.963 1000.65 456.597 987.733 451.392 958.988C445.683 927.468 455.333 907.227 482.664 889.074C492.56 882.508 502.917 875.236 509.878 865.897C561.436 796.69 612.425 727.054 663.094 657.194L747.349 542.823C784.876 494.404 821.054 444.935 856.771 395.144C860.788 389.543 861.901 379.358 860.07 372.429C836.851 284.201 813.279 196.069 788.624 108.237C784.158 92.3333 771.435 83.9153 752.939 86.4C708.054 92.4296 670.291 77.9498 640.796 43.7746C635.13 37.2095 633.342 27.2921 629.765 18.9277C637.583 15.5969 645.283 9.69579 653.23 9.36378C712.916 6.85767 772.645 5.40112 832.364 3.73038C883.996 2.28454 935.628 0.517415 987.271 0.00334109C999.523 -0.125178 1011.82 4.14809 1029.52 7.40389C994.254 43.4748 957.369 50.9931 917.518 51.1752C901.442 51.2608 885.377 53.2422 869.313 54.3882C846.008 56.0482 837.997 69.6711 843.48 90.7589C855.475 136.833 867.406 182.992 881.64 228.402C892.221 262.203 905.576 295.232 919.553 327.811C922.776 335.34 933.615 344.669 940.898 344.626C999.748 344.208 1058.59 341.392 1117.44 339.989C1209.35 337.814 1301.29 336.24 1393.21 334.302C1451.33 333.07 1509.44 331.817 1567.55 330.157C1575.23 329.932 1582.84 327.169 1594.23 324.813C1572.63 248.023 1552.21 173.889 1530.78 100.055C1522.67 72.1344 1534.85 58.0937 1564.33 59.9466C1599.67 62.1635 1635.2 62.1849 1670.62 61.7351C1685.59 61.5423 1699.36 58.9077 1695.54 36.1385C1692.81 19.9237 1704.47 6.07587 1720.64 6.80414C1732.91 7.35034 1747.15 15.1685 1756.21 24.1113C1768.28 36.0207 1775 53.1458 1786.14 66.2225C1801.45 84.183 1805.19 106.213 1793.46 126.273C1783.49 143.312 1753.53 152.062 1734.01 150.167C1696.76 146.547 1659.15 146.15 1621.67 145.872C1608.34 145.776 1603.5 155.907 1607.64 168.202C1619.14 202.27 1631.71 235.985 1643.01 270.117C1648.57 286.953 1651.86 304.528 1656.9 321.568C1674.29 380.408 1691.65 439.269 1709.71 497.916C1719.67 530.26 1723.16 530.592 1756.43 529.457C1827.38 527.026 1898.38 526.426 1969.36 524.691C2031.52 523.17 2093.66 520.868 2155.82 519.379C2258.29 516.937 2360.77 515.191 2463.24 512.557C2526.16 510.94 2589.05 507.802 2651.97 506.077C2721.31 504.171 2790.68 503.304 2860.01 501.579C2900.36 500.594 2940.67 498.441 2981.01 497.638C2994.57 497.37 3008.6 497.981 3021.7 501.162C3042.48 506.195 3041.33 524.456 3040.97 540.574C3040.57 557.71 3026.6 558.481 3014.59 558.727C2925.86 560.559 2837.08 561.041 2748.39 564.039C2728.29 564.714 2708.3 573.057 2688.55 578.883C2663.05 586.401 2637.88 595.098 2612.47 602.98C2593.22 608.946 2573.17 612.962 2554.78 620.877C2547.3 624.09 2543.3 635.335 2537.72 642.928C2546.26 647.33 2554.56 654.645 2563.41 655.405C2575.12 656.391 2587.22 652.032 2599.21 650.35C2741.42 630.366 2855.61 681.998 2938.89 794.891C2988.03 861.496 3008.43 940.534 2998.31 1025.66C2987.97 1112.66 2951.82 1185.59 2887.02 1244.31C2843.71 1283.56 2793.39 1315.48 2736.94 1324.19C2595.99 1345.97 2467.27 1319.14 2374.28 1199.42C2318.42 1127.51 2298.46 1043.88 2307.82 953.183C2319.31 841.832 2374.64 758.284 2468.29 699.069C2480.37 691.433 2485.44 683.744 2479.98 669.296C2474.63 655.148 2466.87 646.752 2451.16 651.207C2430.97 656.905 2411.13 663.78 2391 669.714C2242.14 713.496 2093.08 756.667 1944.39 801.049C1803.46 843.117 1663 886.771 1522.12 929.032C1440.87 953.418 1359.27 976.702 1277.67 999.921C1251.06 1007.49 1232.82 1015.74 1227.34 1050.42C1218.18 1108.56 1164.04 1158.18 1075.77 1154.05C1049.1 1152.8 1037.16 1167.44 1034.59 1188.16C1032.5 1204.94 1023.15 1210.61 1012.27 1219.26C987.346 1239.08 963.731 1231.65 940.33 1218.32C920.442 1206.99 919.97 1186.97 938.316 1173.5C943.511 1169.67 950.901 1167.54 954.092 1162.58C958.976 1154.98 965.305 1144.31 963.174 1137.33C961.128 1130.59 949.315 1123.23 941.487 1122.88M1240.92 933.734C1241.1 931.71 1241.26 929.685 1241.43 927.661C1297.98 911.168 1354.63 895.007 1411.06 878.117C1507.66 849.179 1603.9 818.999 1700.83 791.185C1722.86 784.866 1728.05 775.431 1721.73 755.061C1709.56 715.755 1698.35 676.161 1686.41 636.781C1663.46 561.073 1640.72 485.29 1616.55 409.978C1613.85 401.538 1602.44 389.961 1595.01 389.929C1537.8 389.693 1480.57 391.824 1423.36 393.463C1356.45 395.38 1289.57 397.918 1222.65 399.503C1135.56 401.56 1048.45 403.134 961.343 404.483C945.985 404.73 940.308 410.92 944.999 425.421C951.64 445.931 959.64 466.033 965.627 486.735C977.75 528.622 987.946 571.086 1000.67 612.78C1024.47 690.684 1049.7 768.148 1073.9 845.934C1081.35 869.86 1090.73 877.571 1124.29 873.276C1133.32 872.13 1146.22 855.637 1147.21 845.227C1151.43 801.231 1204.46 785.113 1243.7 809.188C1260.32 819.384 1260.83 840.815 1246.72 853.87C1234.68 864.998 1221.6 876.125 1213.36 889.877C1207.33 899.912 1203.79 916.191 1207.97 925.894C1210.64 932.084 1229.39 931.356 1240.92 933.734Z"
    fill="#91b064" />
</svg>
  