<svg width="1261" height="112" viewBox="0 0 1261 112" fill="none" xmlns="http://www.w3.org/2000/svg">
<path d="M-0.00095342 0C-0.00098558 9.7506 -0.000982945 20 -0.00095342 25.9998C1.64905 27.3198 3.29905 28.6398 4.99905 29.9998C6.15462 32.6717 6.46831 35.1049 6.99905 37.9998C13.229 37.7347 18.1799 36.6896 23.8662 34.1756C28.9931 32.2514 34.3309 31.0657 39.6629 29.8387C40.8676 29.5452 40.8676 29.5452 42.0967 29.2459C42.8238 29.0776 43.5509 28.9093 44.3001 28.7359C45.1411 28.3715 45.1411 28.3715 45.999 27.9998C46.329 27.0098 46.659 26.0198 46.999 24.9998C48.9172 24.8451 48.9172 24.8451 50.874 24.6873C56.1357 24.1185 60.9905 22.6623 65.999 20.9998C66.4347 21.4703 66.8705 21.9408 67.3194 22.4256C70.8896 26.1582 73.9926 29.331 78.999 30.9998C82.7728 30.7837 82.7728 30.7836 85.999 29.9998C86.329 28.0198 86.659 26.0398 86.999 23.9998C88.0509 24.0411 89.1028 24.0823 90.1865 24.1248C93.8408 24.005 95.7239 23.4274 98.999 21.9998C100.991 21.6239 102.991 21.28 104.999 20.9998C104.999 20.3398 104.999 19.6798 104.999 18.9998C118.632 18.6308 118.632 18.6308 124.999 20.9998C125.329 20.3398 125.659 19.6798 125.999 18.9998C128.482 18.7391 130.885 18.5785 133.374 18.4998C138.972 18.3844 138.972 18.3844 143.999 15.9998C144.461 16.4471 144.922 16.8944 145.397 17.3553C150.738 22.3054 157.38 27.9998 164.999 27.9998C165.218 27.3707 165.437 26.7417 165.663 26.0936C168.472 18.5121 171.993 11.4746 178.999 6.99981C179.989 6.99981 180.979 6.99981 181.999 6.99981C182.353 7.87959 182.353 7.8796 182.714 8.77716C186.355 15.0743 194.406 18.5528 201.089 20.6873C203.213 21.1869 203.213 21.1869 205.999 19.9998C206.989 20.6598 207.979 21.3198 208.999 21.9998C213.108 22.4589 213.108 22.4589 216.749 20.8123C219.182 17.2851 220.072 13.9564 220.562 9.74981C220.999 5.99981 220.999 5.99981 221.999 4.99981C226.023 4.60531 228.504 4.76703 232.187 6.49981C234.801 8.82343 235.529 9.78733 236.874 12.8123C239.022 17.594 242.37 21.4571 246.999 23.9998C249.7 23.7733 249.7 23.7733 251.999 22.9998C252.329 22.0098 252.659 21.0198 252.999 19.9998C258.455 18.1812 264.489 18.2677 269.999 19.8748C272.737 22.7836 273.248 25.7593 274.03 29.6248C275.378 32.9288 276.742 33.5952 279.999 34.9998C282.661 35.4443 285.197 35.7796 287.874 35.9998C293.534 36.4706 297.75 37.6414 302.999 39.9998C305.519 40.7247 308.063 41.3715 310.624 41.9373C311.895 42.2351 313.166 42.5329 314.476 42.8396C318.05 43.3484 318.05 43.3484 320.714 41.2068C321.845 40.1144 321.845 40.1144 322.999 38.9998C327.617 36.117 331.441 34.3682 336.999 34.9998C337.906 35.2918 337.906 35.2918 338.831 35.5896C343.726 36.5157 349.731 34.5021 353.827 31.7889C355.377 30.3985 355.377 30.3985 356.999 27.9998C356.999 27.0098 356.999 26.0198 356.999 24.9998C357.712 25.2164 358.425 25.4329 359.159 25.6561C366.966 28.0147 366.966 28.0147 374.999 27.9998C375.403 27.3656 375.806 26.7314 376.222 26.0779C378.776 23.0919 381.73 22.8916 385.437 22.3123C386.769 22.0798 388.101 21.8467 389.433 21.6131C390.61 21.4107 391.786 21.2083 392.999 20.9998C393.712 20.7252 394.425 20.4507 395.159 20.1678C396.999 19.9998 396.999 19.9998 399.366 21.7654C400.235 22.5028 401.104 23.2401 401.999 23.9998C404.992 25.522 404.992 25.522 408.124 26.7498C409.158 27.1778 410.192 27.6057 411.257 28.0467C413.987 29.164 413.987 29.164 416.999 28.9998C418.189 27.4589 418.189 27.459 419.187 25.4373C422.598 19.6622 426.887 14.8333 433.499 13.0623C434.324 13.0417 435.149 13.0211 435.999 12.9998C436.111 13.8525 436.111 13.8525 436.226 14.7225C437.302 21.0447 439.333 24.6512 443.999 28.9998C445.062 30.0014 445.062 30.0014 446.147 31.0232C448.362 32.9358 450.437 34.5838 452.999 35.9998C456.559 35.7531 456.559 35.7531 459.999 34.9998C462.145 35.8548 464.058 36.9353 466.065 38.074C468.753 39.361 471.074 39.2923 473.999 38.9998C474.329 37.3498 474.659 35.6998 474.999 33.9998C481.707 35.1784 488.361 36.4763 494.999 37.9998C495.329 37.3398 495.659 36.6798 495.999 35.9998C501.951 37.339 506.032 40.4923 509.999 44.9998C511.651 47.9063 512.911 50.8421 513.999 53.9998C518.668 53.494 521.485 52.3119 525.312 49.6248C530.081 46.4499 534.497 44.4899 539.999 42.9998C540.989 42.6698 541.979 42.3398 542.999 41.9998C546.562 41.7498 546.562 41.7498 549.999 41.9998C551.937 44.9067 552.207 45.7543 552.624 48.9998C554.067 56.1461 558.972 62.9819 564.999 66.9998C565.824 66.8348 566.649 66.6698 567.499 66.4998C569.999 65.9998 569.999 65.9998 572.999 67.9998C578.079 68.6811 582.664 67.9174 587.558 66.5037C592.136 65.5588 596.85 65.534 601.511 65.3436C605.931 64.908 608.839 64.1601 611.999 60.9998C613.059 61.5657 614.118 62.1316 615.21 62.7146C616.598 63.4555 617.986 64.1964 619.374 64.9373C620.073 65.3105 620.771 65.6837 621.491 66.0682C626.371 68.987 626.371 68.987 631.749 69.9373C634.999 69.9998 634.999 69.9998 637.874 70.9998C641.822 72.2631 644.866 72.21 648.999 71.9998C649.329 71.6698 649.659 71.3398 649.999 70.9998C676.435 71.1152 676.435 71.1152 683.937 77.4998C688.164 80.951 692.353 81.339 697.659 82.2264C701.057 83.0132 703.072 84.1651 705.999 85.9998C708.357 86.9006 710.734 87.7528 713.124 88.5623C716.809 89.8127 719.757 90.8385 722.999 92.9998C724.59 93.5227 726.196 93.9981 727.812 94.4373C731.815 95.5796 735.274 97.137 738.999 98.9998C740.319 98.9998 741.639 98.9998 742.999 98.9998C743.477 98.5112 743.956 98.0227 744.448 97.5193C745.999 95.9998 745.999 95.9998 748.269 95.6365C753.22 95.7354 757.36 96.0464 761.999 97.9998C761.999 98.6598 761.999 99.3198 761.999 99.9998C767.501 100.282 772.367 100.432 777.562 98.4373C782.578 96.7245 787.211 96.8606 792.437 97.1248C793.231 97.1589 794.025 97.193 794.843 97.2281C799.172 97.5219 801.053 97.9518 803.999 101C807.2 101.97 810.376 102.737 813.638 103.461C818.797 104.696 818.797 104.696 820.999 108C824.167 108.811 824.167 108.811 827.812 109.187C829.035 109.346 830.258 109.504 831.519 109.668C834.381 109.941 837.129 110.071 839.999 110C839.999 110.66 839.999 111.32 839.999 112C845.889 111.415 848.896 107.802 853.085 103.933C856.784 101.479 858.626 101.407 862.999 102C865.574 103.033 867.838 104.059 870.249 105.375C870.86 105.692 871.471 106.009 872.101 106.336C874.838 107.77 877.426 109.284 879.999 111C880.675 110.385 881.35 109.77 882.046 109.137C882.938 108.328 883.83 107.52 884.749 106.687C885.631 105.887 886.513 105.086 887.421 104.262C893.679 98.7712 893.679 98.7712 897.999 97.9998C897.999 99.6498 897.999 101.3 897.999 103C904.065 104.915 908.555 102.652 913.999 99.9998C914.989 99.3398 915.979 98.6798 916.999 97.9998C916.999 97.0098 916.999 96.0198 916.999 94.9998C925.55 96.2615 933.179 99.7844 939.073 106.289C940.816 108.201 940.816 108.201 942.972 108.078C945.903 106.519 947.417 104.368 949.437 101.75C952.422 97.9072 955.402 94.2909 958.999 90.9998C959.659 90.9998 960.319 90.9998 960.999 90.9998C961.659 92.6498 962.319 94.2998 962.999 95.9998C969.521 97.0143 973.232 94.415 978.644 90.9217C981.082 89.2101 981.082 89.2101 982.011 86.8904C983.424 84.1874 985.179 84.0147 987.999 82.9998C990.675 81.2446 993.283 79.4134 995.89 77.5584C998.813 76.0929 1000.14 75.7846 1003.27 75.5701C1008.67 75.1484 1012.66 72.9526 1017.37 70.4373C1030.59 63.7773 1030.59 63.7773 1038 65.9998C1040.81 68.2699 1041.81 70.6149 1043 73.9998C1049.41 69.4347 1055.22 64.3306 1061 58.9998C1064.99 60.9182 1068.7 63.2347 1072.46 65.5623C1078.32 68.8804 1083.5 69.5162 1090.12 70.0623C1091.92 70.2167 1093.71 70.3742 1095.51 70.535C1096.3 70.6008 1097.09 70.6666 1097.9 70.7344C1100 70.9998 1100 70.9998 1103 71.9998C1104.6 71.9329 1106.2 71.8055 1107.79 71.6404C1122.72 70.5157 1122.72 70.5157 1126.83 73.1907C1129.29 75.7855 1130.7 78.4657 1132.32 81.6678C1134.09 85.1887 1136.1 87.3645 1139 89.9998C1139.99 89.6698 1140.98 89.3398 1142 88.9998C1142 87.6798 1142 86.3598 1142 84.9998C1147.13 88.1053 1151.29 91.9437 1155.63 96.074C1158.49 98.4113 1158.49 98.4113 1162 98.9998C1163.89 98.0447 1163.89 98.0447 1165.75 96.4998C1178.04 87.9359 1190.03 84.4611 1205 84.9998C1205.33 85.3298 1205.66 85.6598 1206 85.9998C1213.66 86.9935 1218.61 84.0528 1225 79.9998C1225.33 79.6698 1225.66 79.3398 1226 78.9998C1227.32 81.3098 1228.64 83.6198 1230 85.9998C1234.46 85.4894 1236.69 83.9888 1240 80.9998C1242.06 78.2276 1242.06 78.2276 1243.81 75.2498C1244.42 74.265 1245.02 73.2801 1245.64 72.2654C1246.09 71.5178 1246.54 70.7701 1247 69.9998C1247.51 70.5051 1248.01 71.0104 1248.54 71.5311C1249.23 72.1807 1249.91 72.8304 1250.62 73.4998C1251.63 74.4743 1251.63 74.4743 1252.66 75.4686C1255.37 77.548 1255.37 77.548 1261 76.9998C1261 57.5 1261 26 1261 0C844.869 0 428.739 0 -0.00095342 0Z" fill="white"/>
</svg>
