<svg width="1273" height="114" viewBox="0 0 1273 114" fill="none" xmlns="http://www.w3.org/2000/svg">
<path d="M0.000483513 113.5C0.000440847 116 0.00101727 0.999231 0 2.99891C5.82375 7.10607 5.82375 7.10607 11.9922 7.31922C13.1098 7.29731 14.2274 7.27539 15.3789 7.25282C16.5326 7.21028 17.6863 7.16774 18.875 7.12391C31.7881 6.73172 31.7881 6.73173 36.1328 7.9911C46.634 10.7278 57.2956 8.16209 67.7676 6.3329C68.8717 6.1492 69.9758 5.96551 71.1133 5.77626C72.595 5.51703 72.595 5.51703 74.1067 5.25257C78.869 4.83505 82.6665 5.54128 86.7422 8.01844C91.4783 10.5103 95.8518 10.6271 101.125 10.6864C102.857 10.7289 104.589 10.7744 106.32 10.8231C107.13 10.8445 107.94 10.8658 108.774 10.8878C111.566 11.0271 114.255 11.4858 117 11.9989C122.19 12.4091 126.059 11.7174 131 9.99891C136.267 9.42524 139.383 11.0415 143.687 13.8114C148.853 16.964 153.434 18.9129 159.387 20.2138C162.352 21.1046 164.424 22.4812 167 24.1864C174.645 28.7065 183.438 27.478 192 26.9989C192.255 27.7247 192.51 28.4504 192.773 29.1981C194.068 32.1542 195.605 34.3046 197.625 36.8114C198.257 37.6016 198.888 38.3918 199.539 39.2059C200.262 40.0935 200.262 40.0935 201 40.9989C202.025 40.433 203.05 39.8671 204.105 39.2841C205.466 38.5428 206.827 37.802 208.187 37.0614C208.861 36.6882 209.535 36.3151 210.229 35.9306C213.806 33.9934 216.899 32.5006 221 31.9989C221.626 33.0585 222.253 34.1181 222.898 35.2099C223.724 36.598 224.549 37.986 225.375 39.3739C225.994 40.4219 225.994 40.4219 226.625 41.4911C227.025 42.1614 227.424 42.8317 227.836 43.5224C228.202 44.1403 228.569 44.7582 228.947 45.3949C231.823 49.7746 235.456 50.1689 240.309 51.3544C244.445 52.0766 248.438 52.2517 252.625 52.3739C259.886 52.5998 264.715 54.1079 271 57.9989C266.05 63.4439 266.05 63.4439 261 68.9989C266.578 75.9709 271.674 79.4511 279.812 83.0614C285.455 85.63 288.824 88.6472 292.562 93.5614C297.626 100.196 302.789 103.69 311 105.999C315.583 106.437 318.117 105.652 322.125 103.499C330.91 99.6962 342.03 98.8207 351.269 101.708C355.426 103.405 359.23 105.552 363 107.999C366.72 105.588 370.143 103.075 373.5 100.186C377.573 97.0352 377.573 97.0353 380.938 96.7489C384.641 98.2604 388.085 100.114 391.535 102.136C393.988 103.241 393.988 103.241 396.551 102.409C399.282 100.836 400.997 99.0633 403.125 96.7489C407.194 93.0598 407.194 93.0598 410.43 92.8153C413.347 93.3784 416.143 94.1812 419 94.9989C421.906 95.6042 424.826 96.1139 427.75 96.6239C428.813 96.8256 428.813 96.8256 429.898 97.0314C438.387 98.7156 438.387 98.7156 446.324 95.9442C447.459 95.021 448.58 94.0798 449.688 93.1239C450.289 92.6316 450.891 92.1392 451.51 91.632C454.482 89.1872 457.383 86.6692 460.258 84.1122C465.906 79.1315 470.294 75.4522 478 74.9989C479.217 74.8133 480.434 74.6277 481.688 74.4364C485.926 74.4955 489.181 76.5241 492.812 78.4989C499.084 81.8879 503.916 83.0109 511 81.9989C511.768 81.9009 512.537 81.803 513.328 81.702C517.574 80.9598 520.736 79.6217 524.438 77.4364C529.418 74.6931 533.489 74.8609 539 74.9364C545.545 74.9528 545.545 74.9528 550.82 71.3505C552.024 69.7252 553.13 68.0547 554.243 66.3671C556.545 63.1269 557.773 62.0604 561.664 61.0067C563.715 60.7949 565.756 60.6861 567.815 60.5819C576.186 60.0878 583.611 56.8199 589.992 51.2645C591.486 49.577 592.758 47.8784 594 45.9989C598.248 39.5776 602.425 34.3883 610 31.9989C616.652 31.3116 623.336 31.6496 630 31.9989C632.31 26.3889 634.62 20.7789 637 14.9989C642.21 16.041 646.359 17.8463 651.16 20.038C653.828 21.0975 653.828 21.0975 656.074 21.0497C659.202 19.3431 660.841 16.469 662.75 13.5614C663.161 12.9626 663.572 12.3639 663.996 11.747C666.266 8.64671 666.266 8.64671 667 4.99891C668.036 5.51583 669.073 6.03274 670.141 6.56532C671.51 7.2313 672.88 7.89663 674.25 8.56141C674.932 8.90366 675.614 9.2459 676.316 9.59852C680.02 11.4965 680.02 11.4965 684.064 11.7199C688.112 10.2127 691.164 6.67432 694.344 3.83485C697 1.99891 697 1.99891 698.941 1.9325C702.635 3.84606 705.877 6.45589 709.135 9.0243C710.991 10.4546 710.991 10.4546 714 11.9989C718.009 11.2364 720.437 8.89713 723.5 6.31141C728.737 2.58976 732.026 2.65875 738.242 3.51844C747.595 4.71431 757.901 5.20443 767 2.49891C778.885 -0.975166 791.566 0.179965 803.215 3.9286C812.186 6.46521 821.2 7.41241 830.5 7.43641C831.58 7.44028 832.66 7.44414 833.773 7.44813C845.582 7.28999 857.161 5.58163 868.815 3.77796C869.563 3.66311 870.312 3.54824 871.083 3.42991C873.123 3.11355 875.161 2.78612 877.2 2.4579C883.011 1.75605 888.425 1.50561 894.086 3.27626C894.954 3.54245 895.821 3.80864 896.715 4.0829C897.593 4.36456 898.471 4.64622 899.375 4.93641C900.276 5.21421 901.177 5.492 902.106 5.77821C908.599 7.79814 908.599 7.79814 911 8.99891C912.623 9.09503 914.25 9.12873 915.875 9.12391C916.739 9.12649 917.602 9.12907 918.492 9.13172C920.921 9.08747 920.921 9.08747 922.896 8.50331C936.871 5.1528 954.062 8.44286 967.5 12.6864C970.835 13.7167 973.578 14.0468 977.027 13.7997C989.195 12.9308 989.195 12.9308 993.371 16.3309C994.917 17.7912 996.376 19.3128 997.844 20.8517C1002.61 25.8348 1006.2 27.3588 1013 27.9989C1013.75 28.0777 1014.5 28.1565 1015.27 28.2377C1025.37 29.173 1033.46 29.2457 1042.06 23.4989C1050.28 18.0482 1058 17.3187 1067.72 18.5224C1072.38 19.4965 1076.18 22.0527 1080.23 24.4325C1089.27 28.8912 1102.59 26.8566 1112.02 24.4044C1121.5 22.461 1133.1 27.813 1141.06 32.3739C1147.44 35.7578 1152.25 35.0171 1159 32.9989C1159.99 32.6689 1160.98 32.3389 1162 31.9989C1172.78 31.0541 1181.7 31.0226 1191.1 36.8602C1192.98 38.0349 1192.98 38.0349 1196 38.9989C1200.07 37.0282 1202.72 34.3943 1205.63 30.9989C1210.23 26.2655 1215.53 24.0952 1222 22.9989C1228.15 23.3689 1232.17 26.4038 1237.2 29.6981C1239.82 31.2778 1239.82 31.2778 1242.07 30.4638C1243.5 29.379 1244.88 28.2317 1246.23 27.0536C1253.35 20.8883 1258.66 20.0973 1267.69 20.62C1271 20.9989 1271 20.9989 1273 21.9989C1273 13.7991 1273 119.959 1273 113.5C852.911 113.5 432.82 113.5 0.000483513 113.5Z" fill="white"/>
</svg>
