<svg width="1293" height="76" viewBox="0 0 1293 76" fill="none" xmlns="http://www.w3.org/2000/svg">
<path d="M0 73.5C0 87.0004 0 21.4992 0 46.4996C5.83333 44.3329 5.83333 44.3329 7 41.4996C12.94 41.1696 18.88 40.8396 25 40.4996C24.505 38.5196 24.505 38.5196 24 36.4996C30.2292 34.4232 37.1354 34.3468 43.2422 36.8043C45.2622 37.8785 47.2755 38.9655 49.2812 40.066C53.2813 42.1752 55.4539 42.9619 60 42.4996C62.8279 40.1677 64.8882 37.4775 67 34.4996C67.9989 33.1654 68.9986 31.8318 70 30.4996C71.0519 31.2833 72.1037 32.0671 73.1875 32.8746C78.267 36.6152 78.267 36.6152 84.3125 37.1246C85.1478 36.8152 85.1478 36.8152 86 36.4996C85.34 35.1796 84.68 33.8596 84 32.4996C90 30.4996 96 28.4996 102 26.4996C102 25.8396 102 25.1796 102 24.4996C102.69 24.7651 103.379 25.0307 104.09 25.3043C107.046 26.4152 110.015 27.4698 113 28.4996C113.798 28.7806 114.596 29.0616 115.418 29.3512C119.917 30.6731 122.457 30.6224 126.75 28.6246C127.446 28.2353 128.142 27.846 128.859 27.4449C131 26.4996 131 26.4996 133.523 26.5465C136.627 26.4877 137.562 25.6307 139.875 23.6246C143.538 20.6723 146.418 19.4542 151 18.4996C151.33 19.4896 151.66 20.4796 152 21.4996C156.234 23.4707 158.828 24.5833 163.5 24.2496C168.161 24.5825 169.87 26.5701 173.105 29.773C175.975 32.3879 178.226 33.389 182.062 33.9371C183.032 33.7927 184.001 33.6483 185 33.4996C186.681 31.1418 186.681 31.1418 188 28.4996C191.215 26.1712 194.112 26.246 198 26.4996C198.66 26.8296 199.32 27.1596 200 27.4996C200.625 30.0621 200.625 30.0621 201 32.4996C201.66 31.1796 202.32 29.8596 203 28.4996C208.608 30.1123 212.412 31.8288 217 35.4996C221.202 34.9608 224.778 32.6158 228.465 30.6558C230.995 29.5019 233.262 28.9306 236 28.4996C236.031 29.5515 236.031 29.5515 236.062 30.6246C237.455 34.8951 240.154 37.2553 244 39.4996C247.795 40.0035 247.795 40.0035 251 39.4996C251.66 38.1796 252.32 36.8596 253 35.4996C258.28 35.4996 263.56 35.4996 269 35.4996C269.66 34.1796 270.32 32.8596 271 31.4996C278.198 31.0116 278.198 31.0116 281.875 33.2496C284 35.4996 284 35.4996 285 37.6246C285.895 39.6808 285.895 39.6808 288.125 40.8121C292.871 41.947 297.127 41.508 301.438 39.1871C303.189 37.2958 303.651 36.029 304 33.4996C311.036 35.5097 315.384 38.1361 319 44.4996C321.24 47.2507 323.592 49.8945 326 52.4996C326.512 53.2253 327.024 53.9511 327.551 54.6988C331.546 57.6363 335.917 57.1788 340.75 57.2496C341.734 57.2793 342.717 57.3089 343.73 57.3395C346.154 57.41 348.576 57.4628 351 57.4996C351.296 58.138 351.591 58.7765 351.896 59.4342C353.548 62.5249 355.574 62.9169 358.797 63.9371C363.915 65.2663 363.915 65.2663 369 64.4996C373.605 61.1782 377.675 57.2988 381.043 52.7262C385.728 49.1985 390.43 49.892 396.125 50.0621C397.203 50.0679 398.28 50.0737 399.391 50.0797C406.437 50.1858 413.115 51.0119 420 52.4996C420.113 51.7266 420.225 50.9537 420.341 50.1573C421.257 44.06 422.579 39.6307 426 34.4996C426.66 35.4896 427.32 36.4796 428 37.4996C432.619 37.4312 432.619 37.4312 436.426 35.1676C436.904 34.6378 437.382 34.1079 437.875 33.5621C443.255 28.3566 451.932 28.9607 459 28.4996C459.33 30.1496 459.66 31.7996 460 33.4996C465.419 33.7254 469.775 32.9663 475 31.4996C475.66 32.8196 476.32 34.1396 477 35.4996C478.196 35.3965 479.393 35.2933 480.625 35.1871C481.298 35.1291 481.971 35.0711 482.664 35.0113C485.762 34.3327 488.204 32.9912 491 31.4996C508.573 22.1625 508.573 22.1625 515.082 24.1285C517.188 24.9371 517.188 24.9371 519.043 25.8082C521.712 26.751 523.172 26.9895 526 26.4996C528.492 24.7882 530.597 22.7389 532.75 20.6246C533.339 20.069 533.928 19.5134 534.535 18.941C537.668 16.033 537.668 16.033 540 12.4996C542.588 13.7418 544.935 15.0883 547.375 16.6246C550.673 18.5478 553.15 18.8752 557 18.4996C557.33 17.1796 557.66 15.8596 558 14.4996C558.617 14.644 559.235 14.7884 559.871 14.9371C565.011 16.0638 569.729 16.6956 574.992 16.4723C577.148 16.5016 578.918 16.9629 581 17.4996C583.727 17.7209 586.247 17.6328 589 17.4996C591.139 15.3611 591.427 14.3669 592 11.4996C592.583 12.0797 593.165 12.6598 593.766 13.2574C600.027 19.2238 606.173 22.9333 614 26.4996C615.731 27.4122 617.461 28.3286 619.188 29.2496C627.711 33.464 635.586 33.7863 645 33.4996C645.286 34.2769 645.572 35.0542 645.867 35.8551C647.351 39.3196 648.75 40.5919 652 42.4996C655.835 43.1857 659.023 43.0372 662.5 41.1246C664.226 39.6232 664.226 39.6232 664 37.4996C664.944 37.5518 664.944 37.5518 665.906 37.6051C672.059 37.7997 676.375 36.9995 682 34.4996C682.33 34.8296 682.66 35.1596 683 35.4996C686.127 35.4581 689.243 35.3721 692.365 35.1969C695.864 35.1045 697.578 35.1406 700.293 37.4488C700.856 38.1256 701.42 38.8023 702 39.4996C705.149 40.5494 707.388 40.6009 710.688 40.5621C712.178 40.5486 712.178 40.5486 713.699 40.5347C714.458 40.5231 715.218 40.5115 716 40.4996C716.209 39.8873 716.418 39.275 716.633 38.6441C718.555 35.6291 720.508 35.2532 723.875 34.1871C724.924 33.8403 725.974 33.4936 727.055 33.1363C730.034 32.4922 731.247 32.319 734 33.4996C736.536 35.2071 738.939 37.0486 741.367 38.9058C746.768 42.175 751.68 41.5003 757.75 40.6246C758.422 40.5331 759.093 40.4415 759.785 40.3472C763.51 39.8288 763.51 39.8288 767 38.4996C768.033 36.5164 769.034 34.5161 770 32.4996C770.33 32.1696 770.66 31.8396 771 31.4996C771.843 31.5834 772.686 31.6672 773.555 31.7535C778.962 32.256 782.585 32.4506 787.203 29.3472C789.915 26.8201 792.461 24.1983 795 21.4996C798.934 18.8773 801.996 19.4987 806.5 19.8746C808.031 19.9871 809.562 20.0991 811.094 20.2105C812.383 20.3059 813.672 20.4013 815 20.4996C815.99 20.4996 816.98 20.4996 818 20.4996C820.375 22.398 820.375 22.398 823 24.8746C825.618 27.3293 828.01 29.5061 831 31.4996C833.578 31.5361 833.578 31.5361 836 30.4996C837.441 28.5203 837.441 28.5203 838.375 25.9996C840.87 20.4943 844.369 13.315 850 10.4996C850 11.1596 850 11.8196 850 12.4996C855.962 12.8134 859.736 12.3899 865 9.49961C865.572 8.4632 865.572 8.4632 866.156 7.40586C868.358 5.12922 868.949 5.20352 872.012 5.10898C873.571 5.13552 875.13 5.18315 876.688 5.24961C877.485 5.26765 878.282 5.2857 879.104 5.30429C881.07 5.35138 883.035 5.42313 885 5.49961C885 4.83961 885 4.17961 885 3.49961C893.319 6.10633 893.319 6.10633 896.812 8.12461C900.917 9.89503 904.654 9.92306 909.082 10.1871C912.932 10.5995 915.585 11.7178 919 13.4996C919.66 13.8296 920.32 14.1596 921 14.4996C922.67 13.8417 924.336 13.1724 926 12.4996C928.979 11.73 931.98 11.0897 935 10.4996C936.392 10.1632 936.392 10.1632 937.812 9.81992C941.726 9.4267 944.863 10.3268 948.562 11.4371C955.534 13.3431 962.79 14.9875 970 13.4996C972.002 11.4426 973 10.4026 973 7.49961C974.921 8.06754 976.837 8.65463 978.75 9.24961C979.817 9.57445 980.885 9.8993 981.984 10.234C985.181 11.5754 986.821 12.8321 989 15.4996C989.33 16.4896 989.66 17.4796 990 18.4996C994.083 17.9596 996.38 16.7721 999.562 14.1871C1000.31 13.5929 1001.05 12.9986 1001.82 12.3863C1005.73 9.00722 1008.34 6.47307 1010 1.49961C1013.38 2.104 1015.3 3.42962 1018 5.49961C1018.66 5.49961 1019.32 5.49961 1020 5.49961C1020.29 6.09773 1020.58 6.69586 1020.88 7.31211C1022.05 9.69289 1022.05 9.69289 1024 12.4996C1026.01 12.5634 1028.02 12.6199 1030.03 12.5074C1032 12.4996 1032 12.4996 1035 13.4996C1036.36 13.3942 1037.71 13.267 1039.06 13.1246C1044.52 13.0002 1047.48 15.5744 1051.54 18.9684C1054.56 20.8477 1056.51 20.7824 1060 20.4996C1060.4 19.5405 1060.4 19.5405 1060.81 18.5621C1062 16.4996 1062 16.4996 1065 15.4996C1068.04 15.5081 1071.06 15.6296 1074.09 15.7574C1077.47 15.4584 1078.41 14.5696 1081 12.4996C1083.01 11.8882 1085.03 11.3286 1087.06 10.8121C1091.4 9.55363 1091.4 9.55363 1094.45 6.46445C1095.39 4.03511 1095.39 4.03511 1096 0.499609C1099.74 0.206392 1102.26 0.114257 1105.62 1.87461C1107.89 4.38187 1108.88 6.21589 1110.25 9.24961C1112.93 14.9919 1116.79 18.9276 1122 22.4996C1124.16 23.2366 1124.16 23.2366 1126 23.4996C1126.14 24.139 1126.29 24.7783 1126.44 25.4371C1126.81 27.475 1126.81 27.475 1128 28.4996C1133.43 28.1802 1136.73 26.8542 1141 23.4996C1141.33 22.8396 1141.66 22.1796 1142 21.4996C1143.93 20.8019 1145.85 20.1066 1147.79 19.4293C1151.28 17.9621 1154.01 15.8044 1157 13.4996C1159.22 14.6101 1161.32 15.7083 1163.42 17.0543C1168.53 19.1163 1173.23 18.8972 1178.69 18.8121C1179.73 18.8153 1180.78 18.8186 1181.85 18.8219C1187.77 18.9448 1187.77 18.9448 1193 16.4996C1198.34 15.8887 1203.73 16.6023 1209 17.4996C1209 18.4896 1209 19.4796 1209 20.4996C1214.5 22.7809 1219.59 24.0657 1225.48 24.8746C1228.3 25.5738 1229.77 26.6966 1232 28.4996C1234.83 29.442 1236.63 29.6342 1239.56 29.6246C1240.35 29.6272 1241.13 29.6297 1241.94 29.6324C1244.06 29.6294 1244.06 29.6294 1246 28.4996C1246 27.1796 1246 25.8596 1246 24.4996C1252.05 25.6887 1257.21 27.4732 1262 31.4996C1262.33 32.4896 1264.66 41.48 1265 42.5C1276.54 43.0605 1282.57 52.2151 1293 47C1293 32.6883 1293 83.9988 1293 73.5C866.31 73.5 439.62 73.5 0 73.5Z" fill="white"/>
</svg>
