<svg width="2929" height="721" viewBox="0 0 2929 721" fill="none" xmlns="http://www.w3.org/2000/svg">
  <path
    d="M2833.25 429.437C2833.19 429.491 2833.13 429.551 2833.07 429.581C2833 429.615 2832.9 429.588 2832.82 429.588C2832.96 429.538 2833.1 429.487 2833.25 429.437ZM2840.75 422.77C2840.55 423.251 2840.33 423.728 2840.01 424.178C2839.94 423.926 2839.86 423.678 2839.78 423.422C2840.1 423.207 2840.42 422.985 2840.75 422.77ZM2843.13 421.157C2843.76 420.741 2844.37 420.321 2844.99 419.901C2844.88 420.895 2844.64 421.83 2842.97 421.799C2842.99 421.544 2843.07 421.359 2843.13 421.157ZM2845.16 431.635C2844.68 430.616 2844.38 429.622 2845.46 428.563C2846.2 429.874 2845.19 430.687 2845.16 431.635ZM2846.65 418.785C2846.67 418.869 2846.7 418.953 2846.73 419.037C2846.99 419.094 2847.24 419.111 2847.51 419.084C2847.6 418.671 2847.69 418.258 2847.87 417.955C2848.07 417.821 2848.27 417.69 2848.46 417.555C2848.66 417.525 2848.87 417.525 2849.17 417.612C2848.62 418.106 2848.07 418.6 2847.51 419.094L2846.71 419.051C2846.58 419.041 2846.43 419.03 2846.29 419.02C2846.41 418.943 2846.53 418.866 2846.65 418.785ZM2846.57 422.008L2846.84 421.9L2846.83 422.216L2846.57 422.008ZM2849.15 431.9C2847.69 432.233 2847.84 433.187 2848.23 434.239L2848.21 434.215C2848.65 436.184 2848.59 436.228 2846.56 435.694L2846.5 435.744C2846.47 436.134 2846.51 436.54 2846.41 436.913C2845.89 438.906 2844.39 438.221 2843.25 437.851C2842.33 437.552 2842.92 436.86 2843.28 436.349C2843.38 436.426 2843.48 436.507 2843.58 436.581C2843.49 436.493 2843.4 436.403 2843.31 436.312L2843.28 436.346C2843.91 434.79 2844.54 433.237 2845.17 431.682C2846.48 431.991 2847.93 429.921 2849.15 431.9ZM2849.13 438.809C2849.07 438.765 2848.99 438.708 2848.91 438.654C2848.98 438.59 2849.05 438.483 2849.12 438.479C2849.19 438.476 2849.27 438.577 2849.34 438.634C2849.27 438.691 2849.2 438.748 2849.13 438.809ZM2858.66 410.533C2858.04 411.275 2857.48 411.749 2856.86 411.82C2857.47 411.396 2858.06 410.956 2858.66 410.533ZM2863.63 406.977C2864.12 407.515 2864.56 408.096 2865.06 408.624C2863.93 409.783 2863.13 408.906 2862.33 408.664C2862.03 408.57 2861.76 408.52 2861.5 408.503C2862.21 407.999 2862.92 407.485 2863.63 406.977ZM2867.11 404.491C2868.99 404.548 2870.65 406.057 2872.76 406.131C2871.32 407.125 2870.12 406.87 2868.99 406.631C2867.95 406.413 2867.21 406.702 2866.59 407.471C2866.23 406.86 2865.87 406.248 2865.5 405.637C2866.04 405.254 2866.57 404.874 2867.11 404.491ZM2874.71 399.047C2875.31 399.32 2875.47 400.133 2875.74 400.855C2874.68 400.791 2873.62 400.728 2872.56 400.664C2872.55 400.647 2872.53 400.633 2872.52 400.617C2873.25 400.089 2873.99 399.582 2874.71 399.047ZM2873.87 403.197L2873.33 402.364C2873.61 402.569 2874.37 402.451 2873.87 403.197ZM2876.51 401.752C2876.78 402.152 2877.1 402.535 2877.31 402.969C2877.51 403.392 2877.72 404.024 2877.04 404.138C2876.46 404.236 2876.22 403.614 2876.22 403.13C2876.21 402.673 2876.4 402.213 2876.51 401.752ZM2877.87 398.026L2878.01 398.305L2877.74 398.328L2877.87 398.026ZM2896.52 370.19C2896.58 370.496 2896.64 370.802 2896.71 371.114C2896.71 371.114 2896.68 371.077 2896.67 371.07L2896.67 371.067C2896.68 371.084 2896.69 371.101 2896.71 371.118C2896.49 371.249 2896.38 371.393 2896.22 371.531C2896.34 371.087 2896.42 370.637 2896.52 370.19ZM2858.97 438.903C2858.96 438.903 2858.66 438.943 2858.66 438.943L2858.38 438.815C2858.57 438.842 2858.77 438.872 2858.97 438.903ZM2859.09 438.842C2859.02 438.872 2858.97 438.903 2858.97 438.903L2859.09 438.842ZM2840.74 29.534C2791.18 38.6401 2741.94 49.6011 2692.7 60.3739C2628.69 74.3792 2565.76 92.1377 2505.8 118.999C2477.48 131.684 2449.23 144.899 2429.76 170.79C2402.27 207.352 2410.72 250.853 2452.68 268.749C2487.17 283.46 2523.93 293.558 2560.42 302.704C2633.27 320.96 2706.65 337.075 2779.73 354.417C2784.23 355.486 2788.01 359.535 2792.13 362.196C2788.93 365.368 2786.27 369.562 2782.46 371.561C2701.86 413.846 2621.5 456.628 2540.23 497.575C2511.53 512.03 2480.52 521.886 2450.57 533.841C2449.24 532.729 2447.91 531.617 2446.57 530.501C2447.71 524.339 2447.29 517.286 2450.23 512.155C2468.48 480.3 2486.7 448.378 2506.5 417.485C2519.75 396.816 2532.84 376.585 2533.1 351.101C2533.27 334.374 2521.51 320.463 2504.88 319.986C2493.65 319.663 2481.56 321.41 2471.17 325.543C2447.71 334.878 2432.33 354.199 2418.9 374.579C2393.67 412.881 2374.83 454.474 2363.08 498.643C2357.55 519.423 2355.64 541.798 2356.03 563.378C2356.67 597.803 2379 618.562 2413.26 620.897C2443.61 622.967 2472.17 615.434 2499.4 603.276C2549.42 580.945 2598.83 557.373 2647.54 532.464C2647.64 535.061 2647.81 537.652 2648.48 540.189C2649.46 543.942 2649.58 623.239 2649.48 627.07C2649.42 629.755 2649.93 632.295 2650.69 634.855C2651.97 639.18 2652.31 643.505 2651.72 648.111C2650.63 656.855 2649.37 665.618 2651.08 674.529C2651.78 678.178 2651.59 682.13 2650.73 685.9C2650.13 688.541 2650.68 691.162 2650.88 693.786C2651.22 698.125 2651.3 702.476 2652.16 706.78C2653.45 713.175 2657.29 717.247 2663.08 719.952C2669.72 723.057 2678.52 718.817 2681.34 713.061C2685.08 705.46 2683.3 698.555 2680.13 691.596C2678.58 688.195 2676.88 684.872 2677.73 681.001C2679.17 674.385 2678.92 667.594 2679.86 660.944C2681 652.91 2680.18 644.96 2679.81 636.949C2679.53 630.985 2679.26 625.104 2677.67 619.321C2677.36 618.212 2677.44 541.462 2677.57 540.296C2678.35 533.566 2678.02 526.909 2676.22 520.37C2675.84 519 2676.1 518.079 2677.1 517.229L2677.13 517.256C2677.1 517.205 2677.09 517.151 2677.07 517.101C2687.14 511.809 2697.18 506.436 2707.19 501.019C2707.24 501.053 2707.21 501.154 2707.3 501.157C2707.71 501.17 2707.98 500.875 2708.11 500.522C2716.97 495.73 2725.8 490.888 2734.6 485.999C2735.22 486.352 2735.6 487.074 2736.05 488.002C2736.92 489.806 2737.58 488.415 2738.02 487.404C2738.99 486.94 2739.59 486.204 2739.73 485.125L2739.74 485.139C2739.78 485.105 2739.81 485.075 2739.84 485.041C2739.81 485.068 2739.77 485.095 2739.73 485.125C2739.57 484.779 2739.34 484.393 2739.81 484.148C2739.96 484.067 2740.28 484.282 2740.52 484.363L2740.52 484.366C2740.29 484.591 2740.06 484.816 2739.84 485.041C2740.1 484.83 2740.36 484.621 2740.62 484.413C2741.39 483.15 2741.59 482.656 2741.12 482.363C2742.01 481.869 2742.9 481.375 2743.79 480.878C2744.4 480.925 2745.09 480.771 2745.64 480.929C2745.99 482.209 2744.68 482.76 2744.56 483.768C2744.27 483.926 2743.98 484.084 2743.69 484.242C2744.28 484.803 2744.34 484.043 2744.64 483.872C2745.4 483.815 2745.98 483.959 2745.78 484.917C2745.56 485.952 2744.84 486.416 2743.86 486.648C2742.75 486.913 2742.81 487.699 2743.24 488.479C2744.52 490.774 2744.74 492.676 2743 494.467C2741.55 495.952 2741.28 497.508 2741.79 499.09C2742.6 501.577 2741.92 503.694 2740.91 505.851L2740.91 505.858C2740.23 506.469 2739.15 506.486 2738.56 507.575C2739.53 508.401 2741.54 507.121 2741.88 508.741C2742.28 510.653 2742.95 512.652 2742.51 514.598C2741.99 516.842 2741.8 516.809 2742.18 517.719C2742.65 518.865 2742.68 520.115 2742.5 521.237C2742.05 523.956 2742.85 526.429 2743.48 528.989C2745.08 535.431 2745.15 542.044 2745.44 548.626C2745.49 549.809 2745.27 551.066 2745.59 552.168C2747.44 558.465 2747.03 564.967 2747.54 571.392C2747.69 573.26 2747.49 575.044 2747.22 576.885C2746.46 582.137 2746.15 587.403 2747.85 592.574C2748.35 594.12 2748.24 595.729 2748.07 597.295C2747.65 601.23 2749.29 604.318 2752.18 606.697C2758.96 612.275 2765.69 612.661 2773.22 608.633C2777.21 606.492 2779.23 600.817 2778.66 596.274C2777.92 590.491 2776.18 584.963 2774.82 579.338C2774.53 578.142 2774.47 576.99 2774.77 575.82C2775.93 571.294 2775.73 566.637 2775.97 562.037C2776.08 559.984 2775.62 557.776 2774.9 555.834C2773.76 552.759 2773.62 549.668 2773.73 546.482C2774.02 538.71 2773.63 530.955 2772.99 523.206C2772.89 522.027 2772.83 520.824 2772.95 519.651C2773.18 517.262 2773.21 514.95 2772.39 512.615C2771.98 511.469 2771.69 510.112 2772.99 509.02C2774.96 507.363 2772.81 507.387 2772.03 506.866C2771.68 503.822 2771.52 500.838 2774.48 498.771C2774.99 498.415 2775 497.958 2774.59 497.424C2773.26 495.693 2774.74 495.529 2775.87 495.182C2774.56 493.509 2775.5 491.963 2776.16 490.401L2776.19 490.441C2776.2 490.428 2776.22 490.418 2776.23 490.404C2776.21 490.404 2776.19 490.404 2776.17 490.401C2776.1 490.307 2776.01 490.213 2776 490.109C2775.73 488.166 2776.97 480.539 2777.84 478.741C2777.74 478.64 2777.64 478.543 2777.54 478.439C2776 476.056 2776.48 473.207 2778.81 471.89C2779.96 471.241 2781.3 470.949 2781.57 469.393C2781.43 469.299 2781.29 469.212 2781.15 469.138C2779.96 469.262 2778.98 467.968 2777.58 468.808C2777.07 469.114 2776.9 467.972 2776.72 467.4L2776.75 467.437C2776.48 466.849 2776.18 466.275 2775.94 465.677C2775.45 464.44 2775.14 463.654 2775.09 463.079C2779.04 460.801 2783 458.543 2786.94 456.248C2787.71 456.382 2788.49 456.574 2789.24 456.876C2790.39 457.333 2791.46 456.977 2791.71 455.724C2791.88 454.843 2791.58 454.228 2791.02 453.886C2791.64 453.526 2792.26 453.177 2792.88 452.817C2794.72 451.735 2796.54 450.593 2798.38 449.497C2798.36 452.075 2798.26 454.659 2799.01 457.206C2799.44 458.694 2800.08 459.383 2801.13 460.099C2800.56 460.566 2799.43 461.443 2800.61 461.728C2803.75 462.481 2805.76 464.82 2808.27 466.423C2809.66 467.31 2810.32 467.837 2812.19 466.453C2813.69 465.347 2816.31 464.86 2818.48 464.265C2818.55 464.168 2818.61 464.05 2818.7 463.993C2824.17 460.66 2825.6 455.569 2825.05 449.608C2825 449.084 2825.05 448.553 2825.05 448.026L2825.02 447.945C2824.24 446.362 2824.55 445.324 2826.41 444.827C2827.62 444.501 2829.45 444.847 2829.38 442.693C2829.55 442.421 2829.82 442.165 2829.88 441.87C2829.93 441.624 2829.55 441.47 2829.44 441.671C2829.29 441.934 2829.33 442.307 2829.29 442.629C2828.22 442.545 2827.31 442.928 2826.33 443.375C2824.76 444.087 2823.45 443.257 2823.88 441.665C2824.45 439.622 2822.85 437.814 2823.81 435.862C2824.26 434.944 2824.62 433.983 2825.01 433.036C2826.25 432.246 2827.49 431.467 2828.72 430.67C2829.35 430.778 2829.98 430.926 2830.59 431.268C2831.7 431.89 2832.92 431.897 2833.89 431.07C2834.77 430.307 2834.1 429.773 2833.35 429.397C2834.68 428.577 2835.97 427.683 2837.36 426.967C2838.57 426.336 2839.48 425.495 2840 424.249C2840.96 424.911 2841.68 425.939 2842.96 426.087C2843.02 426.302 2843.06 426.52 2843.08 426.745C2843.34 426.507 2843.61 426.275 2843.87 426.036C2843.88 426.05 2843.9 426.033 2843.91 426.043C2844.61 427.797 2843.59 428.573 2842.14 429.104C2842.9 431.167 2844.04 433.221 2842.15 435.297C2841.6 435.895 2840.99 436.611 2840.18 435.966C2838.46 434.585 2837.38 436.016 2836.11 436.692C2836.29 437.512 2836.7 438.14 2837.57 438.375C2836.44 439.639 2837 441.198 2836.26 443.153C2841.24 438.553 2842.34 438.375 2845.41 441.214L2845.41 441.218C2844.04 442.199 2844.39 443.839 2844.1 445.146C2843.88 446.144 2843.29 446.251 2842.72 446.614C2842.68 448.53 2843.72 448.496 2844.91 447.659C2846.95 446.218 2848.9 444.645 2850.88 443.126C2850.89 443.136 2850.9 443.143 2850.9 443.15C2850.9 443.14 2850.9 443.13 2850.89 443.12L2850.88 443.126C2850.61 441.796 2849.87 441.403 2848.63 442.011C2848.06 442.286 2847.51 442.569 2846.95 442.848C2847.36 441.409 2848.15 440.421 2849.82 440.358C2851.15 440.307 2852.34 439.975 2852.76 438.486C2855.1 439.45 2854.24 436.322 2855.77 436.265C2856.36 437.27 2858.08 437.273 2858.31 438.765C2857.28 438.882 2857.24 439.524 2857.45 440.311C2857.94 440.428 2858.42 440.559 2858.91 440.66C2859.46 440.778 2859.99 440.64 2860.18 440.102C2860.47 439.309 2859.88 438.997 2859.26 438.755C2859.52 438.009 2859.78 437.256 2860.04 436.507C2858.82 436.117 2858.46 435.065 2858.76 434.091C2859.17 432.737 2858.17 432.223 2857.63 431.42C2857.18 430.768 2856.63 430.082 2855.73 430.61C2854.56 431.295 2855.61 431.782 2855.93 432.414C2856.66 433.859 2855.8 435.052 2854.01 435.055C2853.41 435.059 2852.81 434.676 2852.21 434.46C2853.05 432.989 2854.05 431.493 2851.65 430.469C2851.37 430.694 2851.77 431.332 2851.11 431.312C2851.28 431.026 2851.45 430.741 2851.63 430.452C2850.44 428.086 2853.8 427.807 2853.78 425.952C2851.22 425.852 2851.22 425.852 2848.24 428.607C2846.2 426.48 2848.57 424.907 2848.89 423.133L2848.86 423.157C2850.06 421.436 2849.47 419.373 2849.94 417.515C2849.69 417.539 2849.45 417.565 2849.2 417.589C2849.17 417.411 2849.08 417.327 2849.04 417.169C2850.43 416.215 2851.85 415.291 2853.24 414.326C2853.24 414.672 2852.99 415.102 2852.26 415.711C2851.86 416.033 2852.48 416.887 2853.22 417.108C2853.93 417.323 2853.86 417.797 2853.62 418.338C2853.4 418.842 2851.5 418.711 2852.9 419.723C2853.78 420.371 2854.99 420.049 2855.37 418.708C2855.61 417.828 2855.77 416.92 2855.9 416.016C2855.99 415.344 2856.12 414.716 2856.74 414.33C2857.29 413.977 2857.89 413.577 2858.56 414.024C2859.09 414.377 2858.97 414.904 2858.8 415.432C2858.64 415.922 2858.42 416.44 2858.45 416.93C2858.5 417.676 2859.03 418.086 2859.79 418.066C2860.44 418.049 2860.74 417.626 2860.66 417.021C2860.25 413.903 2863.21 413.002 2864.72 411.228C2865.53 410.27 2867.13 411.584 2868.5 411.46C2867.99 412.848 2866.27 411.85 2865.83 413.486C2868.44 413.217 2870.92 413.627 2873.36 414.219C2873.69 411.554 2876.26 413.637 2877.66 412.068C2874.87 411.776 2873.77 409.141 2871.32 408.567C2871.64 408.984 2871.99 409.377 2872.27 409.817C2872.63 410.402 2872.89 411.151 2872.14 411.524C2871.48 411.85 2870.86 411.292 2870.49 410.758C2869.74 409.696 2870.5 409.098 2871.3 408.55C2872.03 408.248 2872.78 407.979 2873.5 407.629C2876.71 406.06 2876.71 406.057 2877.6 409.998C2879.77 407.727 2877.95 404.8 2879.25 402.606C2880.11 403.271 2880.14 404.192 2880.31 405.055C2881.4 403.664 2882.96 402.434 2881.73 400.314C2881.35 399.659 2881.74 399.105 2882.26 398.624C2883.1 397.858 2883.1 396.776 2883.25 395.758C2885.43 397.717 2884.52 400.18 2884.12 402.404C2883.75 404.434 2883.03 406.342 2884.84 407.891C2883.6 409.222 2882.71 407.256 2881.73 408.066C2881.47 408.459 2881.59 408.815 2881.88 409.125C2882.68 409.968 2883.77 409.981 2884.81 410.126L2884.78 410.146C2884.79 410.146 2884.8 410.143 2884.81 410.143C2884.81 410.136 2884.81 410.133 2884.81 410.126C2885.72 408.772 2887.35 409 2888.69 408.493C2888.82 406.826 2886.95 407.125 2886.33 405.879C2887.83 405.066 2889.24 404 2889.23 402.035C2888.01 401.366 2887.69 403.009 2886.47 402.713C2885.75 401.658 2886.29 400.344 2886.24 399.101L2886.26 399.088C2887.04 399.135 2887.81 399.178 2888.59 399.226C2886.98 397.734 2885.27 396.692 2884.9 394.249C2884.73 393.197 2883.33 392.811 2882.05 393.066C2882.68 392.482 2883.3 391.894 2883.89 391.299C2884.43 391.504 2884.73 390.724 2885.13 390.408C2885.36 390.224 2885.49 389.955 2885.54 389.605C2886.41 388.678 2887.22 387.734 2887.99 386.786C2888.59 386.867 2889.34 387.038 2889.53 386.339C2889.7 385.664 2889.38 385.573 2888.99 385.576C2891.87 381.823 2893.98 377.922 2895.42 373.896C2895.57 374.333 2895.81 374.787 2896.2 375.288C2897.19 374.179 2897.01 372.945 2897.43 371.931L2897.47 371.964C2897.46 371.954 2897.45 371.941 2897.43 371.927C2898.31 371.595 2899.18 371.232 2898.51 370.052C2898 369.162 2897.83 368.201 2897.71 367.213C2897.42 367.374 2897.25 367.569 2897.07 367.761C2897.19 367.069 2897.24 366.37 2897.32 365.671C2897.48 366.155 2897.63 366.642 2897.72 367.132C2899.34 364.159 2899.36 363.86 2897.54 362.623C2897.76 355.405 2895.95 347.841 2892.03 339.975C2886.52 328.94 2876.63 317.22 2865.77 312.277C2836.38 298.897 2806.17 285.762 2774.91 278.309C2694.27 259.095 2612.85 243.215 2531.86 225.467C2517.38 222.295 2503.47 216.549 2489.29 211.992C2489.41 209.361 2489.52 206.734 2489.64 204.106C2581.93 151.566 2683.19 129.634 2787.19 117.037C2787.99 118.962 2788.79 120.884 2789.59 122.81C2784.03 128.068 2778.08 132.991 2772.96 138.656C2756.74 156.6 2739.94 174.126 2725.13 193.192C2716.19 204.714 2719.68 217.214 2730.49 225.077C2758.37 245.352 2806.85 242.923 2830.01 217.721C2859.86 185.228 2888.54 151.583 2916.39 117.346C2933.74 96.0121 2931.14 68.0653 2912.28 48.2604C2892.42 27.3869 2866.64 24.7726 2840.74 29.534Z"
    fill="#F4F1EA" />
  <path
    d="M2388.33 339.846C2380.96 326.348 2367.29 313.529 2353.36 306.97C2327.23 294.665 2299.44 284.598 2271.3 278.082C2190.52 259.386 2109.13 243.358 2028.23 225.19C2014 221.997 1997.54 221.312 1983.25 205.401C2078.83 152.321 2179.69 129.055 2283.88 117.196C2285.68 119.858 2287.47 122.516 2289.27 125.177C2284.31 128.097 2278.33 130.066 2274.54 134.098C2256.67 153.157 2238.49 172.062 2222.23 192.465C2212.45 204.729 2215.85 217.014 2227.59 225.284C2256.31 245.515 2303.45 242.955 2327.02 217.35C2356.91 184.884 2385.52 151.171 2413.34 116.914C2430.4 95.9131 2427.36 67.3481 2408.52 47.8422C2388.9 27.5197 2363.56 24.8114 2338.24 29.4115C2288.18 38.5076 2238.47 49.613 2188.76 60.4933C2124.74 74.5019 2061.82 92.3411 2001.87 119.199C1974.02 131.679 1946.15 144.72 1926.92 170.13C1898.65 207.475 1906.85 250.452 1949.78 268.949C1984.2 283.778 2021.05 293.674 2057.56 302.81C2130.43 321.042 2203.82 337.181 2276.92 354.476C2281.12 355.464 2284.7 359.049 2288.56 361.425C2285.61 364.721 2283.28 369.211 2279.61 371.139C2198.59 413.69 2117.78 456.687 2036.07 497.872C2007.79 512.123 1977.18 521.733 1947.64 533.464C1946.03 532.082 1944.42 530.701 1942.81 529.32C1944.29 523.081 1944.41 516.064 1947.47 510.735C1965.27 479.734 1982.92 448.582 2002.32 418.582C2015.1 398.811 2027.89 379.476 2029.63 355.367C2031.16 334.073 2018.21 320.364 1997.04 319.221C1967.53 317.628 1947.48 334.487 1930.5 355.071C1895.03 398.071 1873.72 448.562 1858.99 501.632C1853.75 520.497 1852.16 540.926 1852.34 560.61C1852.69 597.764 1875.7 619.424 1912.94 621.084C1942.79 622.414 1970.68 614.565 1997.47 602.586C2096.64 558.245 2193.38 509.085 2287.11 454.14C2314.27 438.212 2340.83 421.126 2366.77 403.256C2392.12 385.787 2400.98 362.991 2388.33 339.846Z"
    fill="#F4F1EA" />
  <path
    d="M1800.36 243.897C1777.65 252.281 1754.82 260.362 1731.9 268.181C1720.24 272.163 1708.27 275.265 1692.19 280.023C1696.22 270.674 1698.09 265.355 1700.71 260.433C1717.76 228.339 1735.8 196.737 1751.76 164.113C1759.14 149.032 1770.56 142.638 1785.39 140.168C1833.5 132.154 1881.88 129.711 1930.64 132.712C1936.89 133.095 1947.04 128.622 1949.35 123.612C1956.76 107.561 1963.54 90.575 1966.5 73.2566C1971.45 44.1809 1956.96 33.5862 1928.88 42.4369C1913.22 47.3764 1897.24 51.5968 1881.14 54.7991C1851.64 60.666 1821.72 64.5739 1792.41 71.2035C1775.58 75.0073 1761.97 73.6497 1745.43 66.469C1711.2 51.6069 1692.71 60.0679 1685.02 93.1254C1680.09 114.325 1674.77 135.709 1666.73 155.857C1652.02 192.721 1635.7 228.975 1618.99 264.986C1611.52 281.064 1601.45 295.926 1592.62 311.376C1589.95 316.057 1587.08 320.694 1585.08 325.664C1583.49 329.612 1584.02 334.565 1582.01 338.174C1543.53 406.94 1515.26 481.489 1464.32 543.253C1447.94 563.112 1452.17 583.377 1473.29 598.464C1480.23 603.424 1488.56 606.761 1496.68 609.681C1508.93 614.093 1518.67 609.311 1528.48 601.179C1539.81 591.788 1551.88 581.781 1565.38 576.821C1594.42 566.156 1624.15 556.455 1654.4 550.256C1688.4 543.287 1723.32 540.804 1757.77 535.877C1763.69 535.031 1770.93 533.263 1774.65 529.238C1783.13 520.068 1791.76 510.101 1796.74 498.868C1803.83 482.86 1804.61 465.475 1792.25 450.754C1780.3 436.51 1765.25 440.949 1750.59 445.515C1702.5 460.495 1654.45 475.582 1606.35 490.515C1597.38 493.297 1588.25 495.559 1575.5 499.077C1578.18 491.671 1578.97 488.432 1580.46 485.565C1596.38 455.065 1611.77 424.255 1628.79 394.38C1634.02 385.203 1642.43 375.526 1651.75 371.373C1702.98 348.533 1755.95 331.413 1813.1 333.55C1824.75 333.987 1832.68 329.276 1835.14 318.937C1838.81 303.541 1842.16 287.664 1842.39 271.948C1842.84 241.861 1828.86 233.38 1800.36 243.897Z"
    fill="#F4F1EA" />
  <path
    d="M1642.36 169.489C1649.08 164.345 1653.83 153.586 1654.99 144.822C1657.75 123.922 1649.66 106.536 1630.66 95.9383C1611.19 85.0781 1591.7 87.306 1574.85 100.901C1558.29 114.265 1542.47 128.808 1527.88 144.298C1483.94 190.948 1441.08 238.615 1397.13 285.258C1377.33 306.283 1355.93 325.819 1335.26 346.034C1334.18 345.627 1333.11 345.224 1332.03 344.821C1333.44 340.587 1334.38 336.121 1336.33 332.153C1380.86 241.636 1429.4 153.394 1485.73 69.5776C1488.06 66.0998 1489.88 61.8222 1490.47 57.706C1492.94 40.3372 1478.72 11.8932 1463.95 4.26219C1444.81 -5.62349 1429.27 3.3247 1414.42 14.4234C1410.56 17.3031 1407.04 20.8246 1404.01 24.5678C1389.65 42.2525 1375.96 60.4916 1361.23 77.8571C1239.13 221.858 1119.81 368.03 1012.15 523.341C1000.29 540.451 987.869 557.276 977.453 575.242C969.476 588.999 974.119 605.205 986.834 612.221C1005.58 622.567 1025.95 626.254 1047.27 622.887C1060.25 620.837 1068.9 613.828 1074.02 601.207C1079.1 588.676 1085.93 576.852 1092.11 564.779C1139.62 471.977 1200.89 388.268 1263.59 305.513C1268.22 299.408 1273.61 293.88 1278.65 288.084C1279.78 288.853 1280.9 289.623 1282.03 290.389C1278.76 297.577 1275.66 304.848 1272.19 311.931C1245.96 365.395 1219.33 418.668 1193.53 472.333C1182.48 495.304 1191.14 519.426 1213.69 529.991C1231.32 538.25 1247.92 534.769 1262.03 521.456C1299.11 486.446 1336.01 451.231 1373.02 416.148C1377.34 412.055 1381.95 408.261 1386.95 403.859C1388.12 406.857 1389.01 408.006 1388.72 408.54C1385.56 414.504 1382.31 420.422 1378.92 426.265C1344.92 484.924 1310.28 543.223 1285.71 606.778C1278.62 625.131 1281.53 634.657 1299.44 643.192C1319.3 652.655 1340.36 651.956 1360.58 646.166C1367.26 644.254 1374.06 635.437 1376.78 628.256C1390.45 592.131 1400.15 554.295 1416.12 519.285C1456.64 430.465 1507.63 347.361 1562.69 266.888C1586.37 232.281 1608 195.803 1642.36 169.489Z"
    fill="#F4F1EA" />
  <path
    d="M792.171 327.321C747.134 343.87 694.944 361.283 645.031 377.916C670.925 352.046 694.204 329.304 708.714 314.909C746.449 277.285 784.442 239.069 822.748 201.828C814.845 238.938 803.747 283.091 792.171 327.321ZM437.677 592.003C437.499 591.913 437.543 591.772 437.6 591.634C437.815 591.711 438.037 591.795 438.252 591.869C438.138 592.128 437.869 592.101 437.677 592.003ZM431.061 589.285C431.071 589.359 431.068 589.436 431.068 589.51C431.024 589.453 430.971 589.396 430.934 589.329C430.897 589.261 430.866 589.178 430.873 589.114C430.93 589.134 430.987 589.154 431.041 589.177C431.048 589.214 431.058 589.255 431.061 589.285ZM395.117 569.698C394.835 569.416 395.316 569.003 395.027 568.758C395.248 568.946 395.494 569.127 395.722 569.319C395.48 569.346 395.352 569.688 395.117 569.698ZM439.586 596.328C439.559 596.321 439.532 596.321 439.512 596.308C439.495 596.294 439.485 596.278 439.472 596.264C439.509 596.284 439.546 596.304 439.586 596.328ZM922.943 278.588C909.959 281.777 891.041 287.762 874.613 294.075C885.077 250.867 895.009 211.045 901.303 182.984C906.992 160.642 917.345 145.243 921.79 123.633C922.277 120.875 922.946 117.595 923.625 114.006C934.579 102.128 950.671 82.2223 949.169 65.7741C949.807 50.4315 893.265 34.3899 885.765 33.738C869.788 30.9424 838.592 72.1349 831.327 83.6705C828.326 88.7947 823.222 94.9674 819.284 99.3861C776.159 151.946 707.86 213.26 658.042 260.598C597.538 317.926 533.376 377.281 474.404 438.466C455.533 440.748 431.948 447.142 423.407 450.294C326.519 483.019 233.153 495.206 131.719 534.917C143.866 499.88 206.234 403.799 227.175 370.446C274.759 295.887 320.175 223.125 371.982 151.57C391.73 124.295 412.57 97.0911 433.578 74.0805C472.67 31.2415 399.973 -4.62186 377.849 3.75509C367.927 7.51178 358.145 21.6649 349.61 36.9807C334.987 63.2204 319.311 89.1207 303.29 114.88C257.83 187.957 213.234 255.511 164.514 327.325C130.089 378.151 95.1061 429.38 62.2972 481.433C46.0574 507.192 29.075 533.062 13.5274 559.742C4.35071 575.508 -6.03564 593.139 4.3003 611.62C9.62956 621.153 37.6233 638.804 46.0674 646.19C64.4208 663.092 70.7648 658.629 90.8588 638.088C98.7955 629.433 120.381 618.919 132.014 613.263C195.801 582.232 287.588 558.197 367.157 545.431C367.167 545.435 367.167 545.451 367.177 545.455C367.312 545.508 367.372 545.458 367.423 545.384C367.631 545.354 367.846 545.317 368.054 545.283C368.095 545.34 368.115 545.404 368.226 545.428C368.357 545.451 368.478 545.344 368.478 545.219C368.478 545.216 368.474 545.216 368.474 545.216C369.496 545.051 370.507 544.897 371.522 544.739C371.542 544.746 371.549 544.756 371.572 544.759C371.613 544.766 371.616 544.726 371.646 544.719C372.073 544.652 372.493 544.591 372.916 544.524C372.873 544.695 372.994 544.793 373.121 544.89C373.162 544.752 373.195 544.611 373.101 544.494C374.052 544.349 375 544.201 375.947 544.06C375.954 544.064 375.961 544.064 375.971 544.067C375.954 544.783 376.361 545.085 377.006 545.035C377.648 544.988 378.034 544.658 377.863 543.933C377.836 543.899 377.806 543.865 377.775 543.832C377.449 543.862 377.12 543.899 376.791 543.929C377.15 543.875 377.51 543.818 377.869 543.765C377.839 543.791 377.806 543.808 377.775 543.832C377.806 543.865 377.836 543.899 377.863 543.933C377.947 543.922 378.031 543.916 378.115 543.899C378.229 543.875 378.4 543.902 378.387 543.738C378.387 543.724 378.35 543.711 378.326 543.697C378.787 543.627 379.25 543.556 379.711 543.486C379.798 543.768 380.077 543.791 380.396 543.768C380.359 543.66 380.343 543.526 380.322 543.398C380.917 543.311 381.502 543.23 382.093 543.143C381.838 544.332 381.74 545.515 381.744 546.695C381.697 546.748 381.666 546.812 381.693 546.903C381.697 546.92 381.727 546.926 381.754 546.94C381.761 547.414 381.754 547.884 381.801 548.355C381.787 548.398 381.757 548.428 381.757 548.482C381.757 548.533 381.791 548.546 381.808 548.583C381.838 548.845 381.902 549.104 381.942 549.369C381.855 549.403 381.791 549.47 381.818 549.578C381.828 549.621 381.939 549.638 382.002 549.665C382.278 551.221 382.725 552.77 383.387 554.302C383.353 554.366 383.31 554.413 383.306 554.517C383.084 554.349 382.863 554.184 382.641 554.016C382.664 553.633 382.795 553.25 382.668 552.871C382.614 552.703 382.456 552.605 382.275 552.588C382.07 552.568 381.942 552.703 381.918 552.877C381.848 553.381 381.744 553.889 381.784 554.386C381.808 554.699 382.295 554.621 382.49 554.85C382.614 554.998 382.893 555.058 382.836 555.162C382.429 555.656 382.033 555.014 381.797 555.391C381.532 555.811 381.7 556.261 382.076 556.523C382.476 556.802 382.275 557.35 382.658 557.629C383.528 557.377 383.582 556.459 384.066 555.912C383.615 555.616 383.266 555.266 383.441 554.652C383.467 554.658 383.494 554.665 383.525 554.672C383.693 555.048 383.924 555.421 384.119 555.797C384.106 555.834 384.092 555.875 384.082 555.912C384.129 555.942 384.17 555.955 384.213 555.975C384.97 557.43 385.846 558.875 386.905 560.293C386.871 560.313 386.838 560.33 386.808 560.357C386.797 560.364 386.831 560.455 386.844 560.458C386.898 560.458 386.952 560.448 386.999 560.434C388.511 562.444 390.319 564.413 392.342 566.332C392.197 566.429 392.076 566.557 392.073 566.812C392.342 566.812 392.604 566.829 392.842 566.785C393.525 567.42 394.203 568.055 394.936 568.68C394.546 568.526 394.391 568.996 394.096 569.11C394.018 569.137 393.941 569.168 393.864 569.194C393.854 569.682 394.61 569.9 394.321 570.488C394.318 570.488 394.247 570.455 394.247 570.455L394.274 570.532C394.341 572.266 394.976 572.85 396.408 572.508C396.465 572.464 396.515 572.417 396.566 572.366C396.438 571.98 396.408 571.483 395.783 571.637C395.766 571.674 395.752 571.711 395.739 571.748C395.752 571.711 395.766 571.674 395.779 571.634C395.914 571.221 395.846 570.754 396.112 570.374C396.119 570.381 396.122 570.391 396.125 570.401C396.125 570.384 396.122 570.371 396.119 570.354L396.109 570.364C396.102 570.149 396.266 569.944 396.226 569.725C397.17 570.495 398.141 571.258 399.15 572.007C399.052 572.195 399.102 572.296 399.324 572.457C400 572.938 400.258 573.707 400.772 574.336C400.977 573.959 400.856 573.596 400.87 573.26C402.355 574.312 403.877 575.35 405.467 576.358C405.228 576.95 405.423 577.38 405.977 577.692L406.011 577.665C405.947 577.319 406.018 576.926 405.867 576.604C409.489 578.878 413.329 581.026 417.271 583.012C417.271 583.012 417.271 583.015 417.268 583.018H417.284C417.291 583.022 417.295 583.025 417.301 583.028C417.5 583.385 417.741 583.455 418.037 583.388C418.303 583.519 418.568 583.643 418.83 583.771C418.682 584.235 418.571 584.574 418.464 584.9L418.454 584.887C418.716 585.078 418.518 585.68 419.005 585.622C419.811 585.525 419.68 586.063 419.798 586.493C419.354 586.647 419.153 586.331 418.874 586.271C418.272 586.143 417.651 586.701 417.92 587.222C418.329 588.012 418.807 588.818 419.751 589.124L419.761 589.114C419.986 588.721 420.11 588.3 420.087 587.843C419.983 587.773 419.862 587.716 419.781 587.625C419.697 587.524 419.687 587.383 419.842 587.323C419.875 587.309 419.983 587.403 420.01 587.467C420.057 587.585 420.067 587.716 420.09 587.84C420.43 588.032 420.722 587.975 421.122 587.904C422.005 587.749 422.96 587.208 423.87 588.018C424.23 588.341 424.63 588.233 424.482 587.585C423.83 587.336 423.239 587.051 422.456 587.108C421.545 587.171 420.719 586.829 420.292 585.733C420.047 585.095 419.438 584.584 419.018 583.865C419.331 584.016 419.647 584.167 419.963 584.319C419.959 584.396 419.956 584.477 420.01 584.54C420.201 584.766 420.322 584.671 420.436 584.551C420.537 584.598 420.638 584.648 420.739 584.695C420.651 585.347 420.782 585.367 421.68 585.246C421.757 585.236 421.851 585.293 421.925 585.273C421.932 585.273 421.932 585.27 421.938 585.266C422.395 585.478 422.852 585.68 423.309 585.884C423.232 585.935 423.145 585.975 423.091 586.086C423.346 586.187 423.497 586.13 423.615 586.022C423.897 586.15 424.18 586.281 424.465 586.405C424.418 586.442 424.368 586.452 424.324 586.496C424.321 586.496 424.25 586.489 424.25 586.489V586.563C424.223 586.926 424.374 587.249 424.492 587.575C425.369 587 425.298 587.733 425.463 588.25C425.55 588.519 425.624 588.989 426.108 588.872C426.518 588.774 426.276 588.327 426.391 588.173C426.753 587.669 426.495 587.528 426.115 587.276C426.014 587.208 425.934 587.111 425.846 587.027C427.177 587.605 428.507 588.163 429.835 588.704C429.643 588.946 429.589 589.208 430.147 589.547C430.275 589.621 429.969 589.735 429.831 589.809C429.505 589.984 429.68 590.246 429.731 590.481C430.1 590.535 430.13 591.143 430.776 590.982C430.426 590.411 430.88 590.011 431.075 589.53C431.411 589.584 431.606 589.685 431.501 590.122C431.417 590.478 431.317 591.022 431.683 591.187C432.194 591.422 432.368 591.758 432.442 592.252C432.459 592.386 432.604 592.447 432.745 592.427C432.882 592.407 433.03 592.232 432.98 592.188C432.526 591.761 433.528 590.683 432.281 590.616C432.096 590.606 431.989 590.343 432.103 590.216C432.234 590.071 432.328 589.897 432.419 589.715C432.852 589.883 433.289 590.058 433.719 590.223C433.686 590.387 433.652 590.548 433.618 590.713C433.988 590.797 434.183 590.69 434.29 590.441C435.137 590.757 435.974 591.049 436.811 591.348C436.747 591.845 436.851 592.131 437.14 592.544C437.449 592.991 438.044 593.25 438.108 593.838C438.218 594.839 438.867 595.511 439.435 596.241C439.263 596.308 439.072 596.459 439.25 596.587C439.586 596.835 439.996 596.963 440.436 596.856C440.53 596.187 439.808 596.005 439.747 595.481C439.831 595.404 440.087 595.542 440.013 595.266C439.925 595.337 439.835 595.407 439.744 595.474C439.072 595.115 439.274 594.345 438.988 593.804C438.948 593.727 439.025 593.489 439.089 593.475C439.979 593.237 439.767 592.843 439.321 592.316C439.307 592.299 439.331 592.252 439.327 592.225C440.49 592.618 441.642 592.998 442.771 593.351C442.194 593.798 441.686 594.477 440.725 593.768C440.97 594.315 441.075 594.792 441.048 595.286C442.765 594.735 442.923 594.624 443.101 593.452C443.548 593.589 443.988 593.72 444.431 593.852C444.596 594.258 444.882 594.567 445.47 594.712C445.288 594.403 445.187 594.214 445.124 594.06C445.765 594.248 446.397 594.433 447.022 594.604C447.066 594.866 447.099 595.102 447.146 595.417C447.523 595.222 447.644 595.007 447.681 594.782C448.423 594.987 449.176 595.196 449.895 595.377C449.895 595.548 449.976 595.696 450.11 595.804C450.53 596.133 450.658 596.513 450.537 597.04C450.483 597.269 450.769 597.36 450.974 597.427C451.061 597.286 451.128 597.118 451.249 597.01C451.562 596.724 452.002 596.486 451.784 595.965C451.757 595.898 451.703 595.858 451.669 595.794C451.999 595.871 452.335 595.955 452.657 596.026C452.57 596.214 452.54 596.422 452.62 596.651C452.691 596.849 452.896 596.987 453.128 596.943C453.346 596.896 453.326 596.711 453.269 596.543C453.218 596.385 453.195 596.254 453.215 596.157C453.954 596.318 454.65 596.446 455.352 596.58C455.359 596.6 455.365 596.62 455.376 596.637C455.093 596.916 455.107 597.292 455.053 597.642C454.73 597.467 454.495 597.504 454.408 597.907C454.337 598.23 454.267 598.556 454.196 598.882L454.273 598.962C454.754 598.663 455.365 598.825 455.917 598.576C455.607 598.233 455.261 598.052 455.103 597.696C455.661 597.514 455.466 597.074 455.439 596.694C455.5 596.677 455.503 596.64 455.547 596.62C456.935 596.879 458.272 597.108 459.495 597.255C459.475 597.393 459.458 597.531 459.472 597.679C459.465 597.675 459.462 597.669 459.458 597.665L459.472 597.679C459.283 597.659 459.052 597.531 458.968 597.82C458.921 597.981 458.981 598.159 459.146 598.23C459.431 598.354 459.603 598.213 459.703 597.944C459.707 597.948 459.714 597.954 459.717 597.958L459.703 597.944C460.08 597.746 460.167 597.534 460.127 597.316C460.799 597.39 461.464 597.46 462.076 597.497C462.63 598.304 462.617 598.358 461.733 598.778C461.548 598.865 461.377 598.976 461.199 599.08C461.421 599.308 461.642 599.54 461.972 599.883C462.163 598.952 462.802 598.757 463.521 598.687C463.927 598.324 463.884 597.931 463.756 597.534C464.136 597.534 464.509 597.531 464.858 597.514C464.892 597.521 464.949 597.538 464.952 597.531C464.955 597.524 464.955 597.514 464.959 597.504C465.194 597.491 465.409 597.467 465.627 597.444C465.493 597.84 465.752 598.186 465.853 598.549C466.158 598.132 466.179 597.753 465.839 597.427C466.669 597.329 467.412 597.185 467.986 596.953C467.996 596.95 468 596.97 468.01 596.966C468.047 596.95 468.067 596.909 468.104 596.886C468.45 596.735 468.773 596.57 469.008 596.365C470.449 593.146 471.918 590.081 473.403 587.108C473.406 587.192 473.447 587.232 473.527 587.175C473.547 587.158 473.558 587.101 473.547 587.077C473.534 587.054 473.49 587.044 473.46 587.03C473.447 587.04 473.437 587.054 473.423 587.067C475.275 583.354 477.166 579.833 479.078 576.395C479.149 576.493 479.226 576.594 479.33 576.634C479.764 576.812 479.885 576.399 480.039 576.103C479.932 576.043 479.818 575.985 479.717 575.915C479.629 575.851 479.539 575.784 479.448 575.73C480.503 573.838 481.565 571.953 482.637 570.108C482.781 570.317 482.98 570.444 483.181 570.377C483.746 570.189 483.568 569.856 483.329 569.48C483.148 569.191 483.373 569.01 483.628 568.892C483.742 568.838 483.883 568.791 483.793 568.627C483.756 568.563 483.658 568.536 483.591 568.496C483.682 568.338 483.776 568.18 483.867 568.022C483.944 568.045 483.994 568.089 484.088 568.096C484.119 568.062 484.149 568.028 484.182 567.995C484.209 567.676 484.334 567.45 484.683 567.403C484.965 567.363 485.238 567.286 485.463 567.091C485.164 567.061 484.895 566.883 484.613 566.758C484.784 566.469 484.955 566.177 485.127 565.888C485.177 565.912 485.227 565.932 485.288 565.942C485.97 566.526 486.686 567.02 487.452 567.041C487.647 567.057 487.748 567.047 487.892 567.054C487.677 567.155 487.57 567.336 487.606 567.592C487.627 567.726 487.741 567.837 487.862 567.793C488.121 567.706 488.232 567.487 488.205 567.215C488.191 567.108 488.094 567.071 487.983 567.054C488.369 567.061 488.652 567.024 488.867 566.879C489.982 566.137 490.614 564.856 490.587 563.674C490.627 563.697 490.661 563.734 490.701 563.758C490.967 563.899 491.293 563.647 491.424 563.371C491.612 562.968 491.256 562.844 490.99 562.753C490.745 562.676 490.483 562.649 490.258 562.508C490.18 562.367 490.167 562.202 490.056 562.074C489.754 561.725 489.465 561.305 489.337 560.868C489.186 560.357 488.897 560.196 488.571 560.176C490.348 557.262 492.143 554.329 493.957 551.372C494.115 551.627 494.334 551.863 494.683 551.805C495.254 551.711 494.945 551.278 494.965 550.979C494.982 550.774 495.086 550.549 494.868 550.381C494.757 550.337 494.656 550.35 494.562 550.387C497.032 546.355 499.535 542.185 502.062 537.867C502.059 537.898 502.055 537.928 502.055 537.961C502.307 537.975 502.563 537.992 502.815 538.005C502.825 537.837 502.835 537.669 502.845 537.501L502.17 537.683C502.892 536.446 503.608 535.25 504.334 533.976C505.637 531.849 507.133 529.574 508.776 527.192C508.782 527.242 508.749 527.29 508.803 527.343C508.836 527.377 509.004 527.276 509.118 527.232C509.071 527.121 509.024 527.014 508.977 526.903C513.12 520.912 518.261 514.171 524.212 506.846C524.538 506.725 524.881 506.513 525.214 506.345C525.261 506.362 525.308 506.382 525.362 506.369C525.52 506.329 525.593 506.235 525.644 506.127C527.63 505.008 529.76 503.036 532.042 500.022C532.065 500.028 532.065 500.069 532.092 500.069C532.273 500.069 532.405 499.971 532.324 499.78C532.317 499.759 532.287 499.753 532.27 499.739C532.334 499.652 532.394 499.591 532.458 499.501C532.69 499.266 533.003 499.017 533.258 498.775C533.265 498.778 533.268 498.795 533.275 498.795C533.319 498.802 533.308 498.741 533.329 498.714C534.108 497.992 535.002 497.249 536.003 496.49C536.097 496.591 536.222 496.655 536.383 496.668C536.507 496.682 536.706 496.648 536.692 496.52C536.675 496.339 536.561 496.245 536.423 496.171C565.089 474.978 677.007 440.802 768.69 415.667C756.617 460.896 746.2 500.468 741.059 525.078C736.694 547.494 731.126 569.49 726.513 591.792C717.531 635.199 827.523 634.217 828.847 602.921C829.647 579.315 831.357 546.809 830.413 523.889C831.213 494.366 839.993 446.252 851.387 393.964C866.952 390.083 879.418 387.126 887.365 385.402C903.8 381.998 918.578 380.708 935.248 380.708C958.752 373.01 954.441 280.715 922.943 278.588Z"
    fill="#F4F1EA" />
</svg>
  