<svg width="1108" height="1671" viewBox="0 0 1108 1671" fill="none" xmlns="http://www.w3.org/2000/svg">
<path d="M219.001 927.5C35 939.5 9.0009 779.5 22.5009 763C33.3009 749.8 51.334 727.5 59.0005 718" stroke="black" stroke-width="37" stroke-linecap="round"/>
<path d="M63.5002 733.5C56.5002 647.5 45.0002 510.5 63.5002 458C82.0002 405.5 117.5 383 143.5 384.5C169.5 386 182.5 392 211 368C239.5 344 267.5 363.501 282.5 374C297.5 384.5 302 363.001 318.5 357.501C335 352.001 363 341.001 401 357.501C439 374 458.5 397.5 456.5 413C454.5 428.5 452.5 499 431.5 547C410.5 595 386.5 636.5 386.5 679.5C386.5 722.5 296 713 292.5 687C289 661 302 547.5 318.5 516.5C335 485.5 326 464 318.5 449.5C312.5 437.9 310.333 414.667 310 404.5" stroke="black" stroke-width="37" stroke-linecap="round"/>
<path d="M587 154C579.5 219.5 573 264 567.5 270C562 276 563.5 277 567.5 281.5C571.5 286 545.5 373 543 397C540.5 421 519.5 538.999 554 605C588.5 671 654 582 683.5 570C713 558 831.5 520.5 853.5 554.5C875.5 588.5 913 636 807.5 653.5C702 671 651.5 715.5 620 759.5C588.5 803.5 369.5 862 326 870.5" stroke="black" stroke-width="37" stroke-linecap="round"/>
<path d="M830.5 653C965.5 683 995 793.5 989.5 845C984 896.5 916 1008 957.5 1155.5C999 1303 1099 1457 1088 1526.5C1077 1596 1008 1535.5 989.5 1508C971 1480.5 946.5 1327 807.5 1214" stroke="black" stroke-width="37" stroke-linecap="round"/>
<path d="M504 913C504 971 479.5 1006.5 471 1030C454.5 1071 380 1174.5 374.5 1206.5C369 1238.5 294.5 1322.5 277 1384C259.5 1445.5 276.5 1535 353.5 1463C430.5 1391 492 1236 522.5 1206.5C553 1177 593.5 1116 598 1231C602.5 1346 603 1520.5 606 1556.5C612.75 1637.5 698 1708.5 713 1587C723 1523.5 728.5 1313.5 739.5 1254C748.3 1206.4 743.167 1160.17 739.5 1143" stroke="black" stroke-width="37" stroke-linecap="round"/>
<path d="M727.5 1456.5C801.5 1292 768 1311 808 1193" stroke="black" stroke-width="37" stroke-linecap="round"/>
<path d="M362.501 870.5C304.501 897.5 274.001 871 252.001 862.5C230.001 854 172.001 866 220.001 934C268.001 1002 337.5 1025.5 395.5 1007.5C441.9 993.1 473.833 977.167 484 971" stroke="black" stroke-width="37" stroke-linecap="round"/>
<path d="M206.5 708C193.5 747 284 776.5 303 708" stroke="black" stroke-width="37" stroke-linecap="round"/>
<path d="M410.5 361.5C423.5 348 449.9 317.3 451.5 302.5C453.5 284 446.5 240 451.5 223.5C456.5 207 483.5 165.5 486.5 143.5C489.5 121.5 493 54.4997 505 35.9997C517 17.4997 578.5 -4.5003 590.5 75.4997C602.5 155.5 577 165.5 541 172" stroke="black" stroke-width="37" stroke-linecap="round"/>
<path d="M178.5 406.5C210 461.5 194 465 197 499.5C200 534 214 581 235.5 617C257 653 247.5 714 197 700.5C146.5 687 125 623.5 120 605C116 590.2 94.3333 532.5 84 505.5" stroke="black" stroke-width="37" stroke-linecap="round"/>
</svg>
