<svg width="1987" height="1526" viewBox="0 0 1987 1526" fill="none"
  xmlns="http://www.w3.org/2000/svg">
  <path
    d="M1265.34 588.69C1265.57 497.013 1266.13 440.421 1267.04 431.027C1268.96 408.164 1269.19 364.249 1267.49 346.706C1266.25 334.369 1266.25 323.39 1267.26 288.983C1267.94 265.667 1269.07 242.239 1269.64 236.919C1270.21 231.599 1270.66 224.016 1270.43 219.942C1270.21 211.453 1270.21 182.252 1270.43 160.068C1270.55 151.806 1271.45 135.96 1272.47 124.981C1276.43 80.1611 1277.34 70.8802 1278.24 66.0133C1278.81 63.1837 1278.81 58.8828 1278.36 56.3928C1277.9 53.9028 1277 49.0359 1276.43 45.6404C1275.07 38.3968 1275.87 30.9267 1278.13 30.9267C1279.26 30.9267 1279.71 32.6244 1279.71 37.1517C1279.71 40.6604 1280.39 44.6218 1281.3 45.98C1284.69 51.2996 1285.37 60.6937 1285.49 103.137C1285.49 126.566 1285.94 152.711 1286.51 161.087C1287.18 169.462 1288.09 185.081 1288.66 195.607C1289.22 206.247 1290.35 219.489 1291.15 225.035C1292.05 231.826 1292.28 243.597 1291.83 260.687C1291.03 293.85 1292.5 356.213 1294.09 358.251C1297.26 362.212 1298.16 379.982 1297.37 423.67C1296.92 447.665 1296.01 470.867 1295.45 475.168C1293.3 491.58 1292.39 517.838 1291.71 580.994C1291.03 637.246 1291.26 647.659 1292.73 657.958C1295.9 678.897 1296.01 682.179 1293.3 692.252C1291.94 697.346 1290.01 702.552 1289 703.684C1287.18 705.721 1287.18 705.834 1289.22 705.042C1292.73 703.797 1305.86 702.099 1313.1 702.099C1321.59 701.986 1328.04 700.515 1336.19 696.893C1343.32 693.611 1350.91 691.8 1375.92 687.725C1385.54 686.141 1394.48 684.443 1395.73 683.877C1399.24 682.519 1415.08 680.821 1437.61 679.463C1448.81 678.784 1459.57 677.539 1461.38 676.86C1466.13 674.936 1510.5 675.162 1523.29 677.199C1530.53 678.331 1537.44 678.444 1549.89 677.765C1570.49 676.52 1617.69 676.52 1630.02 677.539C1635 677.991 1655.6 679.463 1675.86 680.708C1696.12 681.953 1713.1 683.311 1713.67 683.651C1715.48 684.782 1792.11 688.404 1817.35 688.517C1830.7 688.631 1844.74 689.197 1848.47 689.762C1852.21 690.328 1866.69 692.026 1880.73 693.611C1894.77 695.082 1908.23 696.893 1910.72 697.572C1913.21 698.138 1925.21 699.496 1937.32 700.402C1949.43 701.42 1960.19 702.552 1961.09 702.892C1966.3 704.929 1966.52 704.363 1963.13 697.798C1957.81 687.612 1956.45 682.179 1955.89 667.579C1955.55 660.109 1954.64 652.186 1953.96 650.035C1953.17 647.432 1952.72 629.549 1952.6 596.274C1952.49 559.489 1952.04 540.135 1950.57 522.139C1948.3 495.315 1948.3 486.6 1950.91 371.606C1952.04 316.034 1952.15 296.34 1950.91 266.912C1949.55 230.581 1950 216.772 1953.28 199.569C1956.11 184.629 1956.68 175.121 1956.22 154.862C1955.89 143.091 1955.09 131.546 1954.3 129.396C1953.62 127.245 1952.83 116.832 1952.49 106.193C1951.81 87.9707 1952.49 78.5766 1955.32 65.5606C1956 62.5046 1957.13 55.3741 1957.81 49.715C1959.17 38.6231 1961.66 30.9267 1963.81 30.9267C1964.6 30.9267 1965.85 29.6817 1966.52 28.0971C1967.2 26.5126 1968.34 25.2676 1969.01 25.2676C1970.15 25.2676 1973.54 31.1531 1973.54 33.1904C1973.54 35.1145 1970.37 34.4354 1969.69 32.2849C1969.35 31.2663 1969.47 32.3981 1969.81 34.8881C1970.26 37.3781 1970.6 42.4713 1970.71 46.2064C1970.83 49.9414 1971.5 54.1291 1972.18 55.4873C1975.24 61.0333 1976.26 73.4834 1975.01 87.7444C1974.22 97.1385 1974.11 107.551 1974.9 119.775C1975.92 136.979 1975.58 152.938 1974.11 166.746C1973.66 170.594 1974.11 176.14 1975.24 181.46C1981.01 209.416 1982.71 243.936 1979.77 276.533C1977.62 301.207 1977.39 330.068 1979.2 360.854C1979.99 373.983 1980.67 413.937 1980.79 449.702L1981.01 514.782L1983.73 524.969L1986.56 535.155V633.058V730.961L1625.72 731.3L1265 731.527L1265.34 588.69Z"
    fill="black" />
  <path
    d="M1697.94 624.569C1693.63 623.664 1688.99 622.419 1687.75 621.74C1686.5 621.174 1682.99 619.816 1679.94 618.797C1676.88 617.892 1673.83 616.534 1673.15 615.968C1672.47 615.402 1668.73 612.912 1664.88 610.308C1650.85 601.141 1639.08 587.446 1635.8 576.467C1632.63 565.715 1634.1 547.605 1638.74 541.72C1639.3 540.928 1640.89 538.211 1642.25 535.495C1646.89 526.44 1647.34 526.78 1677.34 558.018C1687.52 568.77 1704.05 580.768 1711.86 583.371C1714.12 584.05 1716.61 585.069 1717.29 585.635C1717.97 586.201 1724.53 587.672 1732 588.917C1741.85 590.615 1747.85 591.067 1754.53 590.615C1767.09 589.596 1786.9 586.653 1789.05 585.521C1790.07 584.956 1796.75 583.484 1803.88 582.239C1816.44 580.089 1831.49 575.109 1836.36 571.713C1839.64 569.45 1844.4 562.206 1846.43 556.66C1847.23 554.17 1848.7 550.548 1849.6 548.624C1851.53 544.436 1853.57 528.251 1853.57 516.48C1853.57 507.086 1851.08 489.656 1849.26 486.374C1848.59 485.242 1847.23 481.393 1846.21 477.998C1844.06 471.094 1836.81 456.154 1835.34 455.588C1834.78 455.361 1834.32 454.682 1834.32 454.116C1834.32 451.4 1820.63 431.593 1814.4 425.368C1808.74 419.709 1804.56 416.879 1792.45 410.881C1784.18 406.693 1777.28 403.298 1777.05 403.298C1776.94 403.298 1776.37 404.995 1776.03 407.033C1775.58 408.957 1774.79 411.22 1774.34 411.786C1773.77 412.465 1773.32 413.484 1773.09 414.05C1771.96 418.69 1771.17 420.728 1767.2 428.198C1757.36 446.873 1736.64 468.491 1706.99 491.014C1705.74 491.919 1700.43 495.994 1695.11 500.069C1689.79 504.143 1685.03 507.425 1684.58 507.425C1684.01 507.425 1682.2 508.331 1680.62 509.576C1674.51 513.877 1662.51 519.762 1655.94 521.686C1646.89 524.29 1631.61 524.969 1623.91 522.931L1617.8 521.347L1615.08 526.44C1611.23 533.797 1608.63 536.966 1597.77 548.058C1584.3 561.753 1570.37 572.732 1550.79 585.408C1536.42 594.576 1527.48 599.782 1524.53 600.688C1523.06 601.141 1521.93 601.933 1521.93 602.386C1521.93 602.838 1519.21 604.083 1516.05 605.215C1512.76 606.347 1509.03 607.705 1507.78 608.271C1502.8 610.422 1490.47 611.553 1461.94 612.233C1431.38 613.025 1418.14 612.119 1410.44 608.724C1408.63 607.932 1404.78 606.46 1402.07 605.442C1395.62 602.952 1388.94 598.198 1383.28 592.086C1377.51 585.861 1375.02 582.239 1370.6 573.071C1363.47 558.244 1360.76 545.568 1359.4 520.441C1358.72 506.52 1360.3 481.507 1362.11 478.677C1362.45 477.998 1362.91 476.979 1363.13 476.3C1364.04 471.886 1368.34 458.078 1369.02 457.059C1369.58 456.493 1370.83 453.098 1371.96 449.702C1378.3 430.009 1390.75 411.107 1411.01 390.734C1419.39 382.246 1429.35 373.304 1433.08 370.927L1439.87 366.626L1436.48 365.268C1434.55 364.476 1432.51 363.797 1431.84 363.684C1429.01 363.57 1414.86 352.026 1409.31 345.461C1395.28 328.484 1382.94 305.508 1378.75 288.417C1377.62 284.116 1376.37 279.929 1375.81 279.249C1374.11 277.099 1371.39 258.311 1371.39 248.237C1371.39 238.504 1374.22 218.131 1375.92 215.98C1376.37 215.414 1377.39 212.811 1378.19 210.321C1380.11 204.096 1386.56 191.533 1392.67 182.026C1399.8 171.16 1425.04 146.26 1437.38 137.771C1449.27 129.735 1456.28 125.547 1463.07 122.492C1465.9 121.247 1470.21 119.209 1472.7 118.077C1486.5 111.626 1518.88 107.438 1535.4 110.041C1549.44 112.192 1568.79 120.228 1581.24 128.943C1592.67 136.866 1609.99 159.955 1613.5 171.839C1614.29 174.329 1615.54 177.611 1616.22 179.083C1617.01 180.781 1617.57 187.006 1617.57 194.928C1617.46 208.963 1616.1 213.604 1608.52 225.601C1605.01 231.147 1605.01 231.713 1608.29 229.675C1609.65 228.77 1613.84 227.185 1617.57 226.167C1621.31 225.148 1624.93 223.903 1625.5 223.337C1626.18 222.884 1630.48 221.639 1635.12 220.508C1639.76 219.489 1644.74 218.131 1646.21 217.565C1650.4 215.98 1662.73 216.433 1667.49 218.357C1674.62 221.3 1680.39 227.865 1680.39 233.184C1680.39 235.221 1682.43 236.466 1691.14 239.636C1709.14 246.087 1727.02 260.574 1742.53 281.174C1749.66 290.568 1768.22 327.126 1771.51 338.218C1772.64 341.953 1773.88 345.461 1774.45 346.027C1775.01 346.706 1775.47 348.404 1775.47 349.875C1775.47 352.252 1776.83 351.234 1785.09 342.971C1792.22 335.841 1796.86 332.219 1802.97 329.276C1807.5 327.012 1811.91 325.202 1812.93 325.202C1816.78 325.202 1832.97 316.147 1835.68 312.412C1843.49 301.999 1850.06 286.719 1852.32 273.703C1854.24 262.612 1854.02 237.598 1851.75 224.582C1850.74 218.584 1849.6 213.49 1849.15 213.151C1848.7 212.811 1847.68 210.321 1846.77 207.492C1843.49 196.626 1835.23 183.61 1825.27 173.537C1816.1 164.143 1798.56 150.334 1790.18 145.694C1788.03 144.562 1785.43 142.978 1784.52 142.298C1783.62 141.619 1779.54 139.922 1775.47 138.563C1771.39 137.205 1767.09 135.621 1765.85 135.055C1756.79 131.093 1725.55 134.942 1701.44 143.204C1680.84 150.221 1670.2 159.163 1665.56 173.537C1664.21 177.611 1662.73 181.46 1662.28 182.026C1661.83 182.705 1660.36 186.44 1659 190.514C1657.64 194.589 1655.6 199.682 1654.59 201.833C1652.66 205.681 1652.43 205.794 1645.98 205.794C1640.32 205.681 1639.08 205.341 1637.15 202.964C1632.51 197.192 1636.48 186.1 1649.04 169.575C1660.58 154.296 1687.64 129.396 1701.1 121.473C1703.71 120.002 1706.08 118.417 1706.42 118.077C1709.37 114.908 1737.89 104.269 1752.26 101.1C1796.63 91.0268 1820.85 98.4968 1858.55 133.923C1870.66 145.354 1877.9 156.673 1884.58 174.782C1891.94 194.928 1892.84 239.183 1886.28 258.99C1881.64 272.911 1871.9 289.775 1858.43 307.092C1847.68 321.014 1811.91 353.044 1802.63 357.232C1801.05 358.024 1799.58 358.817 1799.24 359.156C1798.9 359.496 1796.41 360.741 1793.58 361.873C1790.75 362.891 1787.01 364.589 1785.31 365.495C1783.5 366.4 1781.35 367.079 1780.45 367.079C1779.32 367.079 1778.86 368.664 1778.86 373.417V379.756L1785.99 372.512C1789.84 368.55 1794.48 364.363 1796.29 363.118C1810.89 353.044 1811.91 352.818 1820.06 358.93C1823.23 361.194 1829.57 365.721 1834.21 368.777C1843.72 375.228 1851.19 383.038 1856.06 391.753C1857.98 394.922 1859.79 397.638 1860.13 397.638C1860.58 397.638 1861.49 398.77 1862.17 400.242C1862.85 401.6 1865.9 406.806 1868.96 411.786C1875.75 422.652 1880.96 433.517 1882.99 441.214C1883.79 444.383 1884.92 447.439 1885.37 448.005C1885.82 448.684 1887.18 453.437 1888.31 458.757C1891.94 475.848 1890.69 509.463 1885.94 520.215C1885.14 522.252 1883.45 526.44 1882.31 529.496C1880.5 534.476 1877.9 539.343 1869.98 552.019C1861.94 564.809 1842.25 585.974 1831.49 593.444C1817.91 602.952 1802.41 610.648 1793.01 612.685C1789.28 613.478 1785.77 614.609 1785.09 614.949C1784.52 615.402 1782.15 616.194 1779.99 616.647C1771.28 618.344 1761.21 620.834 1759.06 621.74C1750.57 625.588 1711.52 627.399 1697.94 624.569ZM1500.99 573.637C1510.95 573.298 1520.91 572.505 1523.06 571.94C1525.21 571.374 1531.33 570.129 1536.65 569.11C1541.97 568.091 1548.3 566.054 1550.79 564.583C1553.28 563.111 1559.17 559.942 1563.81 557.565C1580.67 548.963 1591.88 540.022 1601.16 527.798L1607.84 518.97L1603.2 518.291C1600.6 517.838 1597.88 517.046 1597.2 516.593C1596.63 516.027 1594.03 515.009 1591.54 514.216C1583.73 511.726 1574.79 506.86 1559.96 497.013C1546.95 488.298 1528.84 470.528 1523.29 461.021C1521.71 458.191 1519.89 455.814 1519.44 455.588C1518.99 455.361 1518.54 454.796 1518.54 454.23C1518.54 453.664 1516.84 449.589 1514.69 444.949C1512.65 440.421 1510.27 433.63 1509.48 429.895C1508.69 426.16 1507.56 422.652 1506.99 421.973C1506.54 421.407 1506.09 419.822 1506.09 418.577C1506.09 417.219 1504.61 413.144 1502.8 409.409C1500.88 405.788 1498.84 401.26 1498.16 399.449L1496.92 396.167L1493.86 398.997C1489.22 403.411 1483.22 406.693 1479.94 406.693C1478.24 406.693 1473.83 404.656 1469.98 402.053C1462.85 397.299 1452.55 393.111 1448.02 393.111C1446.55 393.111 1444.97 392.658 1444.29 391.979C1442.59 390.282 1425.95 396.167 1421.08 400.242C1417.69 403.071 1410.9 415.861 1408.63 423.67C1407.84 426.5 1406.82 428.99 1406.37 429.33C1404.78 430.461 1399.35 454.116 1398.22 464.642C1396.63 479.696 1399.24 505.615 1404.11 523.271C1406.93 533.91 1414.86 548.398 1421.76 555.868C1425.84 560.282 1438.06 567.752 1444.4 569.676C1446.89 570.468 1449.49 571.374 1450.06 571.826C1453 573.637 1465.68 575.109 1473.83 574.769C1478.81 574.43 1491.03 573.977 1500.99 573.637ZM1689.9 469.509C1694.2 468.604 1698.05 467.472 1698.39 466.906C1698.73 466.34 1699.97 465.661 1700.99 465.208C1703.71 464.19 1717.4 444.722 1716.61 443.025C1716.5 442.798 1716.84 442.232 1717.4 441.893C1718.99 440.761 1726.68 421.973 1728.16 415.748C1728.83 412.692 1729.85 410.088 1730.42 410.088C1730.99 410.088 1731.1 409.523 1730.76 408.957C1730.31 408.278 1730.65 406.919 1731.44 406.014C1733.25 403.75 1734.27 372.965 1732.68 365.381C1725.33 330.634 1717.4 314.336 1698.61 295.661C1691.03 288.191 1686.73 284.909 1679.37 281.287C1674.17 278.683 1669.53 276.533 1668.96 276.533C1668.39 276.533 1665.34 275.288 1662.06 273.817C1658.77 272.345 1653.23 270.308 1649.83 269.403C1646.44 268.384 1641.57 266.913 1639.08 266.007C1636.59 265.102 1630.48 263.743 1625.5 262.951C1620.52 262.159 1615.65 261.253 1614.74 260.914C1612.14 260.008 1595.05 259.782 1593.8 260.687C1593.24 261.14 1590.3 262.272 1587.47 263.404C1576.15 267.478 1562.45 281.06 1552.27 298.038C1538.68 320.448 1535.51 327.352 1534.38 335.728C1532.8 348.291 1533.02 369.909 1535.06 381.227C1535.97 386.886 1536.87 392.206 1536.87 393.111C1536.99 394.017 1537.32 395.035 1537.66 395.375C1538 395.714 1540.38 398.997 1542.87 402.732C1550.79 414.503 1572.75 434.762 1587.35 443.704C1601.95 452.645 1607.39 455.701 1615.54 459.776C1620.52 462.379 1625.27 464.416 1626.06 464.416C1626.85 464.416 1629.01 465.208 1631.04 466.114C1641.23 470.981 1674.17 472.792 1689.9 469.509ZM1734.72 451.966C1736.76 449.476 1739.47 444.043 1740.95 439.969C1742.3 435.894 1743.78 432.272 1744.23 431.933C1744.57 431.48 1744.91 430.688 1744.91 430.009C1744.91 429.33 1742.87 431.82 1740.49 435.555C1738 439.29 1735.63 442.911 1735.06 443.477C1734.61 444.156 1733.14 446.081 1732 447.891C1730.87 449.702 1726.01 455.588 1721.25 460.907L1712.65 470.641L1721.82 463.624C1726.91 459.776 1732.68 454.569 1734.72 451.966ZM1492.39 348.744C1492.5 348.291 1491.48 348.744 1490.24 349.762C1488.65 351.234 1488.43 351.913 1489.45 352.592C1490.69 353.271 1492.16 351.347 1492.39 348.744ZM1495.33 329.276C1497.03 328.144 1498.73 326.22 1498.95 325.088C1499.29 323.957 1499.97 322.938 1500.43 322.938C1500.88 322.938 1501.56 321.806 1502.01 320.448C1503.03 316.26 1511.86 303.244 1520.46 293.171C1527.7 284.795 1549.66 264.875 1558.94 258.197C1560.98 256.726 1565.85 253.217 1569.81 250.275C1573.88 247.219 1577.62 244.842 1578.3 244.842C1578.86 244.842 1580 244.163 1580.67 243.371C1581.35 242.465 1585.2 240.088 1589.28 238.051C1593.69 235.787 1596.63 233.637 1596.63 232.505C1596.63 229.562 1594.37 216.094 1593.58 214.283C1593.24 213.377 1592.79 212.359 1592.67 212.019C1592.11 210.548 1590.41 206.36 1588.03 201.267C1579.2 182.139 1563.47 165.275 1546.72 156.899C1526.8 146.939 1518.76 144.336 1501.78 142.412C1491.94 141.28 1457.42 145.694 1453.45 148.524C1452.89 148.976 1449.15 150.561 1445.3 152.032C1441.34 153.39 1438.17 154.975 1438.17 155.541C1438.17 155.994 1437.04 156.786 1435.68 157.239C1429.12 159.276 1419.84 167.425 1415.54 174.669C1409.2 185.647 1403.77 210.321 1404.56 224.809C1405.24 235.9 1405.69 239.07 1406.6 240.881C1407.05 241.56 1407.95 245.295 1408.75 249.369C1414.63 278.57 1439.31 316.26 1458.55 325.428C1461.38 326.786 1463.87 328.144 1464.21 328.597C1467.15 332.332 1489.9 332.785 1495.33 329.276ZM1555.66 280.155C1559.06 276.193 1561.55 272.685 1561.21 272.458C1559.85 271.1 1552.49 279.363 1549.21 285.814C1547.29 289.775 1546.49 291.699 1547.62 290.115C1548.76 288.53 1552.38 284.116 1555.66 280.155Z"
    fill="black" />
  <path
    d="M1546.83 51.6395C1542.19 51.4132 1537.32 50.8473 1536.08 50.2814C1534.83 49.7154 1527.25 48.9232 1519.1 48.5836C1511.07 48.1309 1494.77 46.7727 1482.88 45.5277C1456.85 42.6981 1447.45 41.7927 1419.5 39.529C1407.73 38.6236 1393.92 37.2654 1388.94 36.5863C1383.96 36.0204 1369.92 34.4358 1357.81 33.1908C1345.7 31.8326 1333.25 30.3612 1330.08 29.7953C1327.03 29.2294 1317.18 28.4371 1308.35 27.9844C1296.35 27.4185 1292.16 26.8526 1292.16 25.7207C1292.16 24.1362 1293.86 23.7966 1307.44 21.8725C1312.42 21.0803 1317.52 20.0616 1318.76 19.6089C1321.71 18.3639 1336.87 16.3266 1353.28 15.0816C1360.42 14.5157 1374.9 13.0443 1385.54 11.7993C1396.07 10.4411 1411.12 9.0829 1418.93 8.74335C1426.74 8.40381 1435.12 7.61153 1437.61 7.04561C1440.1 6.59288 1465.56 5.34788 1494.2 4.32923C1522.84 3.42377 1556.45 2.06558 1568.9 1.2733C1600.14 -0.424435 1752.83 -0.424435 1764.71 1.2733C1769.69 2.06558 1780.9 3.42377 1789.62 4.32923C1798.33 5.34788 1807.05 6.59288 1808.86 7.1588C1815.2 9.0829 1852.89 11.7993 1888.09 12.8179C1907.44 13.497 1927.59 14.4025 1932.91 15.0816C1944.34 16.4398 1954.75 19.7221 1955.21 22.0989C1955.43 23.4571 1953.17 23.9098 1941.62 24.4757C1928.27 25.1548 1918.99 26.7394 1899.41 31.8326C1894.43 33.0776 1887.52 34.4358 1884.13 34.8885C1880.73 35.3413 1877.45 36.1335 1876.77 36.5863C1874.84 38.0576 1849.38 41.1136 1826.97 42.4718C1815.2 43.264 1788.14 43.9431 1766.98 44.0563C1738.46 44.1695 1724.53 44.7354 1713.21 46.2068C1703.03 47.4518 1686.28 48.2441 1662.85 48.5836C1643.61 48.9232 1626.74 49.6023 1625.5 50.1682C1623.23 51.0736 1562.9 52.2055 1546.83 51.6395Z"
    fill="black" />
  <path
    d="M1414.82 1144.85C1407.45 1131.35 1393.78 1118.53 1379.85 1111.97C1353.72 1099.67 1325.92 1089.6 1297.78 1083.08C1217.01 1064.39 1135.62 1048.36 1054.72 1030.19C1040.49 1027 1024.02 1026.31 1009.74 1010.4C1105.32 957.322 1206.18 934.056 1310.37 922.197C1312.16 924.859 1313.96 927.517 1315.76 930.178C1310.79 933.098 1304.81 935.067 1301.03 939.099C1283.15 958.158 1264.98 977.063 1248.71 997.466C1238.93 1009.73 1242.34 1022.02 1254.07 1030.28C1282.8 1050.52 1329.93 1047.96 1353.51 1022.35C1383.39 989.885 1412 956.172 1439.83 921.915C1456.89 900.914 1453.85 872.349 1435.01 852.843C1415.38 832.521 1390.05 829.812 1364.72 834.413C1314.66 843.509 1264.96 854.614 1215.24 865.494C1151.22 879.503 1088.3 897.342 1028.35 924.2C1000.5 936.68 972.633 949.721 953.403 975.131C925.137 1012.48 933.336 1055.45 976.265 1073.95C1010.69 1088.78 1047.54 1098.67 1084.04 1107.81C1156.91 1126.04 1230.3 1142.18 1303.41 1159.48C1307.6 1160.47 1311.18 1164.05 1315.05 1166.43C1312.1 1169.72 1309.77 1174.21 1306.1 1176.14C1225.07 1218.69 1144.27 1261.69 1062.56 1302.87C1034.28 1317.12 1003.67 1326.73 974.125 1338.46C972.515 1337.08 970.906 1335.7 969.296 1334.32C970.775 1328.08 970.896 1321.07 973.957 1315.74C991.756 1284.74 1009.41 1253.58 1028.81 1223.58C1041.59 1203.81 1054.38 1184.48 1056.12 1160.37C1057.65 1139.07 1044.69 1125.36 1023.53 1124.22C994.017 1122.63 973.97 1139.49 956.988 1160.07C921.518 1203.07 900.204 1253.56 885.473 1306.63C880.238 1325.5 878.642 1345.93 878.827 1365.61C879.179 1402.77 902.187 1424.42 939.431 1426.08C969.276 1427.42 997.166 1419.57 1023.95 1407.59C1123.13 1363.25 1219.87 1314.09 1313.59 1259.14C1340.76 1243.21 1367.32 1226.13 1393.25 1208.26C1418.6 1190.79 1427.46 1167.99 1414.82 1144.85Z"
    fill="black" />
  <path
    d="M826.849 1048.9C804.134 1057.28 781.305 1065.36 758.389 1073.18C746.722 1077.16 734.753 1080.27 718.675 1085.02C722.707 1075.68 724.575 1070.36 727.193 1065.43C744.242 1033.34 762.29 1001.74 778.247 969.114C785.623 954.033 797.044 947.639 811.88 945.169C859.991 937.155 908.367 934.712 957.124 937.713C963.374 938.096 973.528 933.623 975.84 928.613C983.246 912.562 990.03 895.576 992.984 878.258C997.94 849.182 983.444 838.587 955.37 847.438C939.708 852.377 923.727 856.598 907.625 859.8C878.126 865.667 848.21 869.575 818.896 876.205C802.071 880.008 788.452 878.651 771.917 871.47C737.683 856.608 719.195 865.069 711.507 898.126C706.575 919.326 701.255 940.71 693.218 960.858C678.51 997.722 662.19 1033.98 645.473 1069.99C638.01 1086.07 627.933 1100.93 619.109 1116.38C616.437 1121.06 613.571 1125.7 611.569 1130.66C609.976 1134.61 610.51 1139.57 608.494 1143.17C570.013 1211.94 541.751 1286.49 490.81 1348.25C474.429 1368.11 478.66 1388.38 499.778 1403.47C506.721 1408.42 515.05 1411.76 523.165 1414.68C535.417 1419.09 545.158 1414.31 554.966 1406.18C566.297 1396.79 578.367 1386.78 591.868 1381.82C620.903 1371.16 650.638 1361.46 680.883 1355.26C714.891 1348.29 749.807 1345.8 784.259 1340.88C790.179 1340.03 797.417 1338.26 801.14 1334.24C809.618 1325.07 818.25 1315.1 823.227 1303.87C830.317 1287.86 831.1 1270.48 818.741 1255.75C806.786 1241.51 791.735 1245.95 777.071 1250.52C728.987 1265.5 680.933 1280.58 632.835 1295.52C623.867 1298.3 614.737 1300.56 601.982 1304.08C604.67 1296.67 605.453 1293.43 606.948 1290.57C622.866 1260.07 638.252 1229.26 655.275 1199.38C660.506 1190.2 668.92 1180.53 678.235 1176.37C729.468 1153.53 782.438 1136.41 839.588 1138.55C851.241 1138.99 859.164 1134.28 861.631 1123.94C865.3 1108.54 868.647 1092.66 868.878 1076.95C869.322 1046.86 855.344 1038.38 826.849 1048.9Z"
    fill="black" />
  <path
    d="M668.847 974.49C675.567 969.346 680.315 958.587 681.474 949.823C684.233 928.923 676.145 911.537 657.147 900.939C637.678 890.079 618.188 892.307 601.337 905.902C584.775 919.266 568.952 933.809 554.362 949.299C510.424 995.949 467.568 1043.62 423.62 1090.26C403.812 1111.28 382.421 1130.82 361.745 1151.03C360.67 1150.63 359.595 1150.23 358.52 1149.82C359.931 1145.59 360.868 1141.12 362.821 1137.15C407.35 1046.64 455.888 958.395 512.211 874.579C514.547 871.101 516.368 866.823 516.953 862.707C519.429 845.338 505.209 816.894 490.437 809.263C471.298 799.377 455.76 808.326 440.905 819.424C437.051 822.304 433.529 825.826 430.492 829.569C416.137 847.253 402.444 865.493 387.716 882.858C265.614 1026.86 146.293 1173.03 38.6397 1328.34C26.7782 1345.45 14.3555 1362.28 3.93895 1380.24C-4.03814 1394 0.60567 1410.21 13.3206 1417.22C32.0705 1427.57 52.4366 1431.25 73.7604 1427.89C86.7374 1425.84 95.3899 1418.83 100.504 1406.21C105.585 1393.68 112.416 1381.85 118.599 1369.78C166.105 1276.98 227.378 1193.27 290.079 1110.51C294.706 1104.41 300.099 1098.88 305.136 1093.08C306.262 1093.85 307.391 1094.62 308.517 1095.39C305.244 1102.58 302.149 1109.85 298.671 1116.93C272.445 1170.4 245.819 1223.67 220.013 1277.33C208.971 1300.3 217.624 1324.43 240.177 1334.99C257.801 1343.25 274.411 1339.77 288.513 1326.46C325.6 1291.45 362.491 1256.23 399.504 1221.15C403.825 1217.06 408.432 1213.26 413.439 1208.86C414.611 1211.86 415.492 1213.01 415.206 1213.54C412.048 1219.51 408.791 1225.42 405.404 1231.27C371.409 1289.92 336.762 1348.22 312.199 1411.78C305.106 1430.13 308.016 1439.66 325.929 1448.19C345.791 1457.66 366.846 1456.96 387.071 1451.17C393.751 1449.26 400.549 1440.44 403.267 1433.26C416.94 1397.13 426.637 1359.3 442.608 1324.29C483.129 1235.47 534.113 1152.36 589.177 1071.89C612.856 1037.28 634.482 1000.8 668.847 974.49Z"
    fill="black" />
  <path
    d="M1859.73 1234.44C1859.67 1234.49 1859.62 1234.55 1859.55 1234.58C1859.49 1234.62 1859.39 1234.59 1859.3 1234.59C1859.45 1234.54 1859.59 1234.49 1859.73 1234.44ZM1867.24 1227.77C1867.03 1228.25 1866.81 1228.73 1866.5 1229.18C1866.42 1228.93 1866.34 1228.68 1866.26 1228.42C1866.59 1228.21 1866.91 1227.99 1867.24 1227.77ZM1869.62 1226.16C1870.24 1225.74 1870.86 1225.32 1871.48 1224.9C1871.36 1225.9 1871.12 1226.83 1869.46 1226.8C1869.47 1226.54 1869.56 1226.36 1869.62 1226.16ZM1871.65 1236.64C1871.17 1235.62 1870.87 1234.62 1871.95 1233.56C1872.69 1234.87 1871.68 1235.69 1871.65 1236.64ZM1873.13 1223.79C1873.16 1223.87 1873.19 1223.95 1873.21 1224.04C1873.47 1224.1 1873.73 1224.11 1874 1224.09C1874.08 1223.67 1874.17 1223.26 1874.36 1222.96C1874.56 1222.82 1874.76 1222.69 1874.95 1222.56C1875.14 1222.53 1875.36 1222.53 1875.66 1222.61C1875.1 1223.11 1874.55 1223.6 1874 1224.1L1873.2 1224.05C1873.06 1224.04 1872.92 1224.03 1872.78 1224.02C1872.9 1223.94 1873.01 1223.87 1873.13 1223.79ZM1873.06 1227.01L1873.33 1226.9L1873.32 1227.22L1873.06 1227.01ZM1875.63 1236.9C1874.18 1237.23 1874.32 1238.19 1874.71 1239.24L1874.69 1239.22C1875.13 1241.19 1875.08 1241.23 1873.04 1240.69L1872.99 1240.75C1872.96 1241.13 1872.99 1241.54 1872.9 1241.91C1872.38 1243.91 1870.87 1243.22 1869.74 1242.85C1868.82 1242.55 1869.41 1241.86 1869.77 1241.35C1869.87 1241.43 1869.97 1241.51 1870.07 1241.58C1869.98 1241.49 1869.89 1241.4 1869.79 1241.31L1869.76 1241.35C1870.39 1239.79 1871.03 1238.24 1871.66 1236.68C1872.97 1236.99 1874.41 1234.92 1875.63 1236.9ZM1875.61 1243.81C1875.55 1243.77 1875.47 1243.71 1875.4 1243.65C1875.47 1243.59 1875.53 1243.48 1875.61 1243.48C1875.68 1243.48 1875.76 1243.58 1875.83 1243.63C1875.76 1243.69 1875.69 1243.75 1875.61 1243.81ZM1885.15 1215.53C1884.53 1216.28 1883.97 1216.75 1883.35 1216.82C1883.96 1216.4 1884.54 1215.96 1885.15 1215.53ZM1890.11 1211.98C1890.61 1212.52 1891.05 1213.1 1891.55 1213.62C1890.42 1214.78 1889.62 1213.91 1888.82 1213.67C1888.52 1213.57 1888.24 1213.52 1887.98 1213.5C1888.7 1213 1889.4 1212.49 1890.11 1211.98ZM1893.59 1209.49C1895.47 1209.55 1897.14 1211.06 1899.25 1211.13C1897.81 1212.13 1896.61 1211.87 1895.48 1211.63C1894.44 1211.41 1893.7 1211.7 1893.07 1212.47C1892.71 1211.86 1892.35 1211.25 1891.99 1210.64C1892.52 1210.25 1893.06 1209.87 1893.59 1209.49ZM1901.2 1204.05C1901.8 1204.32 1901.96 1205.13 1902.22 1205.86C1901.16 1205.79 1900.1 1205.73 1899.05 1205.66C1899.03 1205.65 1899.02 1205.63 1899.01 1205.62C1899.73 1205.09 1900.48 1204.58 1901.2 1204.05ZM1900.35 1208.2L1899.82 1207.36C1900.1 1207.57 1900.85 1207.45 1900.35 1208.2ZM1903 1206.75C1903.27 1207.15 1903.59 1207.54 1903.79 1207.97C1903.99 1208.39 1904.21 1209.02 1903.53 1209.14C1902.95 1209.24 1902.71 1208.61 1902.7 1208.13C1902.7 1207.67 1902.89 1207.21 1903 1206.75ZM1904.35 1203.03L1904.5 1203.31L1904.23 1203.33L1904.35 1203.03ZM1923.01 1175.19C1923.06 1175.5 1923.13 1175.8 1923.2 1176.12C1923.2 1176.12 1923.16 1176.08 1923.16 1176.07L1923.15 1176.07C1923.17 1176.08 1923.18 1176.1 1923.2 1176.12C1922.98 1176.25 1922.87 1176.39 1922.7 1176.53C1922.83 1176.09 1922.9 1175.64 1923.01 1175.19ZM1885.45 1243.9C1885.45 1243.9 1885.15 1243.94 1885.15 1243.94L1884.86 1243.82C1885.06 1243.84 1885.26 1243.87 1885.45 1243.9ZM1885.57 1243.84C1885.51 1243.87 1885.45 1243.9 1885.45 1243.9L1885.57 1243.84ZM1867.22 834.535C1817.66 843.641 1768.43 854.602 1719.19 865.375C1655.18 879.38 1592.25 897.139 1532.29 924C1503.97 936.685 1475.72 949.9 1456.25 975.791C1428.75 1012.35 1437.21 1055.85 1479.17 1073.75C1513.66 1088.46 1550.41 1098.56 1586.91 1107.71C1659.76 1125.96 1733.14 1142.08 1806.22 1159.42C1810.71 1160.49 1814.5 1164.54 1818.61 1167.2C1815.41 1170.37 1812.76 1174.56 1808.94 1176.56C1728.35 1218.85 1647.99 1261.63 1566.71 1302.58C1538.02 1317.03 1507.01 1326.89 1477.06 1338.84C1475.72 1337.73 1474.39 1336.62 1473.06 1335.5C1474.19 1329.34 1473.78 1322.29 1476.72 1317.16C1494.97 1285.3 1513.19 1253.38 1532.98 1222.49C1546.23 1201.82 1559.33 1181.59 1559.59 1156.1C1559.76 1139.37 1547.99 1125.46 1531.36 1124.99C1520.14 1124.66 1508.05 1126.41 1497.66 1130.54C1474.2 1139.88 1458.81 1159.2 1445.39 1179.58C1420.16 1217.88 1401.32 1259.47 1389.56 1303.64C1384.03 1324.42 1382.12 1346.8 1382.52 1368.38C1383.15 1402.8 1405.49 1423.56 1439.74 1425.9C1470.1 1427.97 1498.65 1420.43 1525.88 1408.28C1575.91 1385.95 1625.31 1362.37 1674.03 1337.46C1674.13 1340.06 1674.3 1342.65 1674.96 1345.19C1675.94 1348.94 1676.06 1428.24 1675.97 1432.07C1675.91 1434.76 1676.41 1437.3 1677.17 1439.86C1678.45 1444.18 1678.79 1448.51 1678.21 1453.11C1677.12 1461.86 1675.85 1470.62 1677.57 1479.53C1678.27 1483.18 1678.08 1487.13 1677.22 1490.9C1676.61 1493.54 1677.17 1496.16 1677.37 1498.79C1677.71 1503.13 1677.78 1507.48 1678.65 1511.78C1679.93 1518.18 1683.77 1522.25 1689.56 1524.95C1696.21 1528.06 1705 1523.82 1707.83 1518.06C1711.57 1510.46 1709.78 1503.56 1706.61 1496.6C1705.06 1493.2 1703.36 1489.87 1704.21 1486C1705.66 1479.39 1705.4 1472.59 1706.35 1465.94C1707.49 1457.91 1706.66 1449.96 1706.29 1441.95C1706.02 1435.99 1705.74 1430.11 1704.15 1424.32C1703.85 1423.21 1703.92 1346.46 1704.06 1345.3C1704.84 1338.57 1704.51 1331.91 1702.7 1325.37C1702.32 1324 1702.58 1323.08 1703.59 1322.23L1703.61 1322.26C1703.59 1322.21 1703.58 1322.15 1703.56 1322.1C1713.63 1316.81 1723.66 1311.44 1733.67 1306.02C1733.72 1306.05 1733.7 1306.15 1733.78 1306.16C1734.2 1306.17 1734.47 1305.88 1734.6 1305.52C1743.45 1300.73 1752.28 1295.89 1761.09 1291C1761.71 1291.35 1762.08 1292.08 1762.53 1293C1763.4 1294.81 1764.07 1293.42 1764.51 1292.4C1765.48 1291.94 1766.08 1291.21 1766.22 1290.13L1766.23 1290.14C1766.26 1290.11 1766.29 1290.08 1766.33 1290.04C1766.29 1290.07 1766.25 1290.1 1766.22 1290.13C1766.06 1289.78 1765.82 1289.39 1766.29 1289.15C1766.45 1289.07 1766.76 1289.28 1767 1289.36L1767.01 1289.37C1766.78 1289.59 1766.55 1289.82 1766.33 1290.04C1766.58 1289.83 1766.84 1289.62 1767.1 1289.41C1767.87 1288.15 1768.08 1287.66 1767.61 1287.36C1768.5 1286.87 1769.39 1286.38 1770.28 1285.88C1770.89 1285.93 1771.57 1285.77 1772.12 1285.93C1772.48 1287.21 1771.17 1287.76 1771.05 1288.77C1770.76 1288.93 1770.47 1289.08 1770.18 1289.24C1770.76 1289.8 1770.83 1289.04 1771.13 1288.87C1771.89 1288.82 1772.47 1288.96 1772.27 1289.92C1772.05 1290.95 1771.33 1291.42 1770.34 1291.65C1769.23 1291.91 1769.3 1292.7 1769.73 1293.48C1771.01 1295.77 1771.23 1297.68 1769.48 1299.47C1768.04 1300.95 1767.77 1302.51 1768.28 1304.09C1769.09 1306.58 1768.41 1308.69 1767.4 1310.85L1767.39 1310.86C1766.72 1311.47 1765.63 1311.49 1765.05 1312.58C1766.02 1313.4 1768.03 1312.12 1768.36 1313.74C1768.77 1315.65 1769.44 1317.65 1768.99 1319.6C1768.48 1321.84 1768.29 1321.81 1768.67 1322.72C1769.14 1323.87 1769.16 1325.12 1768.98 1326.24C1768.54 1328.96 1769.34 1331.43 1769.97 1333.99C1771.57 1340.43 1771.64 1347.04 1771.92 1353.63C1771.97 1354.81 1771.75 1356.07 1772.07 1357.17C1773.93 1363.47 1773.52 1369.97 1774.03 1376.39C1774.17 1378.26 1773.97 1380.05 1773.71 1381.89C1772.95 1387.14 1772.64 1392.4 1774.33 1397.58C1774.84 1399.12 1774.72 1400.73 1774.55 1402.3C1774.14 1406.23 1775.77 1409.32 1778.66 1411.7C1785.44 1417.28 1792.17 1417.66 1799.7 1413.63C1803.7 1411.49 1805.72 1405.82 1805.14 1401.27C1804.41 1395.49 1802.66 1389.96 1801.3 1384.34C1801.01 1383.14 1800.96 1381.99 1801.26 1380.82C1802.42 1376.3 1802.21 1371.64 1802.46 1367.04C1802.56 1364.98 1802.11 1362.78 1801.39 1360.83C1800.25 1357.76 1800.1 1354.67 1800.22 1351.48C1800.5 1343.71 1800.12 1335.96 1799.47 1328.21C1799.38 1327.03 1799.32 1325.83 1799.43 1324.65C1799.67 1322.26 1799.7 1319.95 1798.87 1317.62C1798.47 1316.47 1798.17 1315.11 1799.47 1314.02C1801.45 1312.36 1799.29 1312.39 1798.51 1311.87C1798.16 1308.82 1798 1305.84 1800.97 1303.77C1801.48 1303.42 1801.48 1302.96 1801.07 1302.42C1799.75 1300.69 1801.22 1300.53 1802.35 1300.18C1801.05 1298.51 1801.99 1296.96 1802.65 1295.4L1802.68 1295.44C1802.69 1295.43 1802.7 1295.42 1802.71 1295.41C1802.69 1295.41 1802.67 1295.41 1802.65 1295.4C1802.59 1295.31 1802.5 1295.21 1802.49 1295.11C1802.22 1293.17 1803.46 1285.54 1804.32 1283.74C1804.22 1283.64 1804.13 1283.54 1804.03 1283.44C1802.49 1281.06 1802.97 1278.21 1805.3 1276.89C1806.44 1276.24 1807.79 1275.95 1808.05 1274.39C1807.92 1274.3 1807.78 1274.21 1807.63 1274.14C1806.45 1274.26 1805.46 1272.97 1804.06 1273.81C1803.56 1274.12 1803.38 1272.97 1803.21 1272.4L1803.24 1272.44C1802.96 1271.85 1802.67 1271.28 1802.43 1270.68C1801.93 1269.44 1801.63 1268.65 1801.58 1268.08C1805.53 1265.8 1809.48 1263.54 1813.42 1261.25C1814.2 1261.38 1814.97 1261.57 1815.73 1261.88C1816.87 1262.33 1817.95 1261.98 1818.19 1260.72C1818.36 1259.84 1818.07 1259.23 1817.51 1258.89C1818.13 1258.53 1818.75 1258.18 1819.36 1257.82C1821.21 1256.74 1823.02 1255.59 1824.86 1254.5C1824.85 1257.08 1824.75 1259.66 1825.49 1262.21C1825.92 1263.7 1826.57 1264.38 1827.62 1265.1C1827.04 1265.57 1825.91 1266.44 1827.1 1266.73C1830.24 1267.48 1832.24 1269.82 1834.75 1271.42C1836.14 1272.31 1836.81 1272.84 1838.68 1271.45C1840.18 1270.35 1842.79 1269.86 1844.97 1269.27C1845.03 1269.17 1845.09 1269.05 1845.19 1268.99C1850.66 1265.66 1852.09 1260.57 1851.54 1254.61C1851.49 1254.09 1851.54 1253.55 1851.54 1253.03L1851.5 1252.95C1850.73 1251.36 1851.04 1250.32 1852.89 1249.83C1854.11 1249.5 1855.93 1249.85 1855.86 1247.69C1856.04 1247.42 1856.3 1247.17 1856.36 1246.87C1856.42 1246.63 1856.04 1246.47 1855.92 1246.67C1855.77 1246.93 1855.82 1247.31 1855.78 1247.63C1854.71 1247.55 1853.8 1247.93 1852.82 1248.38C1851.25 1249.09 1849.93 1248.26 1850.37 1246.67C1850.93 1244.62 1849.33 1242.81 1850.29 1240.86C1850.74 1239.95 1851.11 1238.98 1851.5 1238.04C1852.73 1237.25 1853.97 1236.47 1855.21 1235.67C1855.84 1235.78 1856.47 1235.93 1857.08 1236.27C1858.18 1236.89 1859.41 1236.9 1860.37 1236.07C1861.26 1235.31 1860.59 1234.77 1859.84 1234.4C1861.17 1233.58 1862.46 1232.68 1863.84 1231.97C1865.06 1231.34 1865.96 1230.5 1866.49 1229.25C1867.44 1229.91 1868.17 1230.94 1869.45 1231.09C1869.51 1231.3 1869.54 1231.52 1869.56 1231.75C1869.83 1231.51 1870.09 1231.28 1870.36 1231.04C1870.37 1231.05 1870.39 1231.03 1870.4 1231.04C1871.1 1232.8 1870.08 1233.57 1868.63 1234.11C1869.39 1236.17 1870.53 1238.22 1868.63 1240.3C1868.09 1240.9 1867.47 1241.61 1866.67 1240.97C1864.95 1239.59 1863.86 1241.02 1862.59 1241.69C1862.78 1242.51 1863.19 1243.14 1864.05 1243.38C1862.92 1244.64 1863.49 1246.2 1862.74 1248.15C1867.72 1243.55 1868.82 1243.38 1871.9 1246.22L1871.89 1246.22C1870.53 1247.2 1870.88 1248.84 1870.59 1250.15C1870.36 1251.14 1869.78 1251.25 1869.2 1251.62C1869.17 1253.53 1870.21 1253.5 1871.39 1252.66C1873.43 1251.22 1875.38 1249.65 1877.37 1248.13C1877.38 1248.14 1877.38 1248.14 1877.39 1248.15C1877.39 1248.14 1877.38 1248.13 1877.38 1248.12L1877.37 1248.13C1877.1 1246.8 1876.35 1246.4 1875.11 1247.01C1874.55 1247.29 1873.99 1247.57 1873.43 1247.85C1873.85 1246.41 1874.63 1245.42 1876.31 1245.36C1877.63 1245.31 1878.83 1244.98 1879.25 1243.49C1881.58 1244.45 1880.73 1241.32 1882.26 1241.27C1882.85 1242.27 1884.57 1242.27 1884.8 1243.77C1883.77 1243.88 1883.72 1244.53 1883.94 1245.31C1884.43 1245.43 1884.91 1245.56 1885.4 1245.66C1885.94 1245.78 1886.47 1245.64 1886.67 1245.1C1886.96 1244.31 1886.36 1244 1885.74 1243.76C1886.01 1243.01 1886.26 1242.26 1886.53 1241.51C1885.31 1241.12 1884.95 1240.07 1885.25 1239.09C1885.66 1237.74 1884.66 1237.22 1884.11 1236.42C1883.67 1235.77 1883.11 1235.08 1882.22 1235.61C1881.05 1236.3 1882.09 1236.78 1882.41 1237.42C1883.15 1238.86 1882.29 1240.05 1880.5 1240.06C1879.9 1240.06 1879.3 1239.68 1878.7 1239.46C1879.54 1237.99 1880.54 1236.49 1878.13 1235.47C1877.86 1235.69 1878.26 1236.33 1877.6 1236.31C1877.77 1236.03 1877.94 1235.74 1878.11 1235.45C1876.93 1233.09 1880.29 1232.81 1880.26 1230.95C1877.71 1230.85 1877.71 1230.85 1874.73 1233.61C1872.69 1231.48 1875.06 1229.91 1875.38 1228.13L1875.35 1228.16C1876.55 1226.44 1875.95 1224.37 1876.43 1222.52C1876.18 1222.54 1875.93 1222.57 1875.69 1222.59C1875.66 1222.41 1875.57 1222.33 1875.52 1222.17C1876.92 1221.22 1878.34 1220.29 1879.73 1219.33C1879.72 1219.67 1879.48 1220.1 1878.74 1220.71C1878.35 1221.03 1878.97 1221.89 1879.71 1222.11C1880.42 1222.32 1880.34 1222.8 1880.1 1223.34C1879.88 1223.84 1877.99 1223.71 1879.38 1224.72C1880.27 1225.37 1881.48 1225.05 1881.85 1223.71C1882.1 1222.83 1882.26 1221.92 1882.38 1221.02C1882.48 1220.35 1882.61 1219.72 1883.22 1219.33C1883.78 1218.98 1884.38 1218.58 1885.04 1219.02C1885.57 1219.38 1885.45 1219.91 1885.29 1220.43C1885.12 1220.92 1884.91 1221.44 1884.94 1221.93C1884.98 1222.68 1885.52 1223.09 1886.27 1223.07C1886.92 1223.05 1887.22 1222.63 1887.15 1222.02C1886.74 1218.9 1889.7 1218 1891.2 1216.23C1892.01 1215.27 1893.61 1216.59 1894.99 1216.46C1894.47 1217.85 1892.76 1216.85 1892.32 1218.49C1894.93 1218.22 1897.4 1218.63 1899.85 1219.22C1900.18 1216.56 1902.75 1218.64 1904.14 1217.07C1901.36 1216.78 1900.26 1214.14 1897.81 1213.57C1898.13 1213.98 1898.48 1214.38 1898.75 1214.82C1899.11 1215.4 1899.38 1216.15 1898.63 1216.52C1897.96 1216.85 1897.35 1216.29 1896.97 1215.76C1896.22 1214.7 1896.99 1214.1 1897.79 1213.55C1898.52 1213.25 1899.27 1212.98 1899.99 1212.63C1903.2 1211.06 1903.19 1211.06 1904.09 1215C1906.26 1212.73 1904.44 1209.8 1905.73 1207.61C1906.6 1208.27 1906.63 1209.19 1906.79 1210.06C1907.88 1208.67 1909.44 1207.44 1908.22 1205.32C1907.84 1204.66 1908.22 1204.11 1908.75 1203.63C1909.59 1202.86 1909.59 1201.78 1909.74 1200.76C1911.92 1202.72 1911 1205.18 1910.61 1207.41C1910.24 1209.43 1909.52 1211.34 1911.33 1212.89C1910.09 1214.22 1909.2 1212.26 1908.22 1213.07C1907.96 1213.46 1908.07 1213.82 1908.37 1214.13C1909.16 1214.97 1910.25 1214.98 1911.29 1215.13L1911.27 1215.15C1911.28 1215.15 1911.29 1215.14 1911.3 1215.14C1911.3 1215.14 1911.29 1215.13 1911.29 1215.13C1912.21 1213.77 1913.83 1214 1915.17 1213.49C1915.31 1211.83 1913.44 1212.13 1912.81 1210.88C1914.32 1210.07 1915.72 1209 1915.72 1207.04C1914.49 1206.37 1914.17 1208.01 1912.95 1207.71C1912.24 1206.66 1912.77 1205.35 1912.73 1204.1L1912.74 1204.09C1913.52 1204.14 1914.3 1204.18 1915.08 1204.23C1913.47 1202.73 1911.76 1201.69 1911.38 1199.25C1911.22 1198.2 1909.82 1197.81 1908.54 1198.07C1909.17 1197.48 1909.78 1196.89 1910.38 1196.3C1910.92 1196.5 1911.22 1195.73 1911.61 1195.41C1911.84 1195.22 1911.98 1194.96 1912.03 1194.61C1912.9 1193.68 1913.7 1192.73 1914.47 1191.79C1915.08 1191.87 1915.83 1192.04 1916.01 1191.34C1916.18 1190.66 1915.87 1190.57 1915.48 1190.58C1918.35 1186.82 1920.47 1182.92 1921.9 1178.9C1922.05 1179.33 1922.3 1179.79 1922.69 1180.29C1923.68 1179.18 1923.5 1177.95 1923.91 1176.93L1923.95 1176.97C1923.94 1176.96 1923.93 1176.94 1923.92 1176.93C1924.79 1176.6 1925.67 1176.23 1924.99 1175.05C1924.49 1174.16 1924.31 1173.2 1924.19 1172.21C1923.91 1172.38 1923.74 1172.57 1923.56 1172.76C1923.68 1172.07 1923.73 1171.37 1923.81 1170.67C1923.97 1171.16 1924.12 1171.64 1924.2 1172.13C1925.83 1169.16 1925.85 1168.86 1924.03 1167.62C1924.25 1160.41 1922.44 1152.84 1918.51 1144.98C1913 1133.94 1903.11 1122.22 1892.26 1117.28C1862.86 1103.9 1832.66 1090.76 1801.4 1083.31C1720.76 1064.1 1639.34 1048.22 1558.35 1030.47C1543.87 1027.3 1529.96 1021.55 1515.78 1016.99C1515.9 1014.36 1516.01 1011.73 1516.13 1009.11C1608.41 956.567 1709.68 934.635 1813.68 922.038C1814.48 923.963 1815.28 925.885 1816.08 927.811C1810.51 933.069 1804.56 937.992 1799.44 943.657C1783.23 961.601 1766.42 979.127 1751.62 998.193C1742.68 1009.72 1746.17 1022.22 1756.98 1030.08C1784.86 1050.35 1833.34 1047.92 1856.5 1022.72C1886.35 990.229 1915.02 956.584 1942.87 922.347C1960.23 901.013 1957.62 873.066 1938.77 853.261C1918.9 832.388 1893.13 829.774 1867.22 834.535Z"
    fill="black" />
  <path
    d="M954.171 332.329C909.134 348.878 856.944 366.29 807.031 382.923C832.925 357.053 856.204 334.312 870.714 319.917C908.449 282.292 946.442 244.077 984.748 206.836C976.845 243.946 965.747 288.099 954.171 332.329ZM599.677 597.011C599.499 596.92 599.543 596.779 599.6 596.642C599.815 596.719 600.037 596.803 600.252 596.877C600.138 597.136 599.869 597.109 599.677 597.011ZM593.061 594.293C593.071 594.367 593.068 594.444 593.068 594.518C593.024 594.461 592.971 594.404 592.934 594.337C592.897 594.269 592.866 594.185 592.873 594.121C592.93 594.142 592.987 594.162 593.041 594.185C593.048 594.222 593.058 594.263 593.061 594.293ZM557.117 574.706C556.835 574.424 557.316 574.011 557.027 573.765C557.248 573.954 557.494 574.135 557.722 574.327C557.48 574.353 557.352 574.696 557.117 574.706ZM601.586 601.336C601.559 601.329 601.532 601.329 601.512 601.316C601.495 601.302 601.485 601.285 601.472 601.272C601.509 601.292 601.546 601.312 601.586 601.336ZM1084.94 283.596C1071.96 286.785 1053.04 292.77 1036.61 299.083C1047.08 255.875 1057.01 216.053 1063.3 187.992C1068.99 165.65 1079.34 150.25 1083.79 128.641C1084.28 125.882 1084.95 122.603 1085.62 119.014C1096.58 107.136 1112.67 87.2301 1111.17 70.7819C1111.81 55.4393 1055.27 39.3977 1047.77 38.7458C1031.79 35.9502 1000.59 77.1427 993.327 88.6783C990.326 93.8026 985.222 99.9752 981.284 104.394C938.159 156.954 869.86 218.267 820.042 265.606C759.538 322.934 695.376 382.288 636.404 443.474C617.533 445.756 593.948 452.15 585.407 455.302C488.519 488.027 395.153 500.214 293.719 539.925C305.866 504.888 368.234 408.807 389.175 375.454C436.759 300.894 482.175 228.133 533.982 156.578C553.73 129.303 574.57 102.099 595.578 79.0883C634.67 36.2493 561.973 0.385949 539.849 8.7629C529.927 12.5196 520.145 26.6727 511.61 41.9885C496.987 68.2282 481.311 94.1285 465.29 119.888C419.83 192.965 375.234 260.518 326.514 332.332C292.089 383.159 257.106 434.388 224.297 486.441C208.057 512.2 191.075 538.07 175.527 564.75C166.351 580.516 155.964 598.147 166.3 616.628C171.63 626.161 199.623 643.812 208.067 651.198C226.421 668.099 232.765 663.637 252.859 643.096C260.796 634.44 282.381 623.926 294.014 618.271C357.801 587.24 449.588 563.204 529.157 550.439C529.167 550.442 529.167 550.459 529.177 550.463C529.312 550.516 529.372 550.466 529.423 550.392C529.631 550.362 529.846 550.325 530.054 550.291C530.095 550.348 530.115 550.412 530.226 550.436C530.357 550.459 530.478 550.352 530.478 550.227C530.478 550.224 530.474 550.224 530.474 550.224C531.496 550.059 532.507 549.905 533.522 549.747C533.542 549.754 533.549 549.764 533.572 549.767C533.613 549.774 533.616 549.733 533.646 549.727C534.073 549.659 534.493 549.599 534.916 549.532C534.873 549.703 534.994 549.801 535.121 549.898C535.162 549.76 535.195 549.619 535.101 549.501C536.052 549.357 537 549.209 537.947 549.068C537.954 549.071 537.961 549.071 537.971 549.075C537.954 549.79 538.361 550.093 539.006 550.042C539.648 549.995 540.034 549.666 539.863 548.94C539.836 548.907 539.806 548.873 539.775 548.84C539.449 548.87 539.12 548.907 538.791 548.937C539.15 548.883 539.51 548.826 539.869 548.772C539.839 548.799 539.806 548.816 539.775 548.84C539.806 548.873 539.836 548.907 539.863 548.94C539.947 548.93 540.031 548.924 540.115 548.907C540.229 548.883 540.4 548.91 540.387 548.745C540.387 548.732 540.35 548.719 540.326 548.705C540.787 548.635 541.25 548.564 541.711 548.493C541.798 548.776 542.077 548.799 542.396 548.776C542.359 548.668 542.343 548.534 542.322 548.406C542.917 548.319 543.502 548.238 544.093 548.151C543.838 549.34 543.74 550.523 543.744 551.702C543.697 551.756 543.666 551.82 543.693 551.911C543.697 551.928 543.727 551.934 543.754 551.948C543.761 552.421 543.754 552.892 543.801 553.362C543.787 553.406 543.757 553.436 543.757 553.49C543.757 553.54 543.791 553.554 543.808 553.591C543.838 553.853 543.902 554.112 543.942 554.377C543.855 554.411 543.791 554.478 543.818 554.585C543.828 554.629 543.939 554.646 544.002 554.673C544.278 556.229 544.725 557.778 545.387 559.31C545.353 559.374 545.31 559.421 545.306 559.525C545.084 559.357 544.863 559.192 544.641 559.024C544.664 558.641 544.795 558.258 544.668 557.878C544.614 557.71 544.456 557.613 544.275 557.596C544.07 557.576 543.942 557.71 543.918 557.885C543.848 558.389 543.744 558.897 543.784 559.394C543.808 559.706 544.295 559.629 544.49 559.858C544.614 560.005 544.893 560.066 544.836 560.17C544.429 560.664 544.033 560.022 543.797 560.399C543.532 560.819 543.7 561.269 544.076 561.531C544.476 561.81 544.275 562.358 544.658 562.636C545.528 562.384 545.582 561.467 546.066 560.919C545.615 560.624 545.266 560.274 545.441 559.659C545.467 559.666 545.494 559.673 545.525 559.68C545.693 560.056 545.924 560.429 546.119 560.805C546.106 560.842 546.092 560.882 546.082 560.919C546.129 560.95 546.17 560.963 546.213 560.983C546.97 562.438 547.846 563.883 548.905 565.301C548.871 565.321 548.838 565.338 548.808 565.365C548.797 565.372 548.831 565.462 548.844 565.466C548.898 565.466 548.952 565.456 548.999 565.442C550.511 567.452 552.319 569.421 554.342 571.339C554.197 571.437 554.076 571.565 554.073 571.82C554.342 571.82 554.604 571.837 554.842 571.793C555.525 572.428 556.203 573.063 556.936 573.688C556.546 573.534 556.391 574.004 556.096 574.118C556.018 574.145 555.941 574.175 555.864 574.202C555.854 574.689 556.61 574.908 556.321 575.496C556.318 575.496 556.247 575.462 556.247 575.462L556.274 575.54C556.341 577.273 556.976 577.858 558.408 577.515C558.465 577.472 558.515 577.425 558.566 577.374C558.438 576.988 558.408 576.491 557.783 576.645C557.766 576.682 557.752 576.719 557.739 576.756C557.752 576.719 557.766 576.682 557.779 576.642C557.914 576.228 557.846 575.761 558.112 575.382C558.119 575.388 558.122 575.398 558.125 575.409C558.125 575.392 558.122 575.378 558.119 575.362L558.109 575.372C558.102 575.157 558.266 574.952 558.226 574.733C559.17 575.503 560.141 576.265 561.15 577.015C561.052 577.203 561.102 577.304 561.324 577.465C562 577.946 562.258 578.715 562.772 579.343C562.977 578.967 562.856 578.604 562.87 578.268C564.355 579.32 565.877 580.358 567.467 581.366C567.228 581.958 567.423 582.388 567.977 582.7L568.011 582.673C567.947 582.327 568.018 581.934 567.867 581.611C571.489 583.886 575.329 586.033 579.271 588.019C579.271 588.019 579.271 588.023 579.268 588.026H579.284C579.291 588.029 579.295 588.033 579.301 588.036C579.5 588.392 579.741 588.463 580.037 588.396C580.303 588.527 580.568 588.651 580.83 588.779C580.682 589.242 580.571 589.582 580.464 589.908L580.454 589.894C580.716 590.086 580.518 590.687 581.005 590.63C581.811 590.533 581.68 591.07 581.798 591.501C581.354 591.655 581.153 591.339 580.874 591.279C580.272 591.151 579.651 591.709 579.92 592.23C580.329 593.019 580.807 593.826 581.751 594.132L581.761 594.121C581.986 593.728 582.11 593.308 582.087 592.851C581.983 592.781 581.862 592.724 581.781 592.633C581.697 592.532 581.687 592.391 581.842 592.33C581.875 592.317 581.983 592.411 582.01 592.475C582.057 592.593 582.067 592.724 582.09 592.848C582.43 593.039 582.722 592.982 583.122 592.912C584.005 592.757 584.96 592.216 585.87 593.026C586.23 593.349 586.63 593.241 586.482 592.593C585.83 592.344 585.239 592.058 584.456 592.115C583.545 592.179 582.719 591.837 582.292 590.741C582.047 590.103 581.438 589.592 581.018 588.873C581.331 589.024 581.647 589.175 581.963 589.326C581.959 589.404 581.956 589.484 582.01 589.548C582.201 589.773 582.322 589.679 582.436 589.558C582.537 589.605 582.638 589.656 582.739 589.703C582.651 590.355 582.782 590.375 583.68 590.254C583.757 590.244 583.851 590.301 583.925 590.281C583.932 590.281 583.932 590.277 583.938 590.274C584.395 590.486 584.852 590.687 585.309 590.892C585.232 590.943 585.145 590.983 585.091 591.094C585.346 591.195 585.497 591.138 585.615 591.03C585.897 591.158 586.18 591.289 586.465 591.413C586.418 591.45 586.368 591.46 586.324 591.504C586.321 591.504 586.25 591.497 586.25 591.497V591.571C586.223 591.934 586.374 592.257 586.492 592.583C587.369 592.008 587.298 592.74 587.463 593.258C587.55 593.527 587.624 593.997 588.108 593.88C588.518 593.782 588.276 593.335 588.391 593.181C588.753 592.677 588.495 592.535 588.115 592.283C588.014 592.216 587.934 592.119 587.846 592.035C589.177 592.613 590.507 593.171 591.835 593.712C591.643 593.953 591.589 594.216 592.147 594.555C592.275 594.629 591.969 594.743 591.831 594.817C591.505 594.992 591.68 595.254 591.731 595.489C592.1 595.543 592.13 596.151 592.776 595.99C592.426 595.419 592.88 595.019 593.075 594.538C593.411 594.592 593.606 594.693 593.501 595.13C593.417 595.486 593.317 596.03 593.683 596.195C594.194 596.43 594.368 596.766 594.442 597.26C594.459 597.394 594.604 597.455 594.745 597.435C594.882 597.414 595.03 597.24 594.98 597.196C594.526 596.769 595.528 595.691 594.281 595.623C594.096 595.613 593.989 595.351 594.103 595.224C594.234 595.079 594.328 594.904 594.419 594.723C594.852 594.891 595.289 595.066 595.719 595.23C595.686 595.395 595.652 595.556 595.618 595.721C595.988 595.805 596.183 595.697 596.29 595.449C597.137 595.765 597.974 596.057 598.811 596.356C598.747 596.853 598.851 597.139 599.14 597.552C599.449 597.999 600.044 598.258 600.108 598.846C600.218 599.847 600.867 600.519 601.435 601.248C601.263 601.316 601.072 601.467 601.25 601.595C601.586 601.843 601.996 601.971 602.436 601.863C602.53 601.195 601.808 601.013 601.747 600.489C601.831 600.412 602.087 600.549 602.013 600.274C601.925 600.345 601.835 600.415 601.744 600.482C601.072 600.123 601.274 599.353 600.988 598.812C600.948 598.735 601.025 598.496 601.089 598.483C601.979 598.244 601.767 597.851 601.321 597.324C601.307 597.307 601.331 597.26 601.327 597.233C602.49 597.626 603.642 598.006 604.771 598.359C604.194 598.806 603.686 599.484 602.725 598.775C602.97 599.323 603.075 599.8 603.048 600.294C604.765 599.743 604.923 599.632 605.101 598.459C605.548 598.597 605.988 598.728 606.431 598.859C606.596 599.266 606.882 599.575 607.47 599.72C607.288 599.41 607.187 599.222 607.124 599.068C607.765 599.256 608.397 599.441 609.022 599.612C609.066 599.874 609.099 600.109 609.146 600.425C609.523 600.23 609.644 600.015 609.681 599.79C610.423 599.995 611.176 600.203 611.895 600.385C611.895 600.556 611.976 600.704 612.11 600.812C612.53 601.141 612.658 601.521 612.537 602.048C612.483 602.277 612.769 602.367 612.974 602.435C613.061 602.293 613.128 602.125 613.249 602.018C613.562 601.732 614.002 601.494 613.784 600.973C613.757 600.906 613.703 600.865 613.669 600.802C613.999 600.879 614.335 600.963 614.657 601.033C614.57 601.222 614.54 601.43 614.62 601.658C614.691 601.857 614.896 601.994 615.128 601.951C615.346 601.904 615.326 601.719 615.269 601.551C615.218 601.393 615.195 601.262 615.215 601.164C615.954 601.326 616.65 601.453 617.352 601.588C617.359 601.608 617.365 601.628 617.376 601.645C617.093 601.924 617.107 602.3 617.053 602.65C616.73 602.475 616.495 602.512 616.408 602.915C616.337 603.238 616.267 603.564 616.196 603.89L616.273 603.97C616.754 603.671 617.365 603.832 617.917 603.584C617.607 603.241 617.261 603.06 617.103 602.703C617.661 602.522 617.466 602.082 617.439 601.702C617.5 601.685 617.503 601.648 617.547 601.628C618.935 601.887 620.272 602.115 621.495 602.263C621.475 602.401 621.458 602.539 621.472 602.687C621.465 602.683 621.462 602.677 621.458 602.673L621.472 602.687C621.283 602.666 621.052 602.539 620.968 602.828C620.921 602.989 620.981 603.167 621.146 603.238C621.431 603.362 621.603 603.221 621.703 602.952C621.707 602.955 621.714 602.962 621.717 602.965L621.703 602.952C622.08 602.754 622.167 602.542 622.127 602.324C622.799 602.398 623.464 602.468 624.076 602.505C624.63 603.312 624.617 603.365 623.733 603.785C623.548 603.873 623.377 603.984 623.199 604.088C623.421 604.316 623.642 604.548 623.972 604.891C624.163 603.96 624.802 603.765 625.521 603.695C625.927 603.332 625.884 602.939 625.756 602.542C626.136 602.542 626.509 602.539 626.858 602.522C626.892 602.529 626.949 602.545 626.952 602.539C626.955 602.532 626.955 602.522 626.959 602.512C627.194 602.498 627.409 602.475 627.627 602.451C627.493 602.848 627.752 603.194 627.853 603.557C628.158 603.14 628.179 602.761 627.839 602.435C628.669 602.337 629.412 602.193 629.986 601.961C629.996 601.957 630 601.978 630.01 601.974C630.047 601.957 630.067 601.917 630.104 601.894C630.45 601.742 630.773 601.578 631.008 601.373C632.449 598.154 633.918 595.089 635.403 592.115C635.406 592.199 635.447 592.24 635.527 592.183C635.547 592.166 635.558 592.109 635.547 592.085C635.534 592.062 635.49 592.052 635.46 592.038C635.447 592.048 635.437 592.062 635.423 592.075C637.275 588.362 639.166 584.841 641.078 581.403C641.149 581.501 641.226 581.601 641.33 581.642C641.764 581.82 641.885 581.407 642.039 581.111C641.932 581.05 641.818 580.993 641.717 580.923C641.629 580.859 641.539 580.792 641.448 580.738C642.503 578.846 643.565 576.961 644.637 575.116C644.781 575.325 644.98 575.452 645.181 575.385C645.746 575.197 645.568 574.864 645.329 574.488C645.148 574.199 645.373 574.017 645.628 573.9C645.742 573.846 645.883 573.799 645.793 573.634C645.756 573.571 645.658 573.544 645.591 573.503C645.682 573.345 645.776 573.187 645.867 573.03C645.944 573.053 645.994 573.097 646.088 573.103C646.119 573.07 646.149 573.036 646.182 573.003C646.209 572.683 646.334 572.458 646.683 572.411C646.965 572.371 647.238 572.294 647.463 572.099C647.164 572.069 646.895 571.89 646.613 571.766C646.784 571.477 646.955 571.185 647.127 570.896C647.177 570.919 647.227 570.94 647.288 570.95C647.97 571.534 648.686 572.028 649.452 572.048C649.647 572.065 649.748 572.055 649.892 572.062C649.677 572.163 649.57 572.344 649.606 572.599C649.627 572.734 649.741 572.845 649.862 572.801C650.121 572.714 650.232 572.495 650.205 572.223C650.191 572.116 650.094 572.079 649.983 572.062C650.369 572.069 650.652 572.032 650.867 571.887C651.982 571.144 652.614 569.864 652.587 568.681C652.627 568.705 652.661 568.742 652.701 568.765C652.967 568.907 653.293 568.655 653.424 568.379C653.612 567.976 653.256 567.851 652.99 567.761C652.745 567.683 652.483 567.657 652.258 567.515C652.18 567.374 652.167 567.21 652.056 567.082C651.754 566.733 651.465 566.313 651.337 565.876C651.186 565.365 650.897 565.204 650.571 565.183C652.348 562.27 654.143 559.337 655.957 556.38C656.115 556.635 656.334 556.87 656.683 556.813C657.254 556.719 656.945 556.286 656.965 555.987C656.982 555.782 657.086 555.557 656.868 555.389C656.757 555.345 656.656 555.358 656.562 555.395C659.032 551.363 661.535 547.193 664.062 542.875C664.059 542.905 664.055 542.936 664.055 542.969C664.307 542.983 664.563 543 664.815 543.013C664.825 542.845 664.835 542.677 664.845 542.509L664.17 542.69C664.892 541.454 665.608 540.258 666.334 538.984C667.637 536.857 669.133 534.582 670.776 532.2C670.782 532.25 670.749 532.297 670.803 532.351C670.836 532.385 671.004 532.284 671.118 532.24C671.071 532.129 671.024 532.022 670.977 531.911C675.12 525.92 680.261 519.179 686.212 511.854C686.538 511.733 686.881 511.521 687.214 511.353C687.261 511.37 687.308 511.39 687.362 511.377C687.52 511.336 687.593 511.242 687.644 511.135C689.63 510.016 691.76 508.043 694.042 505.029C694.065 505.036 694.065 505.076 694.092 505.076C694.273 505.076 694.405 504.979 694.324 504.787C694.317 504.767 694.287 504.761 694.27 504.747C694.334 504.66 694.394 504.599 694.458 504.509C694.69 504.273 695.003 504.025 695.258 503.783C695.265 503.786 695.268 503.803 695.275 503.803C695.319 503.81 695.308 503.749 695.329 503.722C696.108 503 697.002 502.257 698.003 501.498C698.097 501.599 698.222 501.662 698.383 501.676C698.507 501.689 698.706 501.656 698.692 501.528C698.675 501.347 698.561 501.253 698.423 501.179C727.089 479.986 839.007 445.809 930.69 420.675C918.617 465.903 908.2 505.476 903.059 530.086C898.694 552.502 893.126 574.498 888.513 596.8C879.531 640.206 989.523 639.225 990.847 607.928C991.647 584.323 993.357 551.817 992.413 528.897C993.213 499.374 1001.99 451.26 1013.39 398.972C1028.95 395.091 1041.42 392.134 1049.36 390.41C1065.8 387.006 1080.58 385.716 1097.25 385.716C1120.75 378.018 1116.44 285.723 1084.94 283.596Z"
    fill="black" />
</svg>